<?xml version="1.0" encoding="utf-8"?>
<!-- Generator: Adobe Illustrator 16.0.0, SVG Export Plug-In . SVG Version: 6.00 Build 0)  -->
<!DOCTYPE svg PUBLIC "-//W3C//DTD SVG 1.1//EN" "http://www.w3.org/Graphics/SVG/1.1/DTD/svg11.dtd">
<svg version="1.1" id="Capa_1" xmlns="http://www.w3.org/2000/svg" xmlns:xlink="http://www.w3.org/1999/xlink" x="0px" y="0px"
	 width="100px" height="100px" viewBox="0 0 100 100" enable-background="new 0 0 100 100" xml:space="preserve">
<g>
	<path fill="#1778C1" d="M47.409,9.322c-1.545,0-3.033,0.241-4.43,0.686C40.308,6.652,36.188,4.5,31.567,4.5
		C24.3,4.5,18.276,9.817,17.17,16.772c-4.703,2.418-7.92,7.319-7.92,12.972c0,8.052,6.527,14.579,14.579,14.579H56.48
		c1.789,0,3.503-0.323,5.085-0.912V16.082c-0.735-0.275-1.499-0.494-2.287-0.646C56.635,11.735,52.303,9.322,47.409,9.322z"/>
	<path fill="#1778C1" d="M88.653,23.622H72.222c-1.548-3.1-4.232-5.533-7.509-6.753v25.756c3.234-1.205,5.892-3.593,7.448-6.636
		h7.131v14.331c0,1.158,0.938,2.095,2.095,2.095c1.159,0,2.097-0.938,2.097-2.095V33.892c0-1.157-0.938-2.096-2.097-2.096h-7.881
		c0.101-0.668,0.153-1.353,0.153-2.051c0-0.655-0.048-1.299-0.138-1.931h13.035v22.505c0,1.158,0.939,2.095,2.097,2.095
		s2.097-0.938,2.097-2.095V25.717C90.75,24.56,89.811,23.622,88.653,23.622z M67.096,23.592h2.09v0.297
		c-0.64,0.359-1.072,1.043-1.072,1.829c0,0.786,0.433,1.47,1.072,1.829v0.221h-2.09V23.592z M67.096,35.9v-4.175h2.09v0.338
		c-0.64,0.359-1.072,1.042-1.072,1.829c0,0.787,0.433,1.47,1.072,1.829V35.9H67.096z"/>
</g>
<g id="DpdOqA.tif">
	<g>
		<path fill="#1778C1" d="M74.064,46.001c0.478,0,0.955,0,1.433,0c0.18,0.512,0.482,1.017,0.514,1.538
			c0.075,1.272,0.024,2.552,0.024,3.927c0.441,0,0.791,0,1.141,0c4.627,0,9.253-0.003,13.88,0.001
			c1.735,0.002,2.359,0.638,2.359,2.382c0,10.028,0,20.058,0,30.087c0,1.863-0.597,2.467-2.452,2.468
			c-4.597,0.003-9.193,0.001-13.79,0.001c-0.35,0-0.698,0-1.138,0c0,1.378,0.051,2.658-0.024,3.93
			c-0.031,0.521-0.334,1.024-0.514,1.535c-0.478,0-0.955,0-1.433,0c-0.328-0.107-0.649-0.254-0.985-0.317
			c-7.77-1.479-15.542-2.942-23.309-4.436c-0.465-0.09-0.887-0.409-1.329-0.622c0-11.706,0-23.412,0-35.118
			c0.793-0.274,1.566-0.648,2.382-0.808c6.128-1.194,12.268-2.336,18.398-3.517C70.844,46.741,72.451,46.354,74.064,46.001z
			 M74.024,48.167c-0.158,0-0.28-0.019-0.395,0.003c-7.548,1.434-15.094,2.876-22.643,4.301c-0.506,0.096-0.675,0.305-0.674,0.825
			c0.014,10.42,0.015,20.839-0.001,31.258c0,0.572,0.211,0.766,0.741,0.865c6.555,1.235,13.106,2.491,19.66,3.737
			c1.092,0.207,2.188,0.39,3.312,0.589C74.024,75.813,74.024,61.999,74.024,48.167z M76.078,64.284c1.222,0,2.375,0,3.573,0
			c0,0.682,0,1.293,0,2.004c-1.231,0-2.409,0-3.566,0c0,1.522,0,2.944,0,4.434c1.203,0,2.357,0,3.56,0c0,0.646,0,1.223,0,1.89
			c-1.212,0-2.363,0-3.551,0c0,1.862,0,3.634,0,5.475c1.21,0,2.363,0,3.543,0c0,0.647,0,1.223,0,1.89c-1.22,0-2.37,0-3.535,0
			c0,1.565,0,3.037,0,4.485c5.158,0,10.25,0,15.37,0c0-10.38,0-20.697,0-31.046c-5.174,0-10.286,0-15.383,0c0,1.521,0,2.974,0,4.514
			c1.205,0,2.357,0,3.557,0c0,0.667,0,1.243,0,1.889c-1.217,0-2.372,0-3.567,0C76.078,61.308,76.078,62.729,76.078,64.284z"/>
		<path fill-rule="evenodd" clip-rule="evenodd" fill="#FFFFFF" d="M74.024,48.167c0,13.832,0,27.646,0,41.578
			c-1.123-0.199-2.22-0.382-3.312-0.589c-6.554-1.246-13.105-2.502-19.66-3.737c-0.53-0.1-0.742-0.293-0.741-0.865
			c0.016-10.419,0.016-20.838,0.001-31.258c-0.001-0.521,0.168-0.729,0.674-0.825c7.549-1.425,15.095-2.867,22.643-4.301
			C73.744,48.148,73.866,48.167,74.024,48.167z M54.489,60.336c1.606,2.756,3.105,5.356,4.643,7.935
			c0.301,0.505,0.299,0.872-0.023,1.365c-1.58,2.417-3.123,4.857-4.673,7.294c-0.114,0.179-0.179,0.389-0.315,0.696
			c1.059,0,1.993-0.105,2.894,0.024c1.393,0.201,2.064-0.425,2.605-1.626c0.734-1.633,1.66-3.18,2.469-4.698
			c1.042,1.962,2.085,3.931,3.138,5.894c0.078,0.147,0.224,0.365,0.342,0.367c1.466,0.025,2.933,0.017,4.541,0.017
			c-1.734-2.842-3.353-5.513-4.995-8.168c-0.249-0.402-0.267-0.687-0.007-1.104c1.555-2.503,3.074-5.027,4.6-7.548
			c0.067-0.111,0.074-0.26,0.123-0.447c-1.32,0-2.572-0.025-3.822,0.021c-0.25,0.009-0.595,0.237-0.718,0.462
			c-1.037,1.897-2.034,3.818-3.045,5.735c-0.021-0.032-0.098-0.119-0.145-0.22c-0.847-1.836-1.679-3.68-2.549-5.506
			c-0.103-0.214-0.404-0.465-0.621-0.471C57.505,60.316,56.079,60.336,54.489,60.336z"/>
		<path fill-rule="evenodd" clip-rule="evenodd" fill="#FFFFFF" d="M76.078,64.284c0-1.555,0-2.977,0-4.467c1.195,0,2.351,0,3.567,0
			c0-0.646,0-1.222,0-1.889c-1.199,0-2.352,0-3.557,0c0-1.54,0-2.993,0-4.514c5.097,0,10.209,0,15.383,0c0,10.349,0,20.666,0,31.046
			c-5.12,0-10.212,0-15.37,0c0-1.448,0-2.92,0-4.485c1.165,0,2.315,0,3.535,0c0-0.667,0-1.242,0-1.89c-1.18,0-2.333,0-3.543,0
			c0-1.841,0-3.612,0-5.475c1.188,0,2.339,0,3.551,0c0-0.667,0-1.244,0-1.89c-1.202,0-2.356,0-3.56,0c0-1.489,0-2.911,0-4.434
			c1.157,0,2.335,0,3.566,0c0-0.711,0-1.322,0-2.004C78.453,64.284,77.3,64.284,76.078,64.284z M88.798,64.338
			c-2.491,0-4.915,0-7.317,0c0,0.667,0,1.271,0,1.867c2.47,0,4.87,0,7.317,0C88.798,65.579,88.798,64.995,88.798,64.338z
			 M81.456,59.764c2.47,0,4.876,0,7.324,0c0-0.611,0-1.188,0-1.802c-2.47,0-4.874,0-7.324,0
			C81.456,58.562,81.456,59.117,81.456,59.764z M88.792,70.79c-2.482,0-4.911,0-7.336,0c0,0.619,0,1.175,0,1.746
			c2.472,0,4.898,0,7.336,0C88.792,71.907,88.792,71.353,88.792,70.79z M81.435,79.877c2.506,0,4.932,0,7.354,0
			c0-0.635,0-1.191,0-1.735c-2.488,0-4.918,0-7.354,0C81.435,78.743,81.435,79.277,81.435,79.877z"/>
		<path fill-rule="evenodd" clip-rule="evenodd" fill="#1778C1" d="M54.489,60.336c1.59,0,3.016-0.02,4.44,0.022
			c0.217,0.006,0.519,0.257,0.621,0.471c0.87,1.826,1.702,3.67,2.549,5.506c0.047,0.101,0.123,0.188,0.145,0.22
			c1.011-1.917,2.008-3.838,3.045-5.735c0.123-0.225,0.468-0.453,0.718-0.462c1.25-0.047,2.502-0.021,3.822-0.021
			c-0.049,0.188-0.056,0.336-0.123,0.447c-1.525,2.521-3.045,5.045-4.6,7.548c-0.26,0.418-0.242,0.702,0.007,1.104
			c1.643,2.655,3.261,5.326,4.995,8.168c-1.608,0-3.075,0.009-4.541-0.017c-0.118-0.002-0.264-0.22-0.342-0.367
			c-1.053-1.963-2.096-3.932-3.138-5.894c-0.809,1.519-1.734,3.065-2.469,4.698c-0.541,1.201-1.213,1.827-2.605,1.626
			c-0.9-0.13-1.835-0.024-2.894-0.024c0.137-0.308,0.201-0.518,0.315-0.696c1.55-2.437,3.093-4.877,4.673-7.294
			c0.322-0.493,0.324-0.86,0.023-1.365C57.595,65.692,56.096,63.092,54.489,60.336z"/>
		<path fill-rule="evenodd" clip-rule="evenodd" fill="#1778C1" d="M88.798,64.338c0,0.657,0,1.241,0,1.867
			c-2.447,0-4.848,0-7.317,0c0-0.596,0-1.2,0-1.867C83.883,64.338,86.307,64.338,88.798,64.338z"/>
		<path fill-rule="evenodd" clip-rule="evenodd" fill="#1778C1" d="M81.456,59.764c0-0.646,0-1.202,0-1.802c2.45,0,4.854,0,7.324,0
			c0,0.614,0,1.19,0,1.802C86.332,59.764,83.926,59.764,81.456,59.764z"/>
		<path fill-rule="evenodd" clip-rule="evenodd" fill="#1778C1" d="M88.792,70.79c0,0.562,0,1.117,0,1.746c-2.438,0-4.864,0-7.336,0
			c0-0.571,0-1.127,0-1.746C83.881,70.79,86.31,70.79,88.792,70.79z"/>
		<path fill-rule="evenodd" clip-rule="evenodd" fill="#1778C1" d="M81.435,79.877c0-0.6,0-1.134,0-1.735c2.436,0,4.865,0,7.354,0
			c0,0.544,0,1.101,0,1.735C86.366,79.877,83.94,79.877,81.435,79.877z"/>
	</g>
</g>
</svg>
