<?xml version="1.0" encoding="utf-8"?>
<!-- Generator: Adobe Illustrator 16.0.0, SVG Export Plug-In . SVG Version: 6.00 Build 0)  -->
<!DOCTYPE svg PUBLIC "-//W3C//DTD SVG 1.1//EN" "http://www.w3.org/Graphics/SVG/1.1/DTD/svg11.dtd">
<svg version="1.1" id="Capa_1" xmlns="http://www.w3.org/2000/svg" xmlns:xlink="http://www.w3.org/1999/xlink" x="0px" y="0px"
	 width="92.666px" height="92.666px" viewBox="0 0 92.666 92.666" enable-background="new 0 0 92.666 92.666" xml:space="preserve">
<g>
	<g>
		<path opacity="0.9" fill="#1778C1" enable-background="new    " d="M65.692,0H12.499v92.666h67.668v-75.72L65.692,0z M65.001,3.81
			l11.125,13.023H65.001V3.81z M77.167,89.666H15.499V3h46.502v16.833h15.166V89.666z"/>
		<polygon opacity="0.9" fill="#1778C1" enable-background="new    " points="58.167,20.5 58.167,18.166 33,18.166 19.667,18.166 
			19.667,20.5 33,20.5 		"/>
		<polygon opacity="0.9" fill="#1778C1" enable-background="new    " points="58.167,27 58.167,24.666 33,24.666 19.667,24.666 
			19.667,27 33,27 		"/>
		<polygon opacity="0.9" fill="#1778C1" enable-background="new    " points="58.167,33.5 58.167,31.166 33,31.166 19.667,31.166 
			19.667,33.5 33,33.5 		"/>
		<rect x="20.416" y="81.333" opacity="0.9" fill="#1778C1" enable-background="new    " width="49.584" height="2.333"/>
		<rect x="24.5" y="51.5" opacity="0.9" fill="#1778C1" enable-background="new    " width="6.674" height="24.172"/>
		<rect x="46.104" y="51.5" opacity="0.9" fill="#1778C1" enable-background="new    " width="6.674" height="24.172"/>
		<rect x="56.992" y="45.166" opacity="0.9" fill="#1778C1" enable-background="new    " width="6.674" height="30.505"/>
		<rect x="35.214" y="42.436" opacity="0.9" fill="#1778C1" enable-background="new    " width="6.674" height="33.235"/>
	</g>
</g>
</svg>
