<?xml version="1.0" encoding="utf-8"?>
<!-- Generator: Adobe Illustrator 16.0.0, SVG Export Plug-In . SVG Version: 6.00 Build 0)  -->
<!DOCTYPE svg PUBLIC "-//W3C//DTD SVG 1.1//EN" "http://www.w3.org/Graphics/SVG/1.1/DTD/svg11.dtd">
<svg version="1.1" id="Layer_1" xmlns="http://www.w3.org/2000/svg" xmlns:xlink="http://www.w3.org/1999/xlink" x="0px" y="0px"
	 width="200px" height="200px" viewBox="0 0 200 200" enable-background="new 0 0 200 200" xml:space="preserve">
<g>
	<path fill="#1778C1" d="M197.422,77.135l-94.303-72.97c-0.861-0.668-1.942-1.069-3.118-1.069c-1.175,0-2.256,0.401-3.12,1.069
		l-94.3,72.97c-1.68,1.298-2.431,3.561-1.709,5.679c0.728,2.117,2.706,3.449,4.825,3.449h188.605c2.121,0,4.101-1.332,4.825-3.449
		C199.848,80.696,199.098,78.433,197.422,77.135z M59.066,62.932l40.935-31.678l40.935,31.678H59.066z"/>
	<g>
		<path fill="#1778C1" d="M63.429,160.434h-5.128v-53.965c3.709,0,6.746-3.037,6.746-6.745c0-3.713-3.037-6.746-6.746-6.746H32.167
			c-3.711,0-6.749,3.033-6.749,6.746c0,3.708,3.037,6.745,6.749,6.745v53.965h-5.126c-0.893,0-1.623,0.727-1.623,1.616v3.236
			c0,0.891,0.729,1.62,1.623,1.62h36.388c0.889,0,1.618-0.729,1.618-1.62v-3.236C65.047,161.159,64.317,160.434,63.429,160.434z"/>
		<path fill="#1778C1" d="M118.193,160.434h-5.125v-53.965c3.709,0,6.744-3.037,6.744-6.745c0-3.713-3.035-6.746-6.744-6.746H86.933
			c-3.711,0-6.746,3.033-6.746,6.746c0,3.708,3.035,6.745,6.746,6.745v53.965h-5.125c-0.893,0-1.621,0.727-1.621,1.616v3.236
			c0,0.891,0.728,1.62,1.621,1.62h36.385c0.892,0,1.621-0.729,1.621-1.62v-3.236C119.812,161.159,119.084,160.434,118.193,160.434z"
			/>
		<path fill="#1778C1" d="M172.961,160.434h-5.128v-53.965c3.711,0,6.748-3.037,6.748-6.745c0-3.713-3.037-6.746-6.748-6.746H141.7
			c-3.709,0-6.746,3.033-6.746,6.746c0,3.708,3.037,6.745,6.746,6.745v53.965h-5.128c-0.887,0-1.618,0.727-1.618,1.616v3.236
			c0,0.891,0.731,1.62,1.618,1.62h36.389c0.891,0,1.62-0.729,1.62-1.62v-3.236C174.581,161.159,173.852,160.434,172.961,160.434z"/>
	</g>
	<path fill="#1778C1" d="M183.335,185.238v-8.33c0-0.856-0.326-1.709-0.979-2.358c-0.647-0.653-1.5-0.976-2.354-0.976h-160
		c-0.853,0-1.707,0.322-2.358,0.976c-0.649,0.649-0.976,1.502-0.976,2.358v8.33H3.334c-0.855,0-1.708,0.326-2.358,0.976
		C0.325,186.867,0,187.721,0,188.572v8.33h200v-8.33c0-0.854-0.326-1.705-0.979-2.358c-0.646-0.647-1.5-0.976-2.354-0.976H183.335z"
		/>
</g>
</svg>
