<svg xmlns="http://www.w3.org/2000/svg" xmlns:xlink="http://www.w3.org/1999/xlink" width="64" height="64" viewBox="0 0 64 64">
  <defs>
    <path id="icon-6-a" d="M40.3858333,49.3002604 L41.5297222,35.9960938 C38.1383333,33.3239583 35.8586111,29.7799479 35.8586111,25.5416667 C35.8666667,17.9289062 42.9636111,11.3333333 48.1111111,11.3333333 C49.8913889,11.3333333 51.3333333,12.7299479 51.3333333,14.4414062 L51.3333333,49.5585938 C51.3333333,51.2700521 49.8913889,52.6666667 48.1111111,52.6666667 L43.6,52.6666667 C41.7633333,52.6666667 40.2327778,51.1570312 40.3858333,49.3002604 Z M38.4444444,25.5416667 C38.4444444,29.6588542 41.0383333,32.4440104 44.2283333,34.7851562 L42.9555556,49.5263021 C42.9313889,49.825 43.2294444,50.0833333 43.6,50.0833333 L48.1111111,50.0833333 C48.4575,50.0833333 48.7555556,49.8411458 48.7555556,49.5585937 L48.7555556,14.4414062 C48.7555556,14.1588542 48.4575,13.9166667 48.1111111,13.9166667 C44.5183333,13.9166667 38.4444444,19.2286458 38.4444444,25.5416667 Z M32.0563889,14.0619792 C31.7905556,12.4877604 30.3486111,11.3333333 28.3427778,11.3333333 C27.3841667,11.3333333 26.4013889,11.6078125 25.6602778,12.2375 C24.9836111,11.6643229 24.0491667,11.3333333 22.9777778,11.3333333 C21.9063889,11.3333333 20.9719444,11.6643229 20.2952778,12.2375 C19.5541667,11.6078125 18.5713889,11.3333333 17.6127778,11.3333333 C15.5827778,11.3333333 14.165,12.5039062 13.8991667,14.0619792 C13.7541667,14.8208333 12.6666667,20.8916667 12.6666667,23.4346354 C12.6666667,27.54375 14.8175,30.8294271 18.3861111,32.3713542 L17.4677778,49.3890625 C17.3711111,51.1651042 18.7808333,52.6666667 20.5611111,52.6666667 L25.3944444,52.6666667 C27.1666667,52.6666667 28.5844444,51.1731771 28.4877778,49.3890625 L27.5694444,32.3713542 C31.13,30.8294271 33.2888889,27.54375 33.2888889,23.4346354 C33.2888889,20.8916667 32.2013889,14.8208333 32.0563889,14.0619792 Z M24.9352778,30.7083333 L25.9180556,49.5263021 C25.9341667,49.825 25.7005556,50.0833333 25.3944444,50.0833333 L20.5611111,50.0833333 C20.2630556,50.0833333 20.0213889,49.8330729 20.0375,49.5263021 L21.0202778,30.7083333 C17.6047222,29.9979167 15.2444444,27.2369792 15.2444444,23.4346354 C15.2444444,21.0369792 16.4366667,14.5059896 16.4366667,14.5059896 C16.5655556,13.7067708 18.7163889,13.7229167 18.8130556,14.5221354 L18.8130556,24.4114583 C18.8855556,25.3398437 21.0847222,25.3559896 21.1894444,24.4276042 L21.7855556,14.5059896 C21.9144444,13.7229167 24.0330556,13.7229167 24.1619444,14.5059896 L24.7580556,24.4276042 C24.8627778,25.3479167 27.0619444,25.3317708 27.1344444,24.4114583 L27.1344444,14.5302083 C27.2311111,13.7309896 29.3819444,13.7148438 29.5108333,14.5140625 C29.5108333,14.5140625 30.7030556,21.0450521 30.7030556,23.4427083 C30.7111111,27.2208333 28.3669444,29.9979167 24.9352778,30.7083333 Z"/>
  </defs>
  <g fill="none" fill-rule="evenodd">
    <circle cx="32" cy="32" r="32" fill="#F0F3F8"/>
    <rect width="64" height="64"/>
    <path fill="#FFF" d="M38.4444444 25.5416667C38.4444444 29.6588542 41.0383333 32.4440104 44.2283333 34.7851562L42.9555556 49.5263021C42.9313889 49.825 43.2294444 50.0833333 43.6 50.0833333L48.1111111 50.0833333C48.4575 50.0833333 48.7555556 49.8411458 48.7555556 49.5585937L48.7555556 14.4414062C48.7555556 14.1588542 48.4575 13.9166667 48.1111111 13.9166667 44.5183333 13.9166667 38.4444444 19.2286458 38.4444444 25.5416667zM24.9352778 30.7083333L25.9180556 49.5263021C25.9341667 49.825 25.7005556 50.0833333 25.3944444 50.0833333L20.5611111 50.0833333C20.2630556 50.0833333 20.0213889 49.8330729 20.0375 49.5263021L21.0202778 30.7083333C17.6047222 29.9979167 15.2444444 27.2369792 15.2444444 23.4346354 15.2444444 21.0369792 16.4366667 14.5059896 16.4366667 14.5059896 16.5655556 13.7067708 18.7163889 13.7229167 18.8130556 14.5221354L18.8130556 24.4114583C18.8855556 25.3398438 21.0847222 25.3559896 21.1894444 24.4276042L21.7855556 14.5059896C21.9144444 13.7229167 24.0330556 13.7229167 24.1619444 14.5059896L24.7580556 24.4276042C24.8627778 25.3479167 27.0619444 25.3317708 27.1344444 24.4114583L27.1344444 14.5302083C27.2311111 13.7309896 29.3819444 13.7148438 29.5108333 14.5140625 29.5108333 14.5140625 30.7030556 21.0450521 30.7030556 23.4427083 30.7111111 27.2208333 28.3669444 29.9979167 24.9352778 30.7083333z"/>
    <mask id="icon-6-b" fill="#fff">
      <use xlink:href="#icon-6-a"/>
    </mask>
    <use fill="#000" fill-rule="nonzero" xlink:href="#icon-6-a"/>
    <g fill="#0080FF" mask="url(#icon-6-b)">
      <rect width="213" height="133" transform="translate(-72.667 -39.333)"/>
    </g>
  </g>
</svg>
