<svg xmlns="http://www.w3.org/2000/svg" width="64" height="64" viewBox="0 0 64 64">
  <g fill="none" fill-rule="evenodd">
    <circle cx="32" cy="32" r="32" fill="#F0F3F8"/>
    <g transform="translate(12 8.667)">
      <path fill="#0080FF" fill-rule="nonzero" d="M29.5653333,1.20533333 C27.318,0.387333333 25.0206667,0 22.7606667,0 C16.7293333,0 10.9713333,2.76333333 7.198,7.48866667 C6.75133333,8.048 7.02,8.89133333 7.69266667,9.136 L23.436,14.866 L17.1993333,32 L0.533333333,32 C0.238666667,32 0,32.2386667 0,32.5333333 L0,33.6 C0,33.8946667 0.238666667,34.1333333 0.533333333,34.1333333 L37.8666667,34.1333333 C38.1613333,34.1333333 38.4,33.8946667 38.4,33.6 L38.4,32.5333333 C38.4,32.2386667 38.1613333,32 37.8666667,32 L19.4686667,32 L25.4393333,15.5953333 L41.2226667,21.34 C41.3446667,21.3846667 41.4693333,21.4053333 41.5913333,21.4053333 C42.1426667,21.4053333 42.646,20.982 42.6606667,20.396 C42.8626667,12.0853333 37.8093333,4.206 29.5653333,1.20533333 Z"/>
      <path fill="#C7D3E3" d="M9.878,7.66133333 C13.2073333,4.176 17.918,2.13333333 22.7613333,2.13333333 C23.282,2.13333333 23.8013333,2.15666667 24.3186667,2.20266667 C21.8606667,3.74666667 19.4013333,6.644 17.448,10.4166667 L9.878,7.66133333 Z M32.9453333,16.0573333 C33.8673333,11.9526667 33.8566667,8.172 32.992,5.41466667 C37.3473333,8.48666667 40.164,13.378 40.4993333,18.8073333 L32.9453333,16.0573333 Z"/>
      <path fill="#FFF" d="M30.892,15.31 L19.484,11.158 C22.1793333,6.062 25.6593333,3.07333333 28.0266667,3.07266667 C28.3166667,3.07266667 28.5813333,3.118 28.8353333,3.21 C30.1393333,3.68466667 31.1,5.554 31.406,8.21 C31.65,10.332 31.4413333,12.7733333 30.892,15.31 Z"/>
    </g>
    <path fill="#0080FF" fill-rule="nonzero" d="M38.1833333,2.53333333 L36.7333333,2.53333333 C35.1600833,2.53333333 33.96625,2.00708333 33.3445625,1.41458333 C32.8068542,0.901458333 32.1567708,0.533333333 31.425125,0.533333333 L30.4403333,0.533333333 C29.7086875,0.533333333 29.0586042,0.901458333 28.5208958,1.41458333 C27.9004167,2.00708333 26.7065833,2.53333333 25.1333333,2.53333333 C23.5600833,2.53333333 22.36625,2.00708333 21.7445625,1.41458333 C21.2068542,0.901458333 20.5567708,0.533333333 19.825125,0.533333333 L18.8403333,0.533333333 C18.1086875,0.533333333 17.4586042,0.901458333 16.9208958,1.41458333 C16.3004167,2.00708333 15.1065833,2.53333333 13.5333333,2.53333333 C11.9600833,2.53333333 10.76625,2.00708333 10.1445625,1.41458333 C9.60685417,0.901458333 8.95677083,0.533333333 8.225125,0.533333333 L7.24033333,0.533333333 C6.5086875,0.533333333 5.85860417,0.901458333 5.32089583,1.41458333 C4.70041667,2.00708333 3.50658333,2.53333333 1.93333333,2.53333333 L0.483333333,2.53333333 C0.216291667,2.53333333 0,2.75708333 0,3.03333333 L0,4.03333333 C0,4.30958333 0.216291667,4.53333333 0.483333333,4.53333333 L1.93333333,4.53333333 C4.266625,4.53333333 6.32683333,3.77145833 7.73333333,2.54333333 C9.13983333,3.77208333 11.2000417,4.53333333 13.5333333,4.53333333 C15.866625,4.53333333 17.9268333,3.77145833 19.3333333,2.54333333 C20.7398333,3.77208333 22.8000417,4.53333333 25.1333333,4.53333333 C27.466625,4.53333333 29.5268333,3.77145833 30.9333333,2.54333333 C32.3398333,3.77208333 34.4000417,4.53333333 36.7333333,4.53333333 L38.1833333,4.53333333 C38.450375,4.53333333 38.6666667,4.30958333 38.6666667,4.03333333 L38.6666667,3.03333333 C38.6666667,2.75708333 38.450375,2.53333333 38.1833333,2.53333333 Z" transform="translate(12 44.667)"/>
  </g>
</svg>
