<svg xmlns="http://www.w3.org/2000/svg" xmlns:xlink="http://www.w3.org/1999/xlink" width="64" height="64" viewBox="0 0 64 64">
  <defs>
    <path id="icon-arena-a" d="M50.9444444,29.3442623 L50.9444444,36.7322404 L51.5300546,36.7322404 C52.1577881,36.7322404 52.6666667,37.241119 52.6666667,37.8688525 C52.6666667,38.4965859 52.1577881,39.0054645 51.5300546,39.0054645 L50.9444444,39.0054645 L50.9444444,46.3934426 L51.5300546,46.3934426 C52.1577881,46.3934426 52.6666667,46.9023212 52.6666667,47.5300546 C52.6666667,48.1577881 52.1577881,48.6666667 51.5300546,48.6666667 L12.4699454,48.6666667 C11.8422119,48.6666667 11.3333333,48.1577881 11.3333333,47.5300546 C11.3333333,46.9023212 11.8422119,46.3934426 12.4699454,46.3934426 L13.1162092,46.3934426 C13.0773925,46.2097383 13.0564836,46.0194796 13.0553814,45.8245254 C13.055371,45.8227008 13.0553619,43.5496805 13.0553539,39.0054645 L12.4699454,39.0054645 C11.8422119,39.0054645 11.3333333,38.4965859 11.3333333,37.8688525 C11.3333333,37.241119 11.8422119,36.7322404 12.4699454,36.7322404 L13.0553503,36.7322404 C13.0553473,34.6330653 13.0553444,32.1704059 13.0553418,29.3442623 L12.4699454,29.3442623 C11.8422119,29.3442623 11.3333333,28.8353838 11.3333333,28.2076503 C11.3333333,27.5799168 11.8422119,27.0710383 12.4699454,27.0710383 L13.0553397,27.0710383 C13.055338,24.9737296 13.0553363,22.7005056 13.0553347,20.2513661 C13.0553347,20.0567407 13.0751002,19.8666854 13.1127525,19.6830601 L12.4699454,19.6830601 C11.8422119,19.6830601 11.3333333,19.1741816 11.3333333,18.5464481 C11.3333333,17.9187146 11.8422119,17.4098361 12.4699454,17.4098361 L29.1411658,17.4098361 L29.1462187,17.4098471 L30.9467055,17.4098486 C32.0716118,17.4098492 33.0928341,18.060347 33.5590027,19.0738285 C34.8681107,21.9199158 36.111286,24.5856524 37.2885284,27.0710383 L51.5300546,27.0710383 C52.1577881,27.0710383 52.6666667,27.5799168 52.6666667,28.2076503 C52.6666667,28.8353838 52.1577881,29.3442623 51.5300546,29.3442623 L50.9444444,29.3442623 Z M12.4699454,14.6666667 L33.1596843,14.6666667 C33.7874178,14.6666667 34.2962963,14.9651435 34.2962963,15.3333333 C34.2962963,15.7015232 33.7874178,16 33.1596843,16 L12.4699454,16 C11.8422119,16 11.3333333,15.7015232 11.3333333,15.3333333 C11.3333333,14.9651435 11.8422119,14.6666667 12.4699454,14.6666667 Z M39.7327693,24 L51.6005641,24 C52.1893563,24 52.6666667,24.2984768 52.6666667,24.6666667 C52.6666667,25.0348565 52.1893563,25.3333333 51.6005641,25.3333333 L39.7327693,25.3333333 C39.1439771,25.3333333 38.6666667,25.0348565 38.6666667,24.6666667 C38.6666667,24.2984768 39.1439771,24 39.7327693,24 Z"/>
  </defs>
  <g fill="none" fill-rule="evenodd">
    <circle cx="32" cy="32" r="32" fill="#F0F3F8"/>
    <mask id="icon-arena-b" fill="#fff">
      <use xlink:href="#icon-arena-a"/>
    </mask>
    <use fill="#212121" fill-rule="nonzero" xlink:href="#icon-arena-a"/>
    <g fill="#0080FF" mask="url(#icon-arena-b)">
      <rect width="213" height="133" transform="translate(-74.667 -34.667)"/>
    </g>
    <path fill="#FFF" d="M42.3333333 36.7322404L42.3333333 33.6440656C42.3333333 32.213071 43.5067407 31.0491803 44.9534074 31.0491803 46.3995 31.0491803 47.5769259 32.213071 47.5769259 33.6440656L47.5769259 36.7322404 48.6481481 36.7322404 48.6481481 29.3442623 38.3709675 29.3442623C39.6614837 32.0396264 40.8669275 34.5022858 41.9872989 36.7322404L42.3333333 36.7322404zM37.1666667 46.307899L37.1666667 43.8735738C37.1666667 42.4425792 38.3400741 41.2786885 39.7867407 41.2786885 41.2328333 41.2786885 42.4102593 42.4425792 42.4102593 43.8735738L42.4102593 46.3205659C43.1457392 46.3242014 43.8311715 46.3286092 44.4665856 46.33379 43.3119876 44.2906949 42.0129156 41.8484622 40.5682867 39.0054645L15.3516322 39.0054645 15.3516327 45.8086221C15.3534162 46.1256665 15.6118719 46.378677 15.9289254 46.3769192 16.1200786 46.3758601 16.3104375 46.3748131 16.500002 46.3737783L16.5 43.8735738C16.5 42.4425792 17.6734074 41.2786885 19.1200741 41.2786885 20.5661667 41.2786885 21.7435926 42.4425792 21.7435926 43.8735738L21.7435926 46.3473176C22.3001159 46.344759 22.8485473 46.3423243 23.3888889 46.3400136L23.3888889 43.8735738C23.3888889 42.4425792 24.5622963 41.2786885 26.008963 41.2786885 27.4550556 41.2786885 28.6324815 42.4425792 28.6324815 43.8735738L28.6324815 46.3207053C29.1916479 46.3190164 29.740079 46.3174923 30.2777778 46.316133L30.2777778 43.8735738C30.2777778 42.4425792 31.4511852 41.2786885 32.8978519 41.2786885 34.3439444 41.2786885 35.5213704 42.4425792 35.5213704 43.8735738L35.5213704 46.307921C36.085751 46.3076683 36.6341813 46.3076609 37.1666667 46.307899zM30.2777778 36.7322404L30.2777778 34.2123716C30.2777778 32.781377 31.4511852 31.6174863 32.8978519 31.6174863 34.3439444 31.6174863 35.5213704 32.781377 35.5213704 34.2123716L35.5213704 36.7322404 39.4247035 36.7322404C38.3059336 34.487258 37.108114 32.0248151 35.8308126 29.3442623L15.3516316 29.3442623 15.3516316 36.7322404 16.5 36.7322404 16.5 34.2123716C16.5 32.781377 17.6734074 31.6174863 19.1200741 31.6174863 20.5661667 31.6174863 21.7435926 32.781377 21.7435926 34.2123716L21.7435926 36.7322404 23.3888889 36.7322404 23.3888889 34.2123716C23.3888889 32.781377 24.5622963 31.6174863 26.008963 31.6174863 27.4550556 31.6174863 28.6324815 32.781377 28.6324815 34.2123716L28.6324815 36.7322404 30.2777778 36.7322404zM28.6324815 27.0710383L34.7532095 27.0710383C33.7083748 24.8559232 32.6137637 22.5043068 31.4691623 20.0158678 31.3759288 19.813172 31.1716848 19.6830727 30.9467039 19.6830726L15.925705 19.6830601C15.6086527 19.6830601 15.351631 19.9374994 15.351631 20.251366L15.351631 27.0710383 16.5 27.0710383 16.5 24.5511694C16.5 23.1201749 17.6734074 21.9562842 19.1200741 21.9562842 20.5661667 21.9562842 21.7435926 23.1201749 21.7435926 24.5511694L21.7435926 27.0710383 23.3888889 27.0710383 23.3888889 24.5511694C23.3888889 23.1201749 24.5622963 21.9562842 26.008963 21.9562842 27.4550556 21.9562842 28.6324815 23.1201749 28.6324815 24.5511694L28.6324815 27.0710383zM48.6481481 39.0054645L43.1412991 39.0054645C44.6458598 41.9366452 45.9791381 44.3993046 47.1411338 46.3934426L48.6481481 46.3934426 48.6481481 39.0054645z" mask="url(#icon-arena-b)"/>
    <path fill="#C7D3E3" d="M18.2893889 27.4677158L19.9553519 27.4677158 19.9553519 24.5511694C19.9553519 24.0970929 19.5816296 23.7271257 19.1206481 23.7271257 18.662537 23.7271257 18.2893889 24.0970929 18.2893889 24.5511694L18.2893889 27.4677158zM18.2893889 37.128918L19.9553519 37.128918 19.9553519 34.2123716C19.9553519 33.7582951 19.5816296 33.3883279 19.1206481 33.3883279 18.662537 33.3883279 18.2893889 33.7582951 18.2893889 34.2123716L18.2893889 37.128918zM18.2893889 46.7901202L19.9553519 46.7901202 19.9553519 43.8735738C19.9553519 43.4194973 19.5816296 43.0495301 19.1206481 43.0495301 18.662537 43.0495301 18.2893889 43.4194973 18.2893889 43.8735738L18.2893889 46.7901202zM25.1782778 27.4677158L26.8442407 27.4677158 26.8442407 24.5511694C26.8442407 24.0970929 26.4705185 23.7271257 26.009537 23.7271257 25.5514259 23.7271257 25.1782778 24.0970929 25.1782778 24.5511694L25.1782778 27.4677158zM25.1782778 37.128918L26.8442407 37.128918 26.8442407 34.2123716C26.8442407 33.7582951 26.4705185 33.3883279 26.009537 33.3883279 25.5514259 33.3883279 25.1782778 33.7582951 25.1782778 34.2123716L25.1782778 37.128918zM25.1782778 46.7901202L26.8442407 46.7901202 26.8442407 43.8735738C26.8442407 43.4194973 26.4705185 43.0495301 26.009537 43.0495301 25.5514259 43.0495301 25.1782778 43.4194973 25.1782778 43.8735738L25.1782778 46.7901202zM32.0671667 37.128918L33.7331296 37.128918 33.7331296 34.2123716C33.7331296 33.7582951 33.3594074 33.3883279 32.8984259 33.3883279 32.4403148 33.3883279 32.0671667 33.7582951 32.0671667 34.2123716L32.0671667 37.128918zM32.0671667 46.7901202L33.7331296 46.7901202 33.7331296 43.8735738C33.7331296 43.4194973 33.3594074 43.0495301 32.8984259 43.0495301 32.4403148 43.0495301 32.0671667 43.4194973 32.0671667 43.8735738L32.0671667 46.7901202zM38.9560556 46.7901202L40.6220185 46.7901202 40.6220185 43.8735738C40.6220185 43.4194973 40.2482963 43.0495301 39.7873148 43.0495301 39.3292037 43.0495301 38.9560556 43.4194973 38.9560556 43.8735738L38.9560556 46.7901202zM44.1227222 36.560612L45.7886852 36.560612 45.7886852 33.6440656C45.7886852 33.1899891 45.414963 32.8200219 44.9539815 32.8200219 44.4958704 32.8200219 44.1227222 33.1899891 44.1227222 33.6440656L44.1227222 36.560612z" mask="url(#icon-arena-b)"/>
  </g>
</svg>
