<svg xmlns="http://www.w3.org/2000/svg" xmlns:xlink="http://www.w3.org/1999/xlink" width="64" height="64" viewBox="0 0 64 64">
  <defs>
    <path id="icon-8-a" d="M29.7695104,24.913884 L31.4805417,24.913884 L31.4805417,29.0693224 C31.4805417,29.3958211 31.7471959,29.6629565 32.0731066,29.6629565 L33.2582365,29.6629565 C33.5841473,29.6629565 33.8508015,29.3958211 33.8508015,29.0693224 L33.8508015,24.913884 L35.5618328,24.913884 C41.805986,24.913884 46.8872304,19.0517477 46.8872304,11.8539348 L46.8872304,10.6666667 L42.8059393,10.6666667 C38.3617022,10.6666667 34.5174371,13.6422574 32.6656716,17.9461043 C30.8139061,13.6422574 26.969641,10.6666667 22.5254039,10.6666667 L18.4441128,10.6666667 L18.4441128,11.8539348 C18.4441128,19.0517477 23.5253572,24.913884 29.7695104,24.913884 Z M42.8059393,13.0412029 L44.4651212,13.0412029 C43.968848,18.376489 40.1690253,22.5393478 35.5692399,22.5393478 L33.910058,22.5393478 C34.3989241,17.2040617 38.2061539,13.0412029 42.8059393,13.0412029 Z M22.5254039,13.0412029 C27.1251893,13.0412029 30.925012,17.2040617 31.4212852,22.5393478 L29.7621033,22.5393478 C25.1623179,22.5393478 21.3624951,18.376489 20.866222,13.0412029 L22.5254039,13.0412029 Z M52.6869599,35.4212068 C51.975882,34.7830502 51.0499992,34.4268698 50.0796741,34.4268698 C49.1537914,34.4268698 48.2427228,34.7459481 47.5168307,35.3321617 L42.9540806,38.9904316 C42.8133464,39.1017379 42.642984,39.1611013 42.4578074,39.1611013 L39.3764697,39.1611013 C39.7171945,38.4487405 39.8579287,37.6250732 39.7320086,36.7643038 C39.4357262,34.6940051 37.5395183,33.2247608 35.4507269,33.2247608 L24.7623365,33.2247608 C23.2216677,33.2247608 21.7254412,33.7219293 20.4958689,34.6494825 L17.6515571,36.7865651 L11.9258983,36.7865651 C11.5999876,36.7865651 11.3333333,37.0537004 11.3333333,37.3801992 L11.3333333,38.5674673 C11.3333333,38.893966 11.5999876,39.1611013 11.9258983,39.1611013 L18.4441128,39.1611013 L21.9180248,36.5491115 C22.7402087,35.9332162 23.740162,35.599297 24.7623365,35.599297 L35.6284963,35.599297 C36.6136356,35.599297 37.4061912,36.3932826 37.4061912,37.3801992 C37.4061912,38.3671158 36.6136356,39.1611013 35.6284963,39.1611013 L29.1102819,39.1611013 C28.4584604,39.1611013 27.925152,39.695372 27.925152,40.3483695 C27.925152,41.0013669 28.4584604,41.5356376 29.1102819,41.5356376 L42.4578074,41.5356376 C43.1762924,41.5356376 43.8725562,41.2907635 44.4354929,40.845538 L48.9982431,37.1946885 C49.3093397,36.9423941 49.701914,36.8088264 50.0796741,36.8088264 C50.4500272,36.8088264 50.8129732,36.9349736 51.1018486,37.1946885 C51.8499619,37.8699473 51.7907054,39.0126928 51.0351851,39.6137473 L43.5688667,45.6020309 C43.00593,46.0546768 42.3096662,46.2921304 41.5911812,46.2921304 L11.9258983,46.2921304 C11.5999876,46.2921304 11.3333333,46.5592658 11.3333333,46.8857645 L11.3333333,48.0730326 C11.3333333,48.3995313 11.5999876,48.6666667 11.9258983,48.6666667 L41.5911812,48.6666667 C42.8503817,48.6666667 44.0651398,48.236282 45.042872,47.4497169 L52.5165975,41.4614333 C53.420259,40.7342316 53.9609745,39.6508494 53.9980098,38.493263 C54.0350452,37.3356766 53.5535861,36.2077719 52.6869599,35.4212068 Z"/>
  </defs>
  <g fill="none" fill-rule="evenodd">
    <circle cx="32" cy="32" r="32" fill="#F0F3F8"/>
    <rect width="64" height="64"/>
    <path fill="#FFF" d="M11.9258983,39.1611013 L18.4441128,39.1611013 L21.9180248,36.5491115 C22.7402087,35.9332162 23.740162,35.599297 24.7623365,35.599297 L35.6284963,35.599297 C36.6136356,35.599297 37.4061912,36.3932826 37.4061912,37.3801992 C37.4061912,38.3671158 36.6136356,39.1611013 35.6284963,39.1611013 L29.1102819,39.1611013 C28.4584604,39.1611013 27.925152,39.695372 27.925152,40.3483695 C27.925152,41.0013669 28.4584604,41.5356376 29.1102819,41.5356376 L42.4578074,41.5356376 C43.1762924,41.5356376 43.8725562,41.2907635 44.4354929,40.845538 L48.9982431,37.1946885 C49.3093397,36.9423941 49.701914,36.8088264 50.0796741,36.8088264 C50.4500272,36.8088264 50.8129732,36.9349736 51.1018486,37.1946885 C51.8499619,37.8699473 51.7907054,39.0126928 51.0351851,39.6137473 L43.5688667,45.6020309 C43.00593,46.0546768 42.3096662,46.2921304 41.5911812,46.2921304 L11.9258983,46.2921304 C11.5999876,46.2921304 11.5999876,39.1611013 11.9258983,39.1611013 Z"/>
    <path fill="#C7D3E3" d="M42.8059393 13.0412029L44.4651212 13.0412029C43.968848 18.376489 40.1690253 22.5393478 35.5692399 22.5393478L33.910058 22.5393478C34.3989241 17.2040617 38.2061539 13.0412029 42.8059393 13.0412029zM22.5254039 13.0412029C27.1251893 13.0412029 30.925012 17.2040617 31.4212852 22.5393478L29.7621033 22.5393478C25.1623179 22.5393478 21.3624951 18.376489 20.866222 13.0412029L22.5254039 13.0412029z"/>
    <mask id="icon-8-b" fill="#fff">
      <use xlink:href="#icon-8-a"/>
    </mask>
    <use fill="#C7D3E3" fill-rule="nonzero" xlink:href="#icon-8-a"/>
    <g fill="#0080FF" mask="url(#icon-8-b)">
      <rect width="213" height="133" transform="translate(-72.667 -39.333)"/>
    </g>
  </g>
</svg>
