<svg xmlns="http://www.w3.org/2000/svg" xmlns:xlink="http://www.w3.org/1999/xlink" width="64" height="64" viewBox="0 0 64 64">
  <defs>
    <path id="icon-12-a" d="M34.6666667,45.3333333 C34.6666667,46.8083333 33.475,48 32,48 C30.525,48 29.3333333,46.8083333 29.3333333,45.3333333 C29.3333333,43.8583333 30.525,42.6666667 32,42.6666667 C33.475,42.6666667 34.6666667,43.8583333 34.6666667,45.3333333 Z M45.3333333,14.6666667 L45.3333333,49.3333333 C45.3333333,51.5416667 43.5416667,53.3333333 41.3333333,53.3333333 L22.6666667,53.3333333 C20.4583333,53.3333333 18.6666667,51.5416667 18.6666667,49.3333333 L18.6666667,14.6666667 C18.6666667,12.4583333 20.4583333,10.6666667 22.6666667,10.6666667 L41.3333333,10.6666667 C43.5416667,10.6666667 45.3333333,12.4583333 45.3333333,14.6666667 Z M42.6666667,14.6666667 C42.6666667,13.9333333 42.0666667,13.3333333 41.3333333,13.3333333 L22.6666667,13.3333333 C21.9333333,13.3333333 21.3333333,13.9333333 21.3333333,14.6666667 L21.3333333,49.3333333 C21.3333333,50.0666667 21.9333333,50.6666667 22.6666667,50.6666667 L41.3333333,50.6666667 C42.0666667,50.6666667 42.6666667,50.0666667 42.6666667,49.3333333 L42.6666667,14.6666667 Z"/>
  </defs>
  <g fill="none" fill-rule="evenodd">
    <circle cx="32" cy="32" r="32" fill="#F0F3F8"/>
    <rect width="64" height="64"/>
    <path fill="#FFF" d="M42.6666667,14.6666667 C42.6666667,13.9333333 42.0666667,13.3333333 41.3333333,13.3333333 L22.6666667,13.3333333 C21.9333333,13.3333333 21.3333333,13.9333333 21.3333333,14.6666667 L21.3333333,49.3333333 C21.3333333,50.0666667 21.9333333,50.6666667 22.6666667,50.6666667 L41.3333333,50.6666667 C42.0666667,50.6666667 42.6666667,50.0666667 42.6666667,49.3333333 L42.6666667,14.6666667 Z"/>
    <mask id="icon-12-b" fill="#fff">
      <use xlink:href="#icon-12-a"/>
    </mask>
    <use fill="#000" fill-rule="nonzero" xlink:href="#icon-12-a"/>
    <g fill="#0080FF" mask="url(#icon-12-b)">
      <rect width="213" height="133" transform="translate(-72.667 -39.333)"/>
    </g>
  </g>
</svg>
