<svg xmlns="http://www.w3.org/2000/svg" xmlns:xlink="http://www.w3.org/1999/xlink" width="64" height="64" viewBox="0 0 64 64">
  <defs>
    <path id="icon-2-a" d="M48.4229186,19.1125 C48.747916,18.7875 48.747916,18.259375 48.4229186,17.934375 L46.0656453,15.5770833 C45.7406479,15.2520833 45.212527,15.2520833 44.8875295,15.5770833 L15.5773418,44.8864583 C15.2523444,45.2114583 15.2523444,45.7395833 15.5773418,46.0645833 L17.9346151,48.421875 C18.2596126,48.746875 18.7877334,48.746875 19.1127309,48.421875 L46.2187691,21.3166667 L48.4229186,19.1125 Z M22.0002083,28.6666667 C23.706445,28.6666667 25.4126817,28.015625 26.7137132,26.7145833 C29.3168178,24.1114583 29.3168178,19.8895833 26.7137132,17.2864583 C25.4126817,15.984375 23.706445,15.3333333 22.0002083,15.3333333 C20.2939717,15.3333333 18.587735,15.984375 17.2856618,17.2864583 C14.6825572,19.8895833 14.6825572,24.1114583 17.2856618,26.7145833 C18.587735,28.015625 20.2939717,28.6666667 22.0002083,28.6666667 Z M19.6439767,19.6427083 C20.2731385,19.0135417 21.1095903,18.6666667 22.0002083,18.6666667 C22.8908264,18.6666667 23.7272782,19.0135417 24.3574816,19.6427083 C25.6574714,20.9427083 25.6564298,23.0572917 24.3574816,24.35625 C23.7283198,24.9864583 22.8908264,25.3333333 22.0002083,25.3333333 C21.1095903,25.3333333 20.2731385,24.9864583 19.6439767,24.3572917 C18.3439869,23.0572917 18.3439869,20.9427083 19.6439767,19.6427083 Z M42.0000521,35.3333333 C40.2938154,35.3333333 38.5875787,35.984375 37.2855056,37.2864583 C34.6824009,39.8895833 34.6824009,44.1114583 37.2855056,46.7145833 C38.5875787,48.015625 40.2938154,48.6666667 42.0000521,48.6666667 C43.7062888,48.6666667 45.4125254,48.015625 46.7135569,46.7145833 C49.3166616,44.1114583 49.3166616,39.8895833 46.7135569,37.2864583 C45.4125254,35.984375 43.7062888,35.3333333 42.0000521,35.3333333 Z M44.3573253,44.3572917 C43.7281636,44.9864583 42.8906701,45.3333333 42.0000521,45.3333333 C41.109434,45.3333333 40.2729822,44.9864583 39.6438205,44.3572917 C38.3438306,43.0572917 38.3438306,40.9427083 39.6438205,39.6427083 C40.2729822,39.0135417 41.1104757,38.6666667 42.0000521,38.6666667 C42.8906701,38.6666667 43.7271219,39.0135417 44.3573253,39.6427083 C45.6573152,40.9427083 45.6562735,43.0572917 44.3573253,44.3572917 Z"/>
  </defs>
  <g fill="none" fill-rule="evenodd">
    <circle cx="32" cy="32" r="32" fill="#F0F3F8"/>
    <rect width="64" height="64"/>
    <mask id="icon-2-b" fill="#fff">
      <use xlink:href="#icon-2-a"/>
    </mask>
    <use fill="#000" fill-rule="nonzero" xlink:href="#icon-2-a"/>
    <g fill="#0080FF" mask="url(#icon-2-b)">
      <rect width="213" height="133" transform="translate(-72.667 -39.333)"/>
    </g>
  </g>
</svg>
