<svg xmlns="http://www.w3.org/2000/svg" xmlns:xlink="http://www.w3.org/1999/xlink" width="64" height="64" viewBox="0 0 64 64">
  <defs>
    <path id="icon-11-a" d="M54,16 L15.3333333,16 C14.2305,16 13.3333333,16.89725 13.3333333,18 L13.3333333,18.6666667 L10,18.6666667 C8.89541667,18.6666667 8,19.5620833 8,20.6666667 L8,44 C8,46.2091667 9.79083333,48 12,48 L54,48 C55.10275,48 56,47.10275 56,46 L56,18 C56,16.89725 55.10275,16 54,16 Z M10.6666667,44 L10.6666667,21.3333333 L13.3333333,21.3333333 L13.3333333,44 C13.3333333,44.7351667 12.7351667,45.3333333 12,45.3333333 C11.2648333,45.3333333 10.6666667,44.7351667 10.6666667,44 Z M53.3333333,45.3333333 L15.7715,45.3333333 C15.922976,44.9051275 16.0002523,44.4542083 16,44 L16,18.6666667 L53.3333333,18.6666667 L53.3333333,45.3333333 Z M19.6666667,37.3333333 L33.6666667,37.3333333 C34.2189167,37.3333333 34.6666667,36.8855833 34.6666667,36.3333333 L34.6666667,22.3333333 C34.6666667,21.7810833 34.2189167,21.3333333 33.6666667,21.3333333 L19.6666667,21.3333333 C19.1144167,21.3333333 18.6666667,21.7810833 18.6666667,22.3333333 L18.6666667,36.3333333 C18.6666667,36.8855833 19.1144167,37.3333333 19.6666667,37.3333333 Z M21.3333333,24 L32,24 L32,34.6666667 L21.3333333,34.6666667 L21.3333333,24 Z M18.6666667,41.6666667 L18.6666667,41 C18.6666667,40.44775 19.1144167,40 19.6666667,40 L33.6666667,40 C34.2189167,40 34.6666667,40.44775 34.6666667,41 L34.6666667,41.6666667 C34.6666667,42.2189167 34.2189167,42.6666667 33.6666667,42.6666667 L19.6666667,42.6666667 C19.1144167,42.6666667 18.6666667,42.2189167 18.6666667,41.6666667 Z M37.3333333,41.6666667 L37.3333333,41 C37.3333333,40.44775 37.7810833,40 38.3333333,40 L49.6666667,40 C50.2189167,40 50.6666667,40.44775 50.6666667,41 L50.6666667,41.6666667 C50.6666667,42.2189167 50.2189167,42.6666667 49.6666667,42.6666667 L38.3333333,42.6666667 C37.7810833,42.6666667 37.3333333,42.2189167 37.3333333,41.6666667 Z M37.3333333,36.3333333 L37.3333333,35.6666667 C37.3333333,35.1144167 37.7810833,34.6666667 38.3333333,34.6666667 L49.6666667,34.6666667 C50.2189167,34.6666667 50.6666667,35.1144167 50.6666667,35.6666667 L50.6666667,36.3333333 C50.6666667,36.8855833 50.2189167,37.3333333 49.6666667,37.3333333 L38.3333333,37.3333333 C37.7810833,37.3333333 37.3333333,36.8855833 37.3333333,36.3333333 Z M37.3333333,25.6666667 L37.3333333,25 C37.3333333,24.44775 37.7810833,24 38.3333333,24 L49.6666667,24 C50.2189167,24 50.6666667,24.44775 50.6666667,25 L50.6666667,25.6666667 C50.6666667,26.2189167 50.2189167,26.6666667 49.6666667,26.6666667 L38.3333333,26.6666667 C37.7810833,26.6666667 37.3333333,26.2189167 37.3333333,25.6666667 Z M37.3333333,31 L37.3333333,30.3333333 C37.3333333,29.7810833 37.7810833,29.3333333 38.3333333,29.3333333 L49.6666667,29.3333333 C50.2189167,29.3333333 50.6666667,29.7810833 50.6666667,30.3333333 L50.6666667,31 C50.6666667,31.55225 50.2189167,32 49.6666667,32 L38.3333333,32 C37.7810833,32 37.3333333,31.55225 37.3333333,31 Z"/>
  </defs>
  <g fill="none" fill-rule="evenodd">
    <circle cx="32" cy="32" r="32" fill="#F0F3F8"/>
    <rect width="64" height="64"/>
    <path fill="#FFF" d="M54,16 L15.3333333,16 C14.2305,16 13.3333333,16.89725 13.3333333,18 L13.3333333,18.6666667 L10,18.6666667 C8.89541667,18.6666667 8,19.5620833 8,20.6666667 L8,44 C8,46.2091667 9.79083333,48 12,48 L54,48 C55.10275,48 56,47.10275 56,46 L56,18 C56,16.89725 55.10275,16 54,16 Z"/>
    <polygon fill="#C7D3E3" points="21.333 24 32 24 32 34.667 21.333 34.667"/>
    <mask id="icon-11-b" fill="#fff">
      <use xlink:href="#icon-11-a"/>
    </mask>
    <use fill="#000" fill-rule="nonzero" xlink:href="#icon-11-a"/>
    <g fill="#0080FF" mask="url(#icon-11-b)">
      <rect width="213" height="133" transform="translate(-72.667 -39.333)"/>
    </g>
  </g>
</svg>
