<svg xmlns="http://www.w3.org/2000/svg" xmlns:xlink="http://www.w3.org/1999/xlink" width="64" height="64" viewBox="0 0 64 64">
  <defs>
    <path id="icon-19-a" d="M47.7083333,13.3333333 L16.2916667,13.3333333 C14.2903646,13.3333333 12.6666667,15.125 12.6666667,17.3333333 L12.6666667,46.6666667 C12.6666667,48.875 14.2903646,50.6666667 16.2916667,50.6666667 L47.7083333,50.6666667 C49.7096354,50.6666667 51.3333333,48.875 51.3333333,46.6666667 L51.3333333,17.3333333 C51.3333333,15.125 49.7096354,13.3333333 47.7083333,13.3333333 Z M15.0833333,17.3333333 C15.0833333,16.6 15.6270833,16 16.2916667,16 L19.9166667,16 L19.9166667,21.3333333 L15.0833333,21.3333333 L15.0833333,17.3333333 Z M48.9166667,46.6666667 C48.9166667,47.4 48.3729167,48 47.7083333,48 L16.2916667,48 C15.6270833,48 15.0833333,47.4 15.0833333,46.6666667 L15.0833333,24 L48.9166667,24 L48.9166667,46.6666667 Z M48.9166667,21.3333333 L22.3333333,21.3333333 L22.3333333,16 L47.7083333,16 C48.3729167,16 48.9166667,16.6 48.9166667,17.3333333 L48.9166667,21.3333333 Z M25.0572917,44.1458333 C23.1822823,43.619789 22.2447917,42.4088636 22.2447917,40.5130208 L22.2447917,38.9661458 C22.2447917,37.9140572 21.8229209,37.3880208 20.9791667,37.3880208 L20.9791667,35.6145833 C21.8229209,35.6145833 22.2447917,35.0859428 22.2447917,34.0286458 L22.2447917,32.3880208 C22.2604167,31.4505161 22.5039039,30.6927112 22.9752604,30.1145833 C23.4466169,29.5364554 24.1406204,29.1171888 25.0572917,28.8567708 L25.5494792,30.2317708 C24.8932259,30.4817721 24.5520835,31.1822859 24.5260417,32.3333333 L24.5260417,34.0286458 C24.5260417,35.1953183 24.0442757,36.0182268 23.0807292,36.4973958 C24.0442757,36.9765649 24.5260417,37.8020775 24.5260417,38.9739583 L24.5260417,40.6614583 C24.5520835,41.8125058 24.8932259,42.5130196 25.5494792,42.7630208 L25.0572917,44.1458333 Z M28.3125,38.8567708 C28.6948197,38.8567708 29.0126182,38.9816874 29.265905,39.2315243 C29.5191918,39.4813612 29.6458333,39.8008846 29.6458333,40.1901042 C29.6458333,40.5793237 29.5191918,40.8988472 29.265905,41.148684 C29.0126182,41.3985209 28.6948197,41.5234375 28.3125,41.5234375 C27.9254013,41.5234375 27.6064081,41.397206 27.3555108,41.1447393 C27.1046134,40.8922725 26.9791667,40.574064 26.9791667,40.1901042 C26.9791667,39.8061443 27.1046134,39.4879358 27.3555108,39.2354691 C27.6064081,38.9830023 27.9254013,38.8567708 28.3125,38.8567708 Z M32.3125,38.8567708 C32.6948197,38.8567708 33.0126182,38.9816874 33.265905,39.2315243 C33.5191918,39.4813612 33.6458333,39.8008846 33.6458333,40.1901042 C33.6458333,40.5793237 33.5191918,40.8988472 33.265905,41.148684 C33.0126182,41.3985209 32.6948197,41.5234375 32.3125,41.5234375 C31.9254013,41.5234375 31.6064081,41.397206 31.3555108,41.1447393 C31.1046134,40.8922725 30.9791667,40.574064 30.9791667,40.1901042 C30.9791667,39.8061443 31.1046134,39.4879358 31.3555108,39.2354691 C31.6064081,38.9830023 31.9254013,38.8567708 32.3125,38.8567708 Z M36.3125,38.8567708 C36.6948197,38.8567708 37.0126182,38.9816874 37.265905,39.2315243 C37.5191918,39.4813612 37.6458333,39.8008846 37.6458333,40.1901042 C37.6458333,40.5793237 37.5191918,40.8988472 37.265905,41.148684 C37.0126182,41.3985209 36.6948197,41.5234375 36.3125,41.5234375 C35.9254013,41.5234375 35.6064081,41.397206 35.3555108,41.1447393 C35.1046134,40.8922725 34.9791667,40.574064 34.9791667,40.1901042 C34.9791667,39.8061443 35.1046134,39.4879358 35.3555108,39.2354691 C35.6064081,38.9830023 35.9254013,38.8567708 36.3125,38.8567708 Z M38.5807292,42.7630208 C39.2369824,42.5130196 39.5781249,41.8125058 39.6041667,40.6614583 L39.6041667,38.9661458 C39.6041667,37.794265 40.0885368,36.9713565 41.0572917,36.4973958 C40.0885368,36.0234351 39.6041667,35.2005267 39.6041667,34.0286458 L39.6041667,32.3333333 C39.5781249,31.1822859 39.2369824,30.4817721 38.5807292,30.2317708 L39.0729167,28.8567708 C40.005213,29.1171888 40.7057268,29.5429658 41.1744792,30.1341146 C41.6432315,30.7252634 41.8802083,31.4999952 41.8854167,32.4583333 L41.8854167,34.0286458 C41.8854167,35.0859428 42.3072874,35.6145833 43.1510417,35.6145833 L43.1510417,37.3880208 C42.3072874,37.3880208 41.8854167,37.9114531 41.8854167,38.9583333 L41.8854167,40.6223958 C41.8489582,42.4557383 40.9114675,43.6302058 39.0729167,44.1458333 L38.5807292,42.7630208 Z"/>
  </defs>
  <g fill="none" fill-rule="evenodd">
    <circle cx="32" cy="32" r="32" fill="#F0F3F8"/>
    <rect width="64" height="64"/>
    <path fill="#FFF" d="M48.9166667,46.6666667 C48.9166667,47.4 48.3729167,48 47.7083333,48 L16.2916667,48 C15.6270833,48 15.0833333,47.4 15.0833333,46.6666667 L15.0833333,24 L48.9166667,24 L48.9166667,46.6666667 Z"/>
    <path fill="#C7D3E3" d="M15.0833333 17.3333333C15.0833333 16.6 15.6270833 16 16.2916667 16L19.9166667 16 19.9166667 21.3333333 15.0833333 21.3333333 15.0833333 17.3333333zM48.9166667 21.3333333L22.3333333 21.3333333 22.3333333 16 47.7083333 16C48.3729167 16 48.9166667 16.6 48.9166667 17.3333333L48.9166667 21.3333333z"/>
    <mask id="icon-19-b" fill="#fff">
      <use xlink:href="#icon-19-a"/>
    </mask>
    <use fill="#212121" xlink:href="#icon-19-a"/>
    <g fill="#0080FF" mask="url(#icon-19-b)">
      <rect width="213" height="133" transform="translate(-72.667 -39.333)"/>
    </g>
  </g>
</svg>
