<svg xmlns="http://www.w3.org/2000/svg" xmlns:xlink="http://www.w3.org/1999/xlink" width="64" height="64" viewBox="0 0 64 64">
  <defs>
    <radialGradient id="icon-react-b" fx="50%" fy="50%" gradientTransform="matrix(0 1 -.89745 0 .949 0)">
      <stop offset="0%" stop-color="#FFF"/>
      <stop offset="87.593%" stop-color="#FFF"/>
      <stop offset="100%" stop-color="#C7D3E3"/>
    </radialGradient>
    <path id="icon-react-a" d="M34.3817708,17.3260667 C37.6755208,14.4637059 40.7479167,13.3417312 42.146875,14.1456658 C43.6432292,15.0026072 44.21875,18.4657104 43.2802083,23.0154505 C43.2182292,23.3158217 43.15625,23.6073585 43.0765625,23.8988952 C41.1109375,23.4571729 39.11875,23.1391328 37.1177083,22.9624439 C35.9666667,21.3192367 34.709375,19.7467052 33.3458333,18.2713526 C33.6911458,17.944478 34.0276042,17.6352724 34.3817708,17.3260667 Z M22.8713542,34.0320059 C23.2786458,34.8094372 23.6947917,35.5780341 24.1375,36.3377965 C24.5890625,37.1063934 25.0494792,37.8749903 25.5364583,38.6259183 C24.1552083,38.4757327 22.7828125,38.2548715 21.428125,37.9633347 C21.8177083,36.6911744 22.3046875,35.3748418 22.8713542,34.0320059 Z M22.8713542,29.5617757 C22.3135417,28.2454431 21.8442708,26.9556139 21.4546875,25.7099569 C22.7296875,25.4272546 24.084375,25.1975589 25.4921875,25.02087 C25.0229167,25.7541291 24.5625,26.5050571 24.1286458,27.2648195 C23.6947917,28.0157475 23.2697917,28.7843444 22.8713542,29.5617757 Z M23.8807292,31.7968908 C24.4651042,30.5777371 25.1026042,29.3850868 25.7755208,28.2101053 C26.4484375,27.0351239 27.1744792,25.8954802 27.9359375,24.7735055 C29.2640625,24.6763266 30.61875,24.6233199 32,24.6233199 C33.38125,24.6233199 34.7447917,24.6763266 36.0640625,24.7735055 C36.8166667,25.8866458 37.5338542,27.0262895 38.215625,28.1924364 C38.8973958,29.3585834 39.5348958,30.5512338 40.1369792,31.761553 C39.54375,32.9807067 38.90625,34.1821915 38.2244792,35.3660073 C37.5515625,36.5409888 36.834375,37.6806324 36.0817708,38.8114416 C34.7625,38.9086206 33.3901042,38.9527928 32,38.9527928 C30.6098958,38.9527928 29.2640625,38.9086206 27.9625,38.8291105 C27.1921875,37.7071358 26.4661458,36.5586577 25.784375,35.3836762 C25.1026042,34.2086948 24.4739583,33.0160445 23.8807292,31.7968908 Z M39.8713542,36.3201276 C40.3229167,35.5426963 40.7479167,34.7564305 41.1640625,33.9613303 C41.7307292,35.2423251 42.2265625,36.5409888 42.6604167,37.8749903 C41.2880208,38.1841959 39.8979167,38.422726 38.4989583,38.581746 C38.9770833,37.8396525 39.4286458,37.07989 39.8713542,36.3201276 Z M41.1463542,29.5617757 C40.7302083,28.7843444 40.3052083,28.0069131 39.8625,27.2471506 C39.4286458,26.4962226 38.9770833,25.7541291 38.5078125,25.02087 C39.9333333,25.1975589 41.296875,25.436089 42.571875,25.7276258 C42.1645833,27.0351239 41.6864583,28.3072843 41.1463542,29.5617757 Z M32.0177083,19.6230229 C32.9473958,20.6301499 33.8239583,21.6902835 34.6385417,22.7857549 C32.8854167,22.7062449 31.1234375,22.7062449 29.3703125,22.7857549 C30.2380208,21.6461113 31.1322917,20.5859776 32.0177083,19.6230229 Z M21.746875,14.207507 C23.234375,13.3417312 26.5369792,14.5785537 30.0166667,17.6529413 C30.2380208,17.8472991 30.459375,18.0593258 30.6895833,18.2713526 C29.3171875,19.7467052 28.0510417,21.3192367 26.8911458,22.9624439 C24.8901042,23.1391328 22.9067708,23.4483384 20.9411458,23.8812263 C20.8260417,23.4306696 20.7286458,22.9712783 20.63125,22.5118871 C19.7989583,18.2360148 20.3479167,15.0114416 21.746875,14.207507 Z M19.5776042,37.495109 C19.2057292,37.3890957 18.8427083,37.2742479 18.4796875,37.1505656 C16.59375,36.5586577 14.4510417,35.6222063 12.9015625,34.3942182 C12.0072917,33.7758069 11.4052083,32.8216866 11.2369792,31.7527186 C11.2369792,30.1360148 14.0348958,28.0687542 18.0723958,26.6640771 C18.5770833,26.4873882 19.090625,26.3283681 19.6041667,26.1781825 C20.20625,28.0952575 20.9322917,29.9769947 21.7734375,31.7968908 C20.9234375,33.6432902 20.1885417,35.5515307 19.5776042,37.495109 Z M29.9015625,46.152867 C28.440625,47.4868685 26.7494792,48.5470021 24.9078125,49.2714268 C23.925,49.7396525 22.7916667,49.7838247 21.7822917,49.3862746 C20.3744792,48.5735055 19.7901042,45.4549457 20.5869792,41.2585834 C20.684375,40.7638544 20.790625,40.2691254 20.9145833,39.7832308 C22.8979167,40.2072843 24.8989583,40.498821 26.9265625,40.6490066 C28.0953125,42.3010482 29.3791667,43.8824142 30.7515625,45.3666013 C30.4682292,45.6404691 30.1848958,45.9055025 29.9015625,46.152867 Z M32.0708333,44.0060964 C31.1677083,43.0343073 30.2645833,41.9565047 29.3880208,40.7991922 C30.2380208,40.83453 31.1145833,40.8521989 32,40.8521989 C32.9119792,40.8521989 33.80625,40.83453 34.6916667,40.7903578 C33.8770833,41.9123325 33.0005208,42.9813006 32.0708333,44.0060964 Z M43.6432292,46.6564305 C43.5635417,47.734233 43.0322917,48.74136 42.1822917,49.4216124 C40.7744792,50.2343815 37.7729167,49.1742479 34.5322917,46.4002315 C34.1604167,46.0821915 33.7885417,45.737648 33.4078125,45.3842701 C34.7625,43.8912486 36.0109375,42.3098826 37.1442708,40.6490066 C39.171875,40.4811521 41.190625,40.1719465 43.1828125,39.7213897 C43.2713542,40.083602 43.3510417,40.4458143 43.421875,40.7991922 C43.8557292,42.7074327 43.9265625,44.6951833 43.6432292,46.6564305 Z M45.2546875,37.1594001 C45.0067708,37.2389101 44.7588542,37.3184201 44.5020833,37.3890957 C43.8822917,35.4631863 43.1208333,33.5814491 42.2442708,31.7527186 C43.0942708,29.9504914 43.8114583,28.0952575 44.4135417,26.1958514 C44.8739583,26.3283681 45.3166667,26.4697193 45.7416667,26.6110704 C49.8677083,28.024582 52.7630208,30.1271803 52.7630208,31.7350497 C52.7630208,33.4666013 49.6729167,35.7017163 45.2546875,37.1594001 Z"/>
  </defs>
  <g fill="none" fill-rule="evenodd">
    <circle cx="32" cy="32" r="32" fill="#F0F3F8"/>
    <rect width="64" height="64"/>
    <path fill="#0080FF" d="M46.3614583,24.8265122 C45.8833333,24.6674921 45.4052083,24.5173065 44.9270833,24.3759554 C45.0067708,24.0490808 45.0776042,23.7222063 45.1484375,23.3953318 C46.2375,18.1300014 45.5203125,13.8983013 43.103125,12.5024587 C40.7744792,11.1684572 36.9760417,12.5554654 33.1333333,15.8948863 C32.7526042,16.2217609 32.3807292,16.5663043 32.0265625,16.9108477 C31.7875,16.6811521 31.5395833,16.4514565 31.2916667,16.2305953 C27.2630208,12.6614788 23.2255208,11.1596228 20.8083333,12.5642998 C18.4885417,13.9071358 17.7979167,17.8914713 18.771875,22.8740994 C18.8692708,23.3688284 18.9755208,23.854723 19.0994792,24.349452 C18.5328125,24.5084721 17.975,24.685161 17.4526042,24.8706844 C12.7244792,26.5050571 9.33333333,29.0847156 9.33333333,31.7527186 C9.33333333,34.509066 12.9458333,37.2742479 17.8598958,38.9527928 C18.2583333,39.0853095 18.6567708,39.2178262 19.0640625,39.332674 C18.93125,39.8627408 18.8161458,40.3839732 18.7098958,40.9228745 C17.7802083,45.8259925 18.50625,49.7131491 20.8260417,51.0471506 C23.2166667,52.4253243 27.2364583,51.0118128 31.15,47.5928819 C31.4598958,47.319014 31.7697917,47.0363117 32.0796875,46.7359405 C32.4692708,47.1158217 32.8765625,47.4780341 33.2838542,47.8314119 C37.0734375,51.0824884 40.81875,52.398821 43.1296875,51.0648195 C45.5203125,49.6866458 46.2994792,45.5079524 45.2901042,40.419311 C45.2104167,40.0305953 45.121875,39.6330452 45.0244792,39.2266606 C45.3078125,39.1471506 45.5822917,39.0588062 45.8567708,38.9704617 C50.965625,37.2830823 54.6666667,34.5532382 54.6666667,31.7527186 C54.6666667,29.0758811 51.178125,26.4785537 46.3614583,24.8265122 Z"/>
    <mask id="icon-react-c" fill="#fff">
      <use xlink:href="#icon-react-a"/>
    </mask>
    <use fill="url(#icon-react-b)" fill-rule="nonzero" xlink:href="#icon-react-a"/>
    <path fill="#0080FF" d="M32,27.7418797 C34.2401042,27.7418797 36.0552083,29.5529413 36.0552083,31.7880563 C36.0552083,34.0231714 34.2401042,35.834233 32,35.834233 C29.7598958,35.834233 27.9447917,34.0231714 27.9447917,31.7880563 C27.9447917,29.5529413 29.7598958,27.7418797 32,27.7418797 Z" mask="url(#icon-react-c)"/>
  </g>
</svg>
