<svg xmlns="http://www.w3.org/2000/svg" xmlns:xlink="http://www.w3.org/1999/xlink" width="64" height="64" viewBox="0 0 64 64">
  <defs>
    <path id="icon-spotify-a" d="M32,10.6666667 C20.2236559,10.6666667 10.6666667,20.2236559 10.6666667,32 C10.6666667,43.7763441 20.2236559,53.3333333 32,53.3333333 C43.7763441,53.3333333 53.3333333,43.7763441 53.3333333,32 C53.3333333,20.2236559 43.7763441,10.6666667 32,10.6666667 Z"/>
  </defs>
  <g fill="none" fill-rule="evenodd">
    <circle cx="32" cy="32" r="32" fill="#F0F3F8"/>
    <rect width="64" height="64"/>
    <mask id="icon-spotify-b" fill="#fff">
      <use xlink:href="#icon-spotify-a"/>
    </mask>
    <use fill="#0080FF" fill-rule="nonzero" xlink:href="#icon-spotify-a"/>
    <path fill="#FFF" d="M40.6623656 42.055914C40.3010753 42.055914 40.0774194 41.944086 39.7419355 41.7462366 34.3741935 38.511828 28.1290323 38.3741935 21.9612903 39.6387097 21.6258065 39.7247312 21.1870968 39.8623656 20.9376344 39.8623656 20.1032258 39.8623656 19.5784946 39.2 19.5784946 38.5032258 19.5784946 37.6172043 20.1032258 37.1956989 20.7483871 37.0580645 27.7935484 35.5010753 34.9935484 35.6387097 41.1354839 39.311828 41.6602151 39.6473118 41.9698925 39.9483871 41.9698925 40.7311828 41.9698925 41.5139785 41.3591398 42.055914 40.6623656 42.055914zM42.9763441 36.4129032C42.5290323 36.4129032 42.227957 36.2150538 41.9182796 36.0516129 36.5419355 32.8688172 28.5247312 31.5870968 21.3935484 33.5225806 20.9806452 33.6344086 20.7569892 33.7462366 20.3698925 33.7462366 19.4494624 33.7462366 18.7010753 32.9978495 18.7010753 32.0774194 18.7010753 31.1569892 19.1483871 30.5462366 20.0344086 30.2967742 22.4258065 29.6258065 24.8688172 29.1268817 28.4473118 29.1268817 34.0301075 29.1268817 39.4236559 30.511828 43.6731183 33.0408602 44.3698925 33.4537634 44.6451613 33.9870968 44.6451613 34.7354839 44.6365591 35.6645161 43.9139785 36.4129032 42.9763441 36.4129032zM45.6430108 29.8580645C45.1956989 29.8580645 44.9204301 29.7462366 44.5333333 29.5225806 38.4086022 25.8666667 27.4580645 24.9892473 20.3698925 26.9677419 20.0602151 27.0537634 19.6731183 27.1913978 19.2602151 27.1913978 18.1247312 27.1913978 17.255914 26.3053763 17.255914 25.1612903 17.255914 23.9913978 17.9784946 23.3290323 18.7526882 23.1053763 21.7806452 22.2193548 25.1698925 21.7978495 28.8602151 21.7978495 35.1397849 21.7978495 41.7204301 23.1053763 46.5290323 25.9096774 47.2 26.2967742 47.6387097 26.8301075 47.6387097 27.8537634 47.6387097 29.0236559 46.6924731 29.8580645 45.6430108 29.8580645z" mask="url(#icon-spotify-b)"/>
  </g>
</svg>
