<svg xmlns="http://www.w3.org/2000/svg" width="64" height="64" viewBox="0 0 64 64">
  <g fill="none" fill-rule="evenodd">
    <circle cx="32" cy="32" r="32" fill="#F0F3F8"/>
    <rect width="64" height="64"/>
    <path fill="#0080FF" fill-rule="nonzero" d="M14.2011344,43.2392233 L14.6189142,41.9759099 C15.1954327,40.2263596 17.0802048,39.2777872 18.8505624,39.8612719 L42.3023957,47.8198483 C44.9243543,46.9234809 47.3873209,49.4387477 46.529603,52.0252466 C45.6055002,54.8215578 42.5893094,56.3399628 39.7726913,55.4090597 L16.306653,47.4459757 C14.5678939,46.863383 13.6252481,44.9835253 14.2011344,43.2392233 Z"/>
    <path fill="#0080FF" d="M22.7895984,29.5113451 L13.1766795,26.3354679 L12.784432,27.4714743 C12.6041782,27.9935155 12.0348557,28.270589 11.5128144,28.0903353 C10.9907732,27.9100816 10.7136997,27.340759 10.8939535,26.8187178 L11.2774647,25.708013 L8.97646786,24.947819 C8.62686338,24.8323181 8.43708494,24.4552756 8.55258585,24.1056712 L8.97085165,22.8396413 C9.08635256,22.4900369 9.46339498,22.3002584 9.81299946,22.4157593 L12.1478847,23.1871493 L12.4862386,22.2072269 C12.6664924,21.6851857 13.2358149,21.4081122 13.7578561,21.5883659 C14.2798974,21.7686197 14.5569708,22.3379422 14.3767171,22.8599834 L14.0470995,23.8146042 L23.6159843,26.9759336 L25.1925024,22.204057 C26.059272,19.5823288 28.8862043,18.1591451 31.5085936,19.0251767 L32.7746186,19.4436314 C35.2900871,20.2743529 36.7021385,22.9112471 36.047969,25.4395084 L37.9577352,26.0704467 C40.2919687,26.8417762 41.3946446,29.5225524 40.246042,31.7258342 C39.5457316,33.0701256 38.1788895,33.8265221 36.7555789,33.8525288 C37.2660899,35.0179036 37.3645719,36.3718137 36.9328954,37.6842074 L34.9812655,43.4338336 C34.2310851,45.7120313 31.775628,46.9501892 29.4974631,46.1977201 C27.2220349,45.4455839 25.9861521,42.9914661 26.752969,40.6728395 L27.4318461,38.7306145 C23.7570563,37.3018422 21.7498367,33.3149647 22.7895984,29.5113451 Z"/>
    <path fill="#FFF" d="M31.4274598,29.4738904 C31.1268252,29.3752919 30.3228672,29.0943882 30.7617187,28.1393229 L31.0702729,27.3230852 C31.0746366,27.3115418 31.0787708,27.2999131 31.0826732,27.2882058 C31.245678,26.7991921 30.9813955,26.2706267 30.4923818,26.1076219 L29.8669075,25.8991303 C29.3906462,25.7403764 28.8741264,25.9867934 28.6978541,26.4568526 L28.2136561,27.7480469 C26.7469889,31.0813802 28.1205968,31.4726563 29.4283854,32.1393229 L32.7123854,33.4651229 C34.1083854,33.9264562 34.8670521,35.4304562 34.4077188,36.8271229 L32.4483854,42.5997896 C32.1590521,43.4784562 31.2123854,43.9557896 30.3343854,43.6657896 C29.4570521,43.3757896 28.9803854,42.4297896 29.2703854,41.5524562 L30.4003854,38.3184562 C30.6317187,37.6191229 30.2517187,36.8651229 29.5523854,36.6337896 L28.6503854,36.3357896 C26.0023854,35.4611229 24.5650521,32.6051229 25.4397187,29.9564562 L27.7243854,23.0411229 C28.1290521,21.8171229 29.4483854,21.1531229 30.6717187,21.5571229 L31.9383854,21.9757896 C33.1617187,22.3797896 33.8257187,23.6997896 33.4217187,24.9231229 L32.6897187,27.1384562 L37.1210521,28.6024562 C37.8897188,28.8564562 38.2723854,29.7431229 37.8810521,30.4937896 C37.5743854,31.0824562 36.8470521,31.3204562 36.2163854,31.1124562 L31.4283854,29.4726562 L31.4274598,29.4738904 Z"/>
    <path fill="#0080FF" d="M40.7617188,13.4726562 C40.7617188,16.7860822 38.0751447,19.4726562 34.7617188,19.4726562 C31.4482928,19.4726562 28.7617188,16.7860822 28.7617188,13.4726562 C28.7617188,10.1592303 31.4482928,7.47265625 34.7617188,7.47265625 C38.0751447,7.47265625 40.7617188,10.1592303 40.7617188,13.4726562 Z"/>
    <path fill="#C7D3E3" d="M38.0950521 13.4726562C38.0950521 11.6319896 36.6023854 10.1393229 34.7617188 10.1393229 32.9210521 10.1393229 31.4283854 11.6319896 31.4283854 13.4726562 31.4283854 15.3133229 32.9210521 16.8059896 34.7617188 16.8059896 36.6023854 16.8059896 38.0950521 15.3133229 38.0950521 13.4726562zM17.1569493 44.9184954L40.6296159 52.8838288C42.0276159 53.3458288 43.5356159 52.5864954 43.9976159 51.1884954 44.1689493 50.6718288 43.6796159 50.1671621 43.1649493 50.3431621 42.6336159 50.5251621 42.0402826 50.5418288 41.4656159 50.3518288L17.9936159 42.3864954C17.6436159 42.2711621 17.2669493 42.4604954 17.1516159 42.8104954L16.7329493 44.0764954C16.6176159 44.4258288 16.8076159 44.8031621 17.1569493 44.9184954z"/>
  </g>
</svg>
