<svg xmlns="http://www.w3.org/2000/svg" xmlns:xlink="http://www.w3.org/1999/xlink" width="64" height="64" viewBox="0 0 64 64">
  <defs>
    <path id="icon-14-a" d="M35.9981214,21.3333333 C35.264788,21.3333333 34.664788,21.9333333 34.664788,22.6666667 C34.664788,23.4 35.264788,24 35.9981214,24 C36.7314547,24 37.3314547,23.4 37.3314547,22.6666667 C37.3314547,21.9333333 36.7314547,21.3333333 35.9981214,21.3333333 Z M46.664788,18.6666667 L44.2064547,18.6666667 C43.2814547,16.5583333 41.814788,14.7583333 39.9981214,13.3833333 L39.9981214,8 L38.664788,8 C36.139788,8 33.8481214,8.84166667 31.9231214,10.1833333 C31.9564547,9.9 31.9981214,9.625 31.9981214,9.33333333 C31.9981214,4.175 27.8231214,0 22.664788,0 C17.5064547,0 13.3314547,4.175 13.3314547,9.33333333 C13.3314547,10.1416667 13.464788,10.9083333 13.664788,11.6583333 C9.5814547,13.3083333 6.49812137,16.9166667 5.59812137,21.3333333 L4.66478804,21.3333333 C3.4314547,21.3333333 2.4564547,20.2083333 2.7064547,18.9333333 C2.88978804,17.9833333 3.7814547,17.3333333 4.74812137,17.3333333 L4.8314547,17.3333333 C5.1064547,17.3333333 5.3314547,17.1083333 5.3314547,16.8333333 L5.3314547,15.1666667 C5.3314547,14.8916667 5.1064547,14.6666667 4.8314547,14.6666667 C2.4564547,14.6666667 0.339788036,16.3666667 0.0397880355,18.7166667 C-0.326878631,21.5666667 1.88978804,24 4.66478804,24 L5.3314547,24 C5.3314547,28.35 7.44812137,32.175 10.664788,34.6083333 L10.664788,41.3333333 C10.664788,42.0666667 11.264788,42.6666667 11.9981214,42.6666667 L21.3314547,42.6666667 C22.064788,42.6666667 22.664788,42.0666667 22.664788,41.3333333 L22.664788,37.3333333 L27.9981214,37.3333333 L27.9981214,41.3333333 C27.9981214,42.0666667 28.5981214,42.6666667 29.3314547,42.6666667 L38.664788,42.6666667 C39.3981214,42.6666667 39.9981214,42.0666667 39.9981214,41.3333333 L39.9981214,34.5916667 C40.9731214,33.8416667 41.864788,32.9833333 42.6064547,32 L46.664788,32 C47.3981214,32 47.9981214,31.4 47.9981214,30.6666667 L47.9981214,20 C47.9981214,19.2666667 47.3981214,18.6666667 46.664788,18.6666667 Z M22.664788,2.66666667 C26.3481214,2.66666667 29.3314547,5.65 29.3314547,9.33333333 C29.3314547,9.79166667 29.2814547,10.2333333 29.1981214,10.6666667 L18.664788,10.6666667 C17.8231214,10.6666667 17.0064547,10.7666667 16.2064547,10.9166667 C16.0731214,10.4083333 15.9981214,9.88333333 15.9981214,9.33333333 C15.9981214,5.65 18.9814547,2.66666667 22.664788,2.66666667 Z M45.3314547,29.3333333 L41.2731214,29.3333333 C39.8564547,31.2 39.8564547,31.3416667 37.3314547,33.275 L37.3314547,40 L30.664788,40 L30.664788,34.6666667 L19.9981214,34.6666667 L19.9981214,40 L13.3314547,40 L13.3314547,33.275 C7.92312137,29.1916667 7.99812137,25.4833333 7.99812137,24 C7.99812137,18.1166667 12.7814547,13.3333333 18.664788,13.3333333 L32.139788,13.3333333 C33.5481214,12.2083333 34.9064547,11.125 37.3314547,10.7666667 L37.3314547,14.7083333 C40.639788,17.2166667 40.9981214,17.9833333 42.464788,21.3333333 L45.3314547,21.3333333 L45.3314547,29.3333333 Z"/>
  </defs>
  <g fill="none" fill-rule="evenodd">
    <circle cx="32" cy="32" r="32" fill="#F0F3F8"/>
    <rect width="64" height="64"/>
    <g transform="translate(6.667 8.667)">
      <path fill="#FFF" d="M45.3314547,29.3333333 L41.2731214,29.3333333 C39.8564547,31.2 39.8564547,31.3416667 37.3314547,33.275 L37.3314547,40 L30.664788,40 L30.664788,34.6666667 L19.9981214,34.6666667 L19.9981214,40 L13.3314547,40 L13.3314547,33.275 C7.92312137,29.1916667 7.99812137,25.4833333 7.99812137,24 C7.99812137,18.1166667 12.7814547,13.3333333 18.664788,13.3333333 L32.139788,13.3333333 C33.5481214,12.2083333 34.9064547,11.125 37.3314547,10.7666667 L37.3314547,14.7083333 C40.639788,17.2166667 40.9981214,17.9833333 42.464788,21.3333333 L45.3314547,21.3333333 L45.3314547,29.3333333 Z"/>
      <path fill="#C7D3E3" d="M22.664788,2.66666667 C26.3481214,2.66666667 29.3314547,5.65 29.3314547,9.33333333 C29.3314547,9.79166667 29.2814547,10.2333333 29.1981214,10.6666667 L18.664788,10.6666667 C17.8231214,10.6666667 17.0064547,10.7666667 16.2064547,10.9166667 C16.0731214,10.4083333 15.9981214,9.88333333 15.9981214,9.33333333 C15.9981214,5.65 18.9814547,2.66666667 22.664788,2.66666667 Z"/>
      <mask id="icon-14-b" fill="#fff">
        <use xlink:href="#icon-14-a"/>
      </mask>
      <use fill="#000" fill-rule="nonzero" xlink:href="#icon-14-a"/>
      <g fill="#0080FF" mask="url(#icon-14-b)">
        <rect width="213" height="133" transform="translate(-80.667 -50)"/>
      </g>
    </g>
  </g>
</svg>
