<svg xmlns="http://www.w3.org/2000/svg" xmlns:xlink="http://www.w3.org/1999/xlink" width="64" height="64" viewBox="0 0 64 64">
  <defs>
    <path id="icon-13-a" d="M24.474259,28.120984 C23.425897,26.6817495 20.7975039,25.767236 18.8954758,27.8286395 C17.7273011,29.0879696 17.7048362,31.036933 18.7082683,32.4236953 L20.849922,35.3696283 C21.3366615,36.0367735 20.3631825,36.8013668 19.8315133,36.1717017 L15.1887676,30.6771243 L15.1887676,20.4000908 C15.1887676,18.4511275 13.601248,16.7045566 11.6542902,16.6745725 C9.6399376,16.6370924 8,18.2562312 8,20.2651626 L8,33.0383684 C8,33.8554337 8.27706708,34.6500111 8.78627145,35.2871722 L16.798752,45.3093412 C17.2031201,45.8190701 17.4652106,46.6211435 17.5550702,47.3332647 C17.5925117,47.6331052 17.8546022,47.8504896 18.1541342,47.8504896 L19.3522621,47.8504896 C19.7117005,47.8504896 19.9887676,47.5581451 19.9513261,47.1983365 C19.8315133,45.9989744 19.3897036,44.7021642 18.6708268,43.8101387 L10.6583463,33.7879696 C10.4861154,33.5780813 10.3962559,33.3082248 10.3962559,33.0383684 L10.3962559,20.2651626 C10.3962559,18.6909999 12.7925117,18.6460239 12.7925117,20.3176347 L12.7925117,31.5391658 L17.6299532,37.3485757 C20.3931357,40.6618133 24.8786271,37.1461833 22.9316693,34.1702663 C22.9166927,34.1477782 22.9017161,34.1327862 22.8942278,34.1102982 L20.6028081,30.9469808 C20.250858,30.45974 20.2882995,29.6951467 20.8648986,29.27537 C21.3890796,28.8930733 22.1453978,28.9905215 22.5422777,29.5377304 L25.7173167,33.9154019 C26.6683307,35.182228 27.1775351,36.7189106 27.1775351,38.2630893 L27.1775351,47.2583046 C27.1775351,47.5881291 27.4471139,47.8579856 27.7765991,47.8579856 L28.974727,47.8579856 C29.3042122,47.8579856 29.573791,47.5881291 29.573791,47.2583046 L29.573791,38.2630893 C29.573791,36.1866937 28.899844,34.1702663 27.6567863,32.5061515 L24.474259,28.120984 Z M55.925117,20.2651626 C55.925117,18.2562312 54.2851794,16.6370924 52.2708268,16.6670765 C50.323869,16.6970605 48.7363495,18.4436315 48.7363495,20.3925948 L48.7363495,30.6696283 L44.0936037,36.1642057 C43.5619345,36.7938707 42.5884555,36.0367735 43.075195,35.3621323 L45.2168487,32.4161993 C46.2202808,31.0294369 46.1978159,29.0729776 45.0296412,27.8211435 C43.1201248,25.767236 40.4917317,26.6742535 39.450858,28.113488 L36.275819,32.4911594 C35.0327613,34.1552743 34.3588144,36.1791977 34.3588144,38.2555932 L34.3588144,47.2508085 C34.3588144,47.5806331 34.6283931,47.8504896 34.9578783,47.8504896 L36.1560062,47.8504896 C36.4854914,47.8504896 36.7550702,47.5806331 36.7550702,47.2508085 L36.7550702,38.2555932 C36.7550702,36.7114146 37.2642746,35.174732 38.2152886,33.9079058 L41.3903276,29.5302344 C41.7872075,28.9830255 42.5360374,28.8780813 43.0677067,29.2678739 C43.6517941,29.6876507 43.6892356,30.452244 43.3297972,30.9394848 L41.0383775,34.1028022 C41.0234009,34.1252902 41.0084243,34.1402822 41.000936,34.1627703 C39.0464899,37.1386873 43.5394696,40.6618133 46.3026521,37.3410797 L51.1400936,31.5316698 L51.1400936,20.3101387 C51.1400936,18.6385278 53.5363495,18.6835039 53.5363495,20.2576666 L53.5363495,33.0308723 C53.5363495,33.3007288 53.4464899,33.5705853 53.274259,33.7804736 L45.2617785,43.8026427 C44.55039,44.6946682 44.101092,45.9914784 43.9812793,47.1908404 C43.9438378,47.5506491 44.2209048,47.8429936 44.5803432,47.8429936 L45.7784711,47.8429936 C46.0780031,47.8429936 46.3400936,47.6256092 46.3775351,47.3257687 C46.4673947,46.6061515 46.7219969,45.8115741 47.1338534,45.3018452 L55.1463339,35.2796762 C55.6555382,34.6425151 55.9326053,33.8479377 55.9326053,33.0308723 L55.925117,20.2651626 Z"/>
  </defs>
  <g fill="none" fill-rule="evenodd">
    <circle cx="32" cy="32" r="32" fill="#F0F3F8"/>
    <rect width="64" height="64"/>
    <path fill="#FFF" d="M19.9513261 47.1983365C19.8315133 45.9989744 19.3897036 44.7021642 18.6708268 43.8101387L10.6583463 33.7879696C10.4861154 33.5780813 10.3962559 33.3082248 10.3962559 33.0383684L10.3962559 20.2651626C10.3962559 18.6909999 12.7925117 18.6460239 12.7925117 20.3176347L12.7925117 31.5391658 17.6299532 37.3485757C20.3931357 40.6618133 24.8786271 37.1461833 22.9316693 34.1702663 22.9166927 34.1477782 22.9017161 34.1327862 22.8942278 34.1102982L20.6028081 30.9469808C20.250858 30.45974 20.2882995 29.6951467 20.8648986 29.27537 21.3890796 28.8930733 22.1453978 28.9905215 22.5422777 29.5377304L25.7173167 33.9154019C26.6683307 35.182228 27.1775351 36.7189106 27.1775351 38.2630893L27.1775351 47.2583046C27.1775351 47.5881291 19.9887676 47.5581451 19.9513261 47.1983365zM36.7550702 47.2508085L36.7550702 38.2555932C36.7550702 36.7114146 37.2642746 35.174732 38.2152886 33.9079058L41.3903276 29.5302344C41.7872075 28.9830255 42.5360374 28.8780813 43.0677067 29.2678739 43.6517941 29.6876507 43.6892356 30.452244 43.3297972 30.9394848L41.0383775 34.1028022C39.0464899 37.1386873 43.5394696 40.6618133 46.3026521 37.3410797L51.1400936 31.5316698 51.1400936 20.3101387C51.1400936 18.6385278 53.5363495 18.6835039 53.5363495 20.2576666L53.5363495 33.0308723C53.5363495 33.3007288 53.4464899 33.5705853 53.274259 33.7804736L45.2617785 43.8026427C44.55039 44.6946682 44.101092 45.9914784 43.9812793 47.1908404 43.9438378 47.5506491 36.7550702 47.5806331 36.7550702 47.2508085z"/>
    <mask id="icon-13-b" fill="#fff">
      <use xlink:href="#icon-13-a"/>
    </mask>
    <use fill="#000" fill-rule="nonzero" xlink:href="#icon-13-a"/>
    <g fill="#0080FF" mask="url(#icon-13-b)">
      <rect width="213" height="133" transform="translate(-74.667 -34.667)"/>
    </g>
  </g>
</svg>
