<svg xmlns="http://www.w3.org/2000/svg" xmlns:xlink="http://www.w3.org/1999/xlink" width="64" height="64" viewBox="0 0 64 64">
  <defs>
    <linearGradient id="icon-23-a" x1="15.632%" x2="44.75%" y1="97.18%" y2="97.18%">
      <stop offset="0%" stop-color="#F0F3F8"/>
      <stop offset="100%" stop-color="#C7D3E3"/>
    </linearGradient>
    <path id="icon-23-b" d="M52.3333333,46 C52.8833333,46 53.3333333,46.45 53.3333333,47 L53.3333333,47.6666667 C53.3333333,48.2166667 52.8833333,48.6666667 52.3333333,48.6666667 L11.6666667,48.6666667 C11.1166667,48.6666667 10.6666667,48.2166667 10.6666667,47.6666667 L10.6666667,17.6666667 C10.6666667,17.1166667 11.1166667,16.6666667 11.6666667,16.6666667 L12.3333333,16.6666667 C12.8833333,16.6666667 13.3333333,17.1166667 13.3333333,17.6666667 L13.3333333,46 L52.3333333,46 Z M50.6666667,21.4166667 L50.6666667,29.25 C50.6666667,31.6916667 47.7,32.9166667 45.975,31.1916667 L43,28.2166667 L35.0166667,36.2 C34.825,36.3916667 34.5083333,36.3916667 34.3083333,36.2 L29.3583333,31.25 L19.9833333,41.2166667 C19.7916667,41.4166667 19.475,41.425 19.275,41.2416667 L18.0583333,40.1 C17.8583333,39.9083333 17.85,39.5916667 18.0333333,39.3916667 L28.95,27.8 C29.1416667,27.5916667 29.4666667,27.5916667 29.6666667,27.7916667 L34.6666667,32.7916667 L41.1166667,26.3416667 L38.1416667,23.3666667 C36.4083333,21.6333333 37.6416667,18.675 40.0833333,18.675 L47.9166667,18.675 C49.4333333,18.6666667 50.6666667,19.9 50.6666667,21.4166667 Z M48.2666667,21.4166667 C48.2666667,21.225 48.1166667,21.075 47.925,21.075 L40.0916667,21.075 C39.7833333,21.075 39.6333333,21.45 39.85,21.6583333 L47.6833333,29.4916667 C47.9,29.7083333 48.2666667,29.5583333 48.2666667,29.25 L48.2666667,21.4166667 Z"/>
  </defs>
  <g fill="none" fill-rule="evenodd">
    <circle cx="32" cy="32" r="32" fill="#F0F3F8"/>
    <rect width="64" height="64"/>
    <polygon fill="url(#icon-23-a)" points="29.333 30 13.333 46 43.333 46.667 43.333 26.667 34.667 36"/>
    <path fill="#FFF" d="M48.2666667,21.4166667 C48.2666667,21.225 48.1166667,21.075 47.925,21.075 L40.0916667,21.075 C39.7833333,21.075 39.6333333,21.45 39.85,21.6583333 L47.6833333,29.4916667 C47.9,29.7083333 48.2666667,29.5583333 48.2666667,29.25 L48.2666667,21.4166667 Z"/>
    <mask id="icon-23-c" fill="#fff">
      <use xlink:href="#icon-23-b"/>
    </mask>
    <use fill="#000" fill-rule="nonzero" xlink:href="#icon-23-b"/>
    <g fill="#0080FF" mask="url(#icon-23-c)">
      <rect width="213" height="133" transform="translate(-72.667 -39.333)"/>
    </g>
  </g>
</svg>
