<svg xmlns="http://www.w3.org/2000/svg" xmlns:xlink="http://www.w3.org/1999/xlink" width="64" height="64" viewBox="0 0 64 64">
  <defs>
    <path id="icon-sharedcar-a" d="M34.4,19.0769231 L41.7515,19.0769231 C42.46625,19.0769231 43.1375,19.3932692 43.595,19.9438622 L50.876,28.7179487 L34.4,28.7179487 L34.4,19.0769231 Z M22.4,19.0769231 L32,19.0769231 L32,28.7179487 L22.4,28.7179487 L22.4,19.0769231 Z M10.4,20.2820513 C10.4,19.6177244 10.9385,19.0769231 11.6,19.0769231 L20,19.0769231 L20,28.7179487 L10.4,28.7179487 L10.4,20.2820513 Z"/>
  </defs>
  <g fill="none" fill-rule="evenodd">
    <circle cx="32" cy="32" r="32" fill="#F0F3F8"/>
    <rect width="64" height="64"/>
    <path fill="#0080FF" d="M54.88775,29.7875 L45.43925,18.4012981 C44.527202,17.3021795 43.1761522,16.6666772 41.7515,16.6666667 L11.6,16.6666667 C9.61175,16.6666667 8,18.2853045 8,20.2820513 L8,40.7692308 C8,42.1001442 9.07475,43.1794872 10.4,43.1794872 L12.9215,43.1794872 C13.47875,45.9264263 15.90275,48 18.8,48 C21.69725,48 24.12125,45.9264263 24.6785,43.1794872 L39.3215,43.1794872 C39.87875,45.9264263 42.30275,48 45.2,48 C48.09725,48 50.52125,45.9264263 51.0785,43.1794872 L53.6,43.1794872 C54.92525,43.1794872 56,42.1001442 56,40.7692308 L56,32.8733814 C56,31.7458333 55.60625,30.6536859 54.88775,29.7875 Z"/>
    <path fill="#C7D3E3" d="M18.8 45.5897436C16.81175 45.5897436 15.2 43.9711058 15.2 41.974359 15.2 39.9776122 16.81175 38.3589744 18.8 38.3589744 20.78825 38.3589744 22.4 39.9776122 22.4 41.974359 22.4 43.9711058 20.78825 45.5897436 18.8 45.5897436zM45.2 45.5897436C43.21175 45.5897436 41.6 43.9711058 41.6 41.974359 41.6 39.9776122 43.21175 38.3589744 45.2 38.3589744 47.18825 38.3589744 48.8 39.9776122 48.8 41.974359 48.8 43.9711058 47.18825 45.5897436 45.2 45.5897436z"/>
    <path fill="#FFF" d="M53.6,40.7692308 L51.0785,40.7692308 C50.52125,38.0222917 48.09725,35.9487179 45.2,35.9487179 C42.30275,35.9487179 39.87875,38.0222917 39.3215,40.7692308 L24.6785,40.7692308 C24.12125,38.0222917 21.69725,35.9487179 18.8,35.9487179 C15.90275,35.9487179 13.47875,38.0222917 12.9215,40.7692308 L10.4,40.7692308 L10.4,31.1282051 L52.87625,31.1282051 L53.0435,31.3300641 C53.4025621,31.7635717 53.5994179,32.3095035 53.6,32.8733814 L53.6,40.7692308 Z"/>
    <use fill="#FFF" fill-rule="nonzero" xlink:href="#icon-sharedcar-a"/>
  </g>
</svg>
