<svg xmlns="http://www.w3.org/2000/svg" xmlns:xlink="http://www.w3.org/1999/xlink" width="64" height="64" viewBox="0 0 64 64">
  <defs>
    <path id="icon-17-a" d="M12.5436512,35.1386528 C12.4899382,34.5511892 12.5541117,33.9407917 12.752969,33.3395062 L13.4318461,31.3972811 C9.63075625,29.9194029 7.61383301,25.704557 8.90765986,21.786589 L11.1925024,14.8707237 C12.059272,12.2489955 14.8862043,10.8258117 17.5085936,11.6918434 L18.7746186,12.110298 C21.2900871,12.9410195 22.7021385,15.5779138 22.047969,18.1061751 L23.9577352,18.7371133 C26.2919687,19.5084429 27.3946446,22.1892191 26.246042,24.3925008 C25.5457316,25.7367923 24.1788895,26.4931887 22.7555789,26.5191955 C23.2660899,27.6845703 23.3645719,29.0384804 22.9328954,30.350874 L20.9812655,36.1005002 C20.7807726,36.7093704 20.4584758,37.2439529 20.0503127,37.6861014 L28.3023957,40.486515 C30.9243543,39.5901475 33.3873209,42.1054144 32.529603,44.6919132 C31.6055002,47.4882244 28.5893094,49.0066295 25.7726913,48.0757264 L2.30665298,40.1126424 C0.567893937,39.5300496 -0.374751906,37.650192 0.201134385,35.90589 L0.618914178,34.6425766 C1.19543266,32.8930263 3.0802048,31.9444539 4.85056237,32.5279386 L12.5436512,35.1386528 Z M18.7123854,26.1317896 L15.4283854,24.8059896 L17.4283854,22.1393229 L22.2163854,23.7791229 C22.8470521,23.9871229 23.5743854,23.7491229 23.8810521,23.1604562 C24.2723854,22.4097896 23.8897187,21.5231229 23.1210521,21.2691229 L18.6897187,19.8051229 L19.4217187,17.5897896 C19.8257187,16.3664562 19.1617187,15.0464562 17.9383854,14.6424562 L16.6717187,14.2237896 C15.4483854,13.8197896 14.1290521,14.4837896 13.7243854,15.7077896 L11.4397187,22.6231229 C10.5650521,25.2717896 12.0023854,28.1277896 14.6503854,29.0024562 L15.5523854,29.3004562 C16.2517187,29.5317896 16.6317187,30.2857896 16.4003854,30.9851229 L15.2703854,34.2191229 C14.9803854,35.0964562 15.4570521,36.0424562 16.3343854,36.3324562 C17.2123854,36.6224562 18.1590521,36.1451229 18.4483854,35.2664562 L20.4077187,29.4937896 C20.8670521,28.0971229 20.1083854,26.5931229 18.7123854,26.1317896 Z M26.7617187,6.13932292 C26.7617187,9.45274892 24.0751447,12.1393229 20.7617187,12.1393229 C17.4482928,12.1393229 14.7617187,9.45274892 14.7617187,6.13932292 C14.7617187,2.82589692 17.4482928,0.139322917 20.7617187,0.139322917 C24.0751447,0.139322917 26.7617187,2.82589692 26.7617187,6.13932292 Z"/>
  </defs>
  <g fill="none" fill-rule="evenodd">
    <circle cx="32" cy="32" r="32" fill="#F0F3F8"/>
    <rect width="64" height="64"/>
    <path fill="#FFF" d="M32.7123854,33.4651229 L29.4283854,32.1393229 L31.4283854,29.4726562 L36.2163854,31.1124562 C36.8470521,31.3204562 37.5743854,31.0824562 37.8810521,30.4937896 C38.2723854,29.7431229 37.8897188,28.8564562 37.1210521,28.6024562 L32.6897187,27.1384562 L33.4217187,24.9231229 C33.8257187,23.6997896 33.1617187,22.3797896 31.9383854,21.9757896 L30.6717188,21.5571229 C29.4483854,21.1531229 28.1290521,21.8171229 27.7243854,23.0411229 L25.4397187,29.9564562 C24.5650521,32.6051229 26.0023854,35.4611229 28.6503854,36.3357896 L29.5523854,36.6337896 C30.2517187,36.8651229 30.6317187,37.6191229 30.4003854,38.3184562 L29.2703854,41.5524562 C28.9803854,42.4297896 29.4570521,43.3757896 30.3343854,43.6657896 C31.2123854,43.9557896 32.1590521,43.4784562 32.4483854,42.5997896 L34.4077188,36.8271229 C34.8670521,35.4304562 34.1083854,33.9264562 32.7123854,33.4651229 Z"/>
    <g transform="translate(14 7.333)">
      <mask id="icon-17-b" fill="#fff">
        <use xlink:href="#icon-17-a"/>
      </mask>
      <use fill="#000" fill-rule="nonzero" xlink:href="#icon-17-a"/>
      <g fill="#0080FF" mask="url(#icon-17-b)">
        <rect width="213" height="133" transform="translate(-86.667 -46.667)"/>
      </g>
    </g>
    <path fill="#0080FF" d="M27.9461811,28.4065264 C28.0220604,28.2007406 28.1108855,27.9816164 28.2136561,27.7480469 L28.6978541,26.4568526 C28.8741264,25.9867934 29.3906462,25.7403764 29.8669075,25.8991303 L30.4923818,26.1076219 C30.9813955,26.2706267 31.245678,26.7991921 31.0826732,27.2882058 C31.0787708,27.2999131 31.0746366,27.3115418 31.0702729,27.3230852 L30.7617188,28.1393229 C30.3019206,29.139974 31.2064033,29.4005713 31.4668783,29.4868164 L29.4283854,32.1393229 C28.8871736,31.8634314 28.3346896,31.6347036 27.9769007,31.225105 L13.8066108,26.543582 L13.3822372,27.8278617 L13.8066108,26.543582 L13.1766795,26.3354679 L12.784432,27.4714743 C12.6041782,27.9935155 12.0348557,28.270589 11.5128144,28.0903353 C10.9907732,27.9100816 10.7136997,27.340759 10.8939535,26.8187178 L11.2774647,25.708013 L8.97646786,24.947819 C8.62686338,24.8323181 8.43708494,24.4552756 8.55258585,24.1056712 L8.97085165,22.8396413 C9.08635256,22.4900369 9.46339498,22.3002584 9.81299946,22.4157593 L12.1478847,23.1871493 L12.4862386,22.2072269 C12.6664924,21.6851857 13.2358149,21.4081122 13.7578561,21.5883659 C14.2798974,21.7686197 14.5569708,22.3379422 14.3767171,22.8599834 L14.0470995,23.8146042 L14.6432819,24.0115685 L15.0555794,22.7638346 L14.6432819,24.0115685 L27.9461811,28.4065264 Z"/>
    <path fill="#C7D3E3" d="M38.0950521 13.4726562C38.0950521 11.6319896 36.6023854 10.1393229 34.7617188 10.1393229 32.9210521 10.1393229 31.4283854 11.6319896 31.4283854 13.4726562 31.4283854 15.3133229 32.9210521 16.8059896 34.7617188 16.8059896 36.6023854 16.8059896 38.0950521 15.3133229 38.0950521 13.4726562zM17.1569493 44.9184954L40.6296159 52.8838288C42.0276159 53.3458288 43.5356159 52.5864954 43.9976159 51.1884954 44.1689493 50.6718288 43.6796159 50.1671621 43.1649493 50.3431621 42.6336159 50.5251621 42.0402826 50.5418288 41.4656159 50.3518288L17.9936159 42.3864954C17.6436159 42.2711621 17.2669493 42.4604954 17.1516159 42.8104954L16.7329493 44.0764954C16.6176159 44.4258288 16.8076159 44.8031621 17.1569493 44.9184954z"/>
  </g>
</svg>
