<svg xmlns="http://www.w3.org/2000/svg" xmlns:xlink="http://www.w3.org/1999/xlink" width="64" height="64" viewBox="0 0 64 64">
  <defs>
    <path id="icon-remote-a" d="M51.092607,30.18 L46.4435798,26.4248889 L46.4435798,20.6826667 C46.4435798,20.4333333 46.2404669,20.2293333 45.9922179,20.2293333 L44.4876783,20.2293333 C44.2394293,20.2293333 44.0363165,20.4333333 44.0363165,20.6826667 L44.0363165,24.468 L33.5120623,15.9453333 C32.6319066,15.2275556 31.3680934,15.2275556 30.4879377,15.9453333 L12.907393,30.18 C12.7118029,30.3386667 12.6817121,30.6257778 12.8396887,30.8146667 L13.7875486,31.9933333 C13.9455253,32.1897778 14.2313878,32.22 14.426978,32.0613333 L17.5564202,29.5302222 L17.5564202,46.8324444 C17.5564202,48.1697778 18.632166,49.2502222 19.9636835,49.2502222 L28.690013,49.2502222 C29.186511,49.2502222 29.5927367,48.8422222 29.5927367,48.3435556 L29.5927367,38.3626667 L34.4072633,38.3853333 L34.4072633,48.3737778 C34.4072633,48.8724444 34.813489,49.2804444 35.309987,49.2804444 L44.0363165,49.2577778 C45.367834,49.2577778 46.4435798,48.1773333 46.4435798,46.84 L46.4435798,29.5377778 L49.573022,32.0688889 C49.7686122,32.2275556 50.0544747,32.1973333 50.2124514,32.0008889 L51.1603113,30.8222222 C51.3182879,30.6257778 51.2806744,30.3386667 51.092607,30.18 Z M44.0363165,46.84 L36.8145266,46.8626667 L36.8145266,36.8666667 C36.8145266,36.368 36.4083009,35.96 35.9118029,35.96 L28.0881971,35.9373333 C27.5916991,35.9373333 27.1854734,36.3453333 27.1854734,36.844 L27.1854734,46.84 L19.9636835,46.84 L19.9636835,27.5808889 L31.7141375,18.0608889 C31.8796368,17.9248889 32.1128405,17.9248889 32.2783398,18.0608889 L44.0287938,27.5808889 L44.0287938,46.84 L44.0363165,46.84 Z"/>
  </defs>
  <g fill="none" fill-rule="evenodd">
    <circle cx="32" cy="32" r="32" fill="#F0F3F8"/>
    <rect width="64" height="64"/>
    <path fill="#FFF" d="M44.0363165,46.84 L36.8145266,46.8626667 L36.8145266,36.8666667 C36.8145266,36.368 36.4083009,35.96 35.9118029,35.96 L28.0881971,35.9373333 C27.5916991,35.9373333 27.1854734,36.3453333 27.1854734,36.844 L27.1854734,46.84 L19.9636835,46.84 L19.9636835,27.5808889 L31.7141375,18.0608889 C31.8796368,17.9248889 32.1128405,17.9248889 32.2783398,18.0608889 L44.0287938,27.5808889 L44.0287938,46.84 L44.0363165,46.84 Z"/>
    <mask id="icon-remote-b" fill="#fff">
      <use xlink:href="#icon-remote-a"/>
    </mask>
    <use fill="#000" fill-rule="nonzero" xlink:href="#icon-remote-a"/>
    <g fill="#0080FF" mask="url(#icon-remote-b)">
      <rect width="213" height="133" transform="translate(-72.667 -39.333)"/>
    </g>
  </g>
</svg>
