<svg xmlns="http://www.w3.org/2000/svg" xmlns:xlink="http://www.w3.org/1999/xlink" width="64" height="64" viewBox="0 0 64 64">
  <defs>
    <path id="icon-21-a" d="M35.0416667,0 L3.625,0 C1.62369792,0 0,1.79166667 0,4 L0,33.3333333 C0,35.5416667 1.62369792,37.3333333 3.625,37.3333333 L35.0416667,37.3333333 C37.0429688,37.3333333 38.6666667,35.5416667 38.6666667,33.3333333 L38.6666667,4 C38.6666667,1.79166667 37.0429688,0 35.0416667,0 Z"/>
  </defs>
  <g fill="none" fill-rule="evenodd">
    <circle cx="32" cy="32" r="32" fill="#FFF"/>
    <g transform="translate(12.667 13.333)">
      <mask id="icon-21-b" fill="#fff">
        <use xlink:href="#icon-21-a"/>
      </mask>
      <use fill="#212121" xlink:href="#icon-21-a"/>
      <g fill="#0080FF" mask="url(#icon-21-b)">
        <rect width="213" height="133" transform="translate(-91.333 -52.667)"/>
      </g>
      <path fill="#C7D3E3" d="M2.41666667,4 C2.41666667,3.26666667 2.96041667,2.66666667 3.625,2.66666667 L7.25,2.66666667 L7.25,8 L2.41666667,8 L2.41666667,4 Z" mask="url(#icon-21-b)"/>
      <path fill="#FFF" d="M36.25,33.3333333 C36.25,34.0666667 35.70625,34.6666667 35.0416667,34.6666667 L3.625,34.6666667 C2.96041667,34.6666667 2.41666667,34.0666667 2.41666667,33.3333333 L2.41666667,10.6666667 L36.25,10.6666667 L36.25,33.3333333 Z" mask="url(#icon-21-b)"/>
      <path fill="#0080FF" d="M15.6010766,23.4209083 C15.3159543,22.5714805 14.5196983,22 13.6208678,22 C12.7220373,22 11.9257813,22.5706146 11.640659,23.4209083 L10.0568397,28.15294 C9.92644845,28.5495128 9.55439869,28.8144719 9.13627734,28.8144719 L8.05750689,28.8144719 C7.28906767,28.8144719 6.66666667,29.4344417 6.66666667,30.1998792 C6.66666667,30.9653167 7.28906767,31.5852865 8.05750689,31.5852865 L9.13627734,31.5852865 C10.7548677,31.5852865 12.1865638,30.5566216 12.6976976,29.0283442 L13.6208678,26.2670544 L15.0821193,30.6380142 C15.2603642,31.1697673 15.7428693,31.5420258 16.3043202,31.5809571 C16.3373526,31.5835547 16.3695158,31.5852865 16.401679,31.5852865 C16.9258519,31.5852865 17.4091689,31.2900215 17.6456117,30.8181172 L18.3114765,29.4907239 C18.553135,29.0066972 19.0016809,28.9547444 19.1833594,28.9547444 C19.3650379,28.9547444 19.8135839,29.0058313 20.0691508,29.5201638 C20.7106759,30.7930067 21.9980723,31.5844206 23.4262914,31.5844206 L24.7475896,31.5844206 C25.5160288,31.5844206 26.1384298,30.9644508 26.1384298,30.1990133 C26.1384298,29.4335758 25.5160288,28.8136061 24.7475896,28.8136061 L23.4271607,28.8136061 C23.0551109,28.8136061 22.7213093,28.6075267 22.5439771,28.2507844 C21.5043241,26.1856617 18.5244489,25.6245717 16.8076305,27.0246989 L15.6010766,23.4209083 Z" mask="url(#icon-21-b)"/>
      <path fill="#0080FF" d="M25.2843062,15.3201239 L24.1665392,15.3201239 C23.4877207,15.3201239 22.9374297,14.7698329 22.9374297,14.0910144 C22.9374297,13.412196 23.4877207,12.8619049 24.1665392,12.8619049 L28.1338118,12.8619049 C28.1848559,12.8554454 28.236876,12.8521164 28.2896736,12.8521164 C28.4464384,12.8521164 28.5963486,12.8814647 28.7342096,12.9349666 C29.2070268,13.1061374 29.5448859,13.5591203 29.5448859,14.0910144 C29.5448859,14.1778008 29.5358911,14.2624863 29.5187831,14.3441896 L29.5187831,18.2304631 C29.5187831,18.9092815 28.968492,19.4595726 28.2896736,19.4595726 C27.6108552,19.4595726 27.0605641,18.9092815 27.0605641,18.2304631 L27.0605641,17.0203126 L24.2582918,19.8225849 C23.7782947,20.302582 23.0000656,20.302582 22.5200685,19.8225849 C22.0400714,19.3425878 22.0400714,18.5643587 22.5200685,18.0843616 L25.2843062,15.3201239 Z" mask="url(#icon-21-b)" transform="rotate(-45 25.852 16.519)"/>
      <path fill="#0080FF" d="M29.2843062,22.6534572 L28.1665392,22.6534572 C27.4877207,22.6534572 26.9374297,22.1031662 26.9374297,21.4243478 C26.9374297,20.7455293 27.4877207,20.1952383 28.1665392,20.1952383 L32.1338118,20.1952383 C32.1848559,20.1887787 32.236876,20.1854497 32.2896736,20.1854497 C32.4464384,20.1854497 32.5963486,20.214798 32.7342096,20.2682999 C33.2070268,20.4394708 33.5448859,20.8924537 33.5448859,21.4243478 C33.5448859,21.5111341 33.5358911,21.5958196 33.5187831,21.6775229 L33.5187831,25.5637964 C33.5187831,26.2426149 32.968492,26.7929059 32.2896736,26.7929059 C31.6108552,26.7929059 31.0605641,26.2426149 31.0605641,25.5637964 L31.0605641,24.353646 L28.2582918,27.1559182 C27.7782947,27.6359153 27.0000656,27.6359153 26.5200685,27.1559182 C26.0400714,26.6759211 26.0400714,25.897692 26.5200685,25.4176949 L29.2843062,22.6534572 Z" mask="url(#icon-21-b)" transform="rotate(135 29.852 23.852)"/>
      <path fill="#C7D3E3" d="M36.25,8 L9.66666667,8 L9.66666667,2.66666667 L35.0416667,2.66666667 C35.70625,2.66666667 36.25,3.26666667 36.25,4 L36.25,8 Z" mask="url(#icon-21-b)"/>
    </g>
  </g>
</svg>
