<svg xmlns="http://www.w3.org/2000/svg" xmlns:xlink="http://www.w3.org/1999/xlink" width="64" height="64" viewBox="0 0 64 64">
  <defs>
    <path id="icon-4-a" d="M27.2,30.3333333 C32.2079167,30.3333333 36.2666667,26.2298177 36.2666667,21.1666667 C36.2666667,16.1035156 32.2079167,12 27.2,12 C22.1920833,12 18.1333333,16.1035156 18.1333333,21.1666667 C18.1333333,26.2298177 22.1920833,30.3333333 27.2,30.3333333 Z M27.2,14.2916667 C30.9470833,14.2916667 34,17.3782552 34,21.1666667 C34,24.9550781 30.9470833,28.0416667 27.2,28.0416667 C23.4529167,28.0416667 20.4,24.9550781 20.4,21.1666667 C20.4,17.3782552 23.4529167,14.2916667 27.2,14.2916667 Z M46.4666667,28.0416667 C40.8283333,28.0416667 36.2666667,32.6536458 36.2666667,38.3541667 C36.2666667,44.0546875 40.8283333,48.6666667 46.4666667,48.6666667 C52.105,48.6666667 56.6666667,44.0546875 56.6666667,38.3541667 C56.6666667,32.6536458 52.105,28.0416667 46.4666667,28.0416667 Z M46.4666667,46.375 C42.0891667,46.375 38.5333333,42.7799479 38.5333333,38.3541667 C38.5333333,33.9283854 42.0891667,30.3333333 46.4666667,30.3333333 C50.8441667,30.3333333 54.4,33.9283854 54.4,38.3541667 C54.4,42.7799479 50.8441667,46.375 46.4666667,46.375 Z M36.8475,46.375 L14.7333333,46.375 C14.11,46.375 13.6,45.859375 13.6,45.2291667 L13.6,42.25 C13.6,38.203776 16.85125,34.9166667 20.8533333,34.9166667 C22.2416667,34.9166667 23.6229167,36.0625 27.2,36.0625 C30.77,36.0625 32.1583333,34.9166667 33.5466667,34.9166667 C33.8583333,34.9166667 34.1558333,34.9739583 34.4604167,35.0097656 C34.6658333,34.2434896 34.9491667,33.5058594 35.2891667,32.8040365 C34.7225,32.6966146 34.14875,32.625 33.55375,32.625 C31.5208333,32.625 30.5433333,33.7708333 27.2070833,33.7708333 C23.8708333,33.7708333 22.9004167,32.625 20.8604167,32.625 C15.5975,32.625 11.3333333,36.9361979 11.3333333,42.25 L11.3333333,45.2291667 C11.3333333,47.1269531 12.85625,48.6666667 14.7333333,48.6666667 L39.3054167,48.6666667 C38.3916667,48.014974 37.5558333,47.2486979 36.8475,46.375 Z M50.3129167,37.2083333 L47.6,37.2083333 L47.6,33.3196615 C47.6,32.9401042 47.2883333,32.625 46.9129167,32.625 L46.0204167,32.625 C45.645,32.625 45.3333333,32.9401042 45.3333333,33.3196615 L45.3333333,38.8053385 C45.3333333,39.1848958 45.645,39.5 46.0204167,39.5 L50.3129167,39.5 C50.6883333,39.5 51,39.1848958 51,38.8053385 L51,37.9029948 C51,37.5234375 50.6883333,37.2083333 50.3129167,37.2083333 Z"/>
  </defs>
  <g fill="none" fill-rule="evenodd">
    <circle cx="32" cy="32" r="32" fill="#F0F3F8"/>
    <rect width="64" height="64"/>
    <path fill="#C7D3E3" d="M27.2,14.2916667 C30.9470833,14.2916667 34,17.3782552 34,21.1666667 C34,24.9550781 30.9470833,28.0416667 27.2,28.0416667 C23.4529167,28.0416667 20.4,24.9550781 20.4,21.1666667 C20.4,17.3782552 23.4529167,14.2916667 27.2,14.2916667 Z"/>
    <path fill="#FFF" d="M46.4666667,46.375 C42.0891667,46.375 38.5333333,42.7799479 38.5333333,38.3541667 C38.5333333,33.9283854 42.0891667,30.3333333 46.4666667,30.3333333 C50.8441667,30.3333333 54.4,33.9283854 54.4,38.3541667 C54.4,42.7799479 50.8441667,46.375 46.4666667,46.375 Z"/>
    <mask id="icon-4-b" fill="#fff">
      <use xlink:href="#icon-4-a"/>
    </mask>
    <use fill="#000" fill-rule="nonzero" xlink:href="#icon-4-a"/>
    <g fill="#0080FF" mask="url(#icon-4-b)">
      <rect width="213" height="133" transform="translate(-72.667 -39.333)"/>
    </g>
  </g>
</svg>
