<svg xmlns="http://www.w3.org/2000/svg" xmlns:xlink="http://www.w3.org/1999/xlink" width="64" height="64" viewBox="0 0 64 64">
  <defs>
    <path id="icon-gym-a" d="M41.8888889,18.8299219 L41.8888889,15.0833333 C41.8888889,13.7488802 40.8191146,12.6666667 39.5,12.6666667 L25.1666667,12.6666667 C23.8475521,12.6666667 22.7777778,13.7488802 22.7777778,15.0833333 L22.7777778,18.8299219 C20.0514583,19.3902865 18,21.8273437 18,24.75 L18,39.25 C18,42.1726562 20.0514583,44.6097135 22.7777778,45.1700781 L22.7777778,48.9166667 C22.7777778,50.2511198 23.8475521,51.3333333 25.1666667,51.3333333 L39.5,51.3333333 C40.8191146,51.3333333 41.8888889,50.2511198 41.8888889,48.9166667 L41.8888889,45.1700781 C44.6152083,44.6104687 46.6666667,42.1726562 46.6666667,39.25 L46.6666667,24.75 C46.6666667,21.8273437 44.6152083,19.3902865 41.8888889,18.8299219 Z"/>
  </defs>
  <g fill="none" fill-rule="evenodd">
    <circle cx="32" cy="32" r="32" fill="#F0F3F8"/>
    <rect width="64" height="64"/>
    <mask id="icon-gym-b" fill="#fff">
      <use xlink:href="#icon-gym-a"/>
    </mask>
    <use fill="#000" fill-rule="nonzero" xlink:href="#icon-gym-a"/>
    <g fill="#0080FF" mask="url(#icon-gym-b)">
      <rect width="213" height="133" transform="translate(-72.667 -39.333)"/>
    </g>
    <polygon fill="#C7D3E3" points="25.167 15.083 39.5 15.083 39.5 18.708 25.167 18.708" mask="url(#icon-gym-b)"/>
    <polygon fill="#C7D3E3" points="39.5 48.917 25.167 48.917 25.167 45.292 39.5 45.292" mask="url(#icon-gym-b)"/>
    <path fill="#FFF" d="M44.2777778,39.25 C44.2777778,41.2490365 42.6705035,42.875 40.6944444,42.875 L23.9722222,42.875 C21.9961632,42.875 20.3888889,41.2490365 20.3888889,39.25 L20.3888889,24.75 C20.3888889,22.7509635 21.9961632,21.125 23.9722222,21.125 L40.6944444,21.125 C42.6705035,21.125 44.2777778,22.7509635 44.2777778,24.75 L44.2777778,39.25 Z" mask="url(#icon-gym-b)"/>
    <path fill="#0080FF" d="M36.5452431,25.3549219 C35.3687153,25.3549219 33.9309028,25.8609115 32.3333333,27.4498698 C30.7357639,25.8609115 29.2979514,25.3549219 28.1214236,25.3549219 C26.8918924,25.3549219 25.9482813,25.9069792 25.4055556,26.3533073 C23.2951215,28.0865104 23.1846354,31.1994792 25.0733507,33.0776823 L31.5741146,39.5415104 C31.9929167,39.9583854 32.67375,39.9591406 33.0940451,39.5415104 L39.594809,33.0776823 C41.4835243,31.1994792 41.3722917,28.0865104 39.2618576,26.3533073 C38.7183854,25.9069792 37.7740278,25.3549219 36.5452431,25.3549219 Z" mask="url(#icon-gym-b)"/>
    <path fill="#C7D3E3" d="M37.9196007,31.3542969 L32.3333333,36.9088542 L26.747066,31.3542969 C25.8684028,30.4805208 25.9117014,29.0501563 26.9113021,28.2292448 C27.7399479,27.5480469 28.938125,27.4619531 30.6588715,29.1732552 L32.3333333,30.8392448 L34.0077951,29.1740104 C35.7218229,27.4695052 36.92,27.5442708 37.7553646,28.2307552 C38.7572049,29.0524219 38.7960243,30.4820313 37.9196007,31.3542969 Z" mask="url(#icon-gym-b)"/>
  </g>
</svg>
