<svg xmlns="http://www.w3.org/2000/svg" xmlns:xlink="http://www.w3.org/1999/xlink" width="64" height="64" viewBox="0 0 64 64">
  <defs>
    <path id="icon-hardware-a" d="M53.5333333,39.1333333 L50.1333333,39.1333333 L50.1333333,19.8666667 C50.1333333,17.36625 48.099,15.3333333 45.6,15.3333333 L18.4,15.3333333 C15.901,15.3333333 13.8666667,17.36625 13.8666667,19.8666667 L13.8666667,39.1333333 L10.4666667,39.1333333 C9.8405,39.1333333 9.33333333,39.6405 9.33333333,40.2666667 L9.33333333,43.6666667 C9.33333333,46.791125 11.8748333,49.3333333 15,49.3333333 L49,49.3333333 C52.1251667,49.3333333 54.6666667,46.791125 54.6666667,43.6666667 L54.6666667,40.2666667 C54.6666667,39.6405 54.1595,39.1333333 53.5333333,39.1333333 Z"/>
  </defs>
  <g fill="none" fill-rule="evenodd">
    <circle cx="32" cy="32" r="32" fill="#F0F3F8"/>
    <rect width="64" height="64"/>
    <mask id="icon-hardware-b" fill="#fff">
      <use xlink:href="#icon-hardware-a"/>
    </mask>
    <use fill="#0080FF" fill-rule="nonzero" xlink:href="#icon-hardware-a"/>
    <path fill="#C7D3E3" d="M52.4,43.6666667 C52.4,45.541625 50.8749583,47.0666667 49,47.0666667 L15,47.0666667 C13.1250417,47.0666667 11.6,45.541625 11.6,43.6666667 L11.6,41.4 L25.3947917,41.4 C25.8615833,42.7189167 27.1217083,43.6666667 28.6,43.6666667 L35.4,43.6666667 C36.879,43.6666667 38.1384167,42.7189167 38.6052083,41.4 L52.4,41.4 L52.4,43.6666667 Z" mask="url(#icon-hardware-b)"/>
    <path fill="#FFF" d="M16.1333333,19.8666667 C16.1333333,18.6150417 17.148375,17.6 18.4,17.6 L45.6,17.6 C46.851625,17.6 47.8666667,18.6150417 47.8666667,19.8666667 L47.8666667,39.1333333 L37.038375,39.1333333 C36.7507917,39.1333333 36.541125,39.3550417 36.477375,39.6355417 C36.2485833,40.645625 35.3454583,41.4 34.2666667,41.4 L29.7333333,41.4 C28.6545417,41.4 27.7514167,40.645625 27.522625,39.6355417 C27.458875,39.3550417 27.2492083,39.1333333 26.961625,39.1333333 L16.1333333,39.1333333 L16.1333333,19.8666667 Z" mask="url(#icon-hardware-b)"/>
    <path fill="#0080FF" d="M28.1990833 32.7335417L29.0002083 31.9324167C29.2212083 31.7114167 29.2212083 31.3522917 29.0002083 31.1312917L25.6689167 27.8 29.0002083 24.4687083C29.2212083 24.2477083 29.2212083 23.8885833 29.0002083 23.6675833L28.1990833 22.8664583C27.9780833 22.6454583 27.6189583 22.6454583 27.3979583 22.8664583L22.864625 27.3997917C22.643625 27.6207917 22.643625 27.9799167 22.864625 28.2009167L27.3979583 32.73425C27.6196667 32.95525 27.9780833 32.95525 28.1990833 32.7335417zM34.9990833 31.9324167L35.8002083 32.7335417C36.0212083 32.9545417 36.3803333 32.9545417 36.6013333 32.7335417L41.1346667 28.2002083C41.3556667 27.9792083 41.3556667 27.6200833 41.1346667 27.3990833L36.6013333 22.86575C36.3803333 22.64475 36.0212083 22.64475 35.8002083 22.86575L34.9990833 23.666875C34.7780833 23.887875 34.7780833 24.247 34.9990833 24.468L38.3310833 27.8 34.9997917 31.1312917C34.8934033 31.2374023 34.8335527 31.3814478 34.8334198 31.5317074 34.833287 31.6819669 34.8928827 31.8261181 34.9990833 31.9324167z" mask="url(#icon-hardware-b)"/>
  </g>
</svg>
