<svg xmlns="http://www.w3.org/2000/svg" xmlns:xlink="http://www.w3.org/1999/xlink" width="64" height="64" viewBox="0 0 64 64">
  <defs>
    <path id="icon-managed-a" d="M51.3333333,23.7471264 C51.3333333,24.6834598 50.9837474,25.537171 50.4095625,26.183908 C50.9837474,26.8306451 51.3333333,27.6843563 51.3333333,28.6206897 L51.3333333,34.7126437 C51.3333333,35.648977 50.9837474,36.5026882 50.4095625,37.1494253 C50.9837474,37.7961624 51.3333333,38.6498736 51.3333333,39.5862069 L51.3333333,45.6781609 C51.3333333,47.6968822 49.7103906,49.3333333 47.7083333,49.3333333 L16.2916667,49.3333333 C14.2896094,49.3333333 12.6666667,47.6968822 12.6666667,45.6781609 L12.6666667,39.5862069 C12.6666667,38.6498736 13.0162526,37.7961624 13.5904375,37.1494253 C13.0162526,36.5026882 12.6666667,35.648977 12.6666667,34.7126437 L12.6666667,28.6206897 C12.6666667,27.6843563 13.0162526,26.8306451 13.5904375,26.183908 C13.0162526,25.537171 12.6666667,24.6834598 12.6666667,23.7471264 L12.6666667,17.6551724 C12.6666667,15.6364511 14.2896094,14 16.2916667,14 L47.7083333,14 C49.7103906,14 51.3333333,15.6364511 51.3333333,17.6551724 L51.3333333,23.7471264 Z"/>
  </defs>
  <g fill="none" fill-rule="evenodd">
    <circle cx="32" cy="32" r="32" fill="#F0F3F8"/>
    <rect width="64" height="64"/>
    <mask id="icon-managed-b" fill="#fff">
      <use xlink:href="#icon-managed-a"/>
    </mask>
    <use fill="#000" fill-rule="nonzero" xlink:href="#icon-managed-a"/>
    <g fill="#0080FF" mask="url(#icon-managed-b)">
      <rect width="213" height="133" transform="translate(-72.667 -39.333)"/>
    </g>
    <path fill="#FFF" d="M15.0833333 23.7471264C15.0833333 24.4189167 15.6254219 24.9655172 16.2916667 24.9655172L47.7083333 24.9655172C48.3745781 24.9655172 48.9166667 24.4189167 48.9166667 23.7471264L48.9166667 17.6551724C48.9166667 16.9833822 48.3745781 16.4367816 47.7083333 16.4367816L16.2916667 16.4367816C15.6254219 16.4367816 15.0833333 16.9833822 15.0833333 17.6551724L15.0833333 23.7471264zM47.7083333 27.4022989L16.2916667 27.4022989C15.6254219 27.4022989 15.0833333 27.9488994 15.0833333 28.6206897L15.0833333 34.7126437C15.0833333 35.3844339 15.6254219 35.9310345 16.2916667 35.9310345L47.7083333 35.9310345C48.3745781 35.9310345 48.9166667 35.3844339 48.9166667 34.7126437L48.9166667 28.6206897C48.9166667 27.9488994 48.3745781 27.4022989 47.7083333 27.4022989zM48.9166667 39.5862069C48.9166667 38.9144167 48.3745781 38.3678161 47.7083333 38.3678161L16.2916667 38.3678161C15.6254219 38.3678161 15.0833333 38.9144167 15.0833333 39.5862069L15.0833333 45.6781609C15.0833333 46.3499511 15.6254219 46.8965517 16.2916667 46.8965517L47.7083333 46.8965517C48.3745781 46.8965517 48.9166667 46.3499511 48.9166667 45.6781609L48.9166667 39.5862069z" mask="url(#icon-managed-b)"/>
    <path fill="#0080FF" d="M41.0625 31.6666667C41.0625 30.657306 41.8739714 29.8390805 42.875 29.8390805 43.8760286 29.8390805 44.6875 30.657306 44.6875 31.6666667 44.6875 32.6760273 43.8760286 33.4942529 42.875 33.4942529 41.8739714 33.4942529 41.0625 32.6760273 41.0625 31.6666667zM38.0416667 33.4942529C39.0426953 33.4942529 39.8541667 32.6760273 39.8541667 31.6666667 39.8541667 30.657306 39.0426953 29.8390805 38.0416667 29.8390805 37.040638 29.8390805 36.2291667 30.657306 36.2291667 31.6666667 36.2291667 32.6760273 37.040638 33.4942529 38.0416667 33.4942529zM42.875 22.5287356C43.8760286 22.5287356 44.6875 21.7105101 44.6875 20.7011494 44.6875 19.6917888 43.8760286 18.8735632 42.875 18.8735632 41.8739714 18.8735632 41.0625 19.6917888 41.0625 20.7011494 41.0625 21.7105101 41.8739714 22.5287356 42.875 22.5287356zM38.0416667 22.5287356C39.0426953 22.5287356 39.8541667 21.7105101 39.8541667 20.7011494 39.8541667 19.6917888 39.0426953 18.8735632 38.0416667 18.8735632 37.040638 18.8735632 36.2291667 19.6917888 36.2291667 20.7011494 36.2291667 21.7105101 37.040638 22.5287356 38.0416667 22.5287356zM42.875 40.8045977C41.8739714 40.8045977 41.0625 41.6228233 41.0625 42.6321839 41.0625 43.6415445 41.8739714 44.4597701 42.875 44.4597701 43.8760286 44.4597701 44.6875 43.6415445 44.6875 42.6321839 44.6875 41.6228233 43.8760286 40.8045977 42.875 40.8045977zM38.0416667 40.8045977C37.040638 40.8045977 36.2291667 41.6228233 36.2291667 42.6321839 36.2291667 43.6415445 37.040638 44.4597701 38.0416667 44.4597701 39.0426953 44.4597701 39.8541667 43.6415445 39.8541667 42.6321839 39.8541667 41.6228233 39.0426953 40.8045977 38.0416667 40.8045977z" mask="url(#icon-managed-b)"/>
  </g>
</svg>
