<svg xmlns="http://www.w3.org/2000/svg" xmlns:xlink="http://www.w3.org/1999/xlink" width="64" height="64" viewBox="0 0 64 64">
  <defs>
    <path id="icon-9-a" d="M39.3333333,33.3333333 L34.6666667,33.3333333 L34.6666667,28.6666667 C34.6666667,28.3 34.3666667,28 34,28 L30,28 C29.6333333,28 29.3333333,28.3 29.3333333,28.6666667 L29.3333333,33.3333333 L24.6666667,33.3333333 C24.3,33.3333333 24,33.6333333 24,34 L24,38 C24,38.3666667 24.3,38.6666667 24.6666667,38.6666667 L29.3333333,38.6666667 L29.3333333,43.3333333 C29.3333333,43.7 29.6333333,44 30,44 L34,44 C34.3666667,44 34.6666667,43.7 34.6666667,43.3333333 L34.6666667,38.6666667 L39.3333333,38.6666667 C39.7,38.6666667 40,38.3666667 40,38 L40,34 C40,33.6333333 39.7,33.3333333 39.3333333,33.3333333 Z M49.3333333,20 L40,20 L40,14 C40,12.8916667 39.1083333,12 38,12 L26,12 C24.8916667,12 24,12.8916667 24,14 L24,20 L14.6666667,20 C12.4583333,20 10.6666667,21.7916667 10.6666667,24 L10.6666667,48 C10.6666667,50.2083333 12.4583333,52 14.6666667,52 L49.3333333,52 C51.5416667,52 53.3333333,50.2083333 53.3333333,48 L53.3333333,24 C53.3333333,21.7916667 51.5416667,20 49.3333333,20 Z M26.6666667,14.6666667 L37.3333333,14.6666667 L37.3333333,20 L26.6666667,20 L26.6666667,14.6666667 Z M50.6666667,48 C50.6666667,48.7333333 50.0666667,49.3333333 49.3333333,49.3333333 L14.6666667,49.3333333 C13.9333333,49.3333333 13.3333333,48.7333333 13.3333333,48 L13.3333333,24 C13.3333333,23.2666667 13.9333333,22.6666667 14.6666667,22.6666667 L49.3333333,22.6666667 C50.0666667,22.6666667 50.6666667,23.2666667 50.6666667,24 L50.6666667,48 Z"/>
  </defs>
  <g fill="none" fill-rule="evenodd">
    <circle cx="32" cy="32" r="32" fill="#F0F3F8"/>
    <rect width="64" height="64"/>
    <path fill="#FFF" d="M50.6666667,48 C50.6666667,48.7333333 50.0666667,49.3333333 49.3333333,49.3333333 L14.6666667,49.3333333 C13.9333333,49.3333333 13.3333333,48.7333333 13.3333333,48 L13.3333333,24 C13.3333333,23.2666667 13.9333333,22.6666667 14.6666667,22.6666667 L49.3333333,22.6666667 C50.0666667,22.6666667 50.6666667,23.2666667 50.6666667,24 L50.6666667,48 Z"/>
    <mask id="icon-9-b" fill="#fff">
      <use xlink:href="#icon-9-a"/>
    </mask>
    <use fill="#000" fill-rule="nonzero" xlink:href="#icon-9-a"/>
    <g fill="#0080FF" mask="url(#icon-9-b)">
      <rect width="213" height="133" transform="translate(-72.667 -39.333)"/>
    </g>
  </g>
</svg>
