<svg xmlns="http://www.w3.org/2000/svg" xmlns:xlink="http://www.w3.org/1999/xlink" width="64" height="64" viewBox="0 0 64 64">
  <defs>
    <path id="icon-socialevents-a" d="M46.6666667,14.6666667 L42.6666667,14.6666667 L42.6666667,10.3333333 C42.6666667,9.78108333 42.2189167,9.33333333 41.6666667,9.33333333 L41,9.33333333 C40.44775,9.33333333 40,9.78108333 40,10.3333333 L40,14.6666667 L24,14.6666667 L24,10.3333333 C24,9.78108333 23.55225,9.33333333 23,9.33333333 L22.3333333,9.33333333 C21.7810833,9.33333333 21.3333333,9.78108333 21.3333333,10.3333333 L21.3333333,14.6666667 L17.3333333,14.6666667 C15.1241667,14.6666667 13.3333333,16.4575 13.3333333,18.6666667 L13.3333333,48 C13.3333333,50.2091667 15.1241667,52 17.3333333,52 L46.6666667,52 C48.8758333,52 50.6666667,50.2091667 50.6666667,48 L50.6666667,18.6666667 C50.6666667,16.4575 48.8758333,14.6666667 46.6666667,14.6666667 Z"/>
  </defs>
  <g fill="none" fill-rule="evenodd">
    <circle cx="32" cy="32" r="32" fill="#F0F3F8"/>
    <rect width="64" height="64"/>
    <mask id="icon-socialevents-b" fill="#fff">
      <use xlink:href="#icon-socialevents-a"/>
    </mask>
    <use fill="#000" fill-rule="nonzero" xlink:href="#icon-socialevents-a"/>
    <g fill="#0080FF" mask="url(#icon-socialevents-b)">
      <rect width="213" height="133" transform="translate(-72.667 -39.333)"/>
    </g>
    <path fill="#C7D3E3" d="M17.3333333,17.3333333 L46.6666667,17.3333333 C47.4018333,17.3333333 48,17.9315 48,18.6666667 L48,22.6666667 L16,22.6666667 L16,18.6666667 C16,17.9315 16.5981667,17.3333333 17.3333333,17.3333333 Z" mask="url(#icon-socialevents-b)"/>
    <path fill="#FFF" d="M46.6666667,49.3333333 L17.3333333,49.3333333 C16.5981667,49.3333333 16,48.7351667 16,48 L16,25.3333333 L48,25.3333333 L48,48 C48,48.7351667 47.4018333,49.3333333 46.6666667,49.3333333 Z" mask="url(#icon-socialevents-b)"/>
  </g>
</svg>
