<?xml version="1.0" encoding="utf-8"?>
<!-- Generator: Adobe Illustrator 16.0.0, SVG Export Plug-In . SVG Version: 6.00 Build 0)  -->
<!DOCTYPE svg PUBLIC "-//W3C//DTD SVG 1.1//EN" "http://www.w3.org/Graphics/SVG/1.1/DTD/svg11.dtd">
<svg version="1.1" id="Capa_1" xmlns="http://www.w3.org/2000/svg" xmlns:xlink="http://www.w3.org/1999/xlink" x="0px" y="0px"
	 width="115.121px" height="115.121px" viewBox="0 0 115.121 115.121" enable-background="new 0 0 115.121 115.121"
	 xml:space="preserve">
<g>
	<g>
		<polygon fill="#1778C1" points="75.348,83.748 76.505,86.236 77.666,83.748 		"/>
		<polygon fill="#1778C1" points="38.758,83.748 39.917,86.236 41.08,83.748 		"/>
		<polygon fill="#1778C1" points="19.812,89.689 20.971,92.178 22.131,89.689 		"/>
		<polygon fill="#1778C1" points="56.401,89.689 57.561,92.178 58.723,89.689 		"/>
		<polygon fill="#1778C1" points="92.988,89.689 94.146,92.178 95.309,89.689 		"/>
		<path fill="#1778C1" d="M115.032,99.643l-1.294-5.574c-0.146-0.623-0.456-1.194-0.903-1.651c-0.649-0.666-1.421-1.233-2.313-1.698
			c-2.623-1.345-5.272-2.447-7.652-3.379l-0.053-0.164c-0.082-0.275-0.25-0.836-0.639-1.433c-0.002-0.119-0.003-0.231,0.002-0.319
			c0.248-0.339,0.387-0.646,0.451-0.806c0.293-0.653,0.475-1.285,0.621-1.795c0.102-0.351,0.239-0.83,0.334-0.968l-0.002-0.002
			c0.337-0.498,0.562-1.119,0.623-1.701l0.029-0.301c0.074-0.697,0.146-1.389,0.213-2.17c0.047-0.758-0.146-1.502-0.516-2.141
			l-0.002-2.365c0-2.469-1.133-4.004-2.082-4.859c-0.231-0.209-0.468-0.418-0.703-0.623c0.019-0.745-0.193-1.506-0.646-2.151
			c-0.646-1-1.838-1.604-3.025-1.604c-0.392-0.017-0.771-0.01-1.164,0.053l-0.391,0.062c-0.779,0.121-1.586,0.248-2.436,0.445
			c-0.814,0.192-1.69,0.437-2.577,0.772V53.163v-3.199V23.941L74.695,42.95v15.903c-1.557,0.441-3.232,1.111-4.76,2.371
			c-0.679,0.56-2.74,2.258-2.965,5.262c-0.043,0.595-0.049,1.193-0.052,1.791l-0.003,1.023c-0.137,0.211-0.248,0.443-0.344,0.688
			c-0.273-0.507-0.592-0.927-0.908-1.271v-1.396V46.883l-6.989-2.043l-9.223,13.703v6.57v0.246
			c-0.384-1.402-1.151-2.375-1.831-2.984c-0.229-0.205-0.458-0.408-0.69-0.611c0.015-0.535-0.096-1.076-0.327-1.58
			c0.02-0.026,0.045-0.049,0.063-0.076l11.45-17.009l10.592,3.096c0.656,0.189,1.364-0.018,1.811-0.539l26.748-31.359
			c0.621-0.729,0.535-1.826-0.192-2.449c-0.729-0.621-1.827-0.535-2.45,0.195l-26.02,30.502l-10.732-3.136
			c-0.727-0.215-1.507,0.068-1.929,0.697L44.942,56.452l-9.857-9.506c-0.634-0.611-1.627-0.65-2.309-0.092L19.458,57.796
			c-0.74,0.61-0.848,1.704-0.238,2.444c0.343,0.418,0.841,0.635,1.344,0.635c0.388,0,0.777-0.129,1.102-0.396l12.121-9.96
			l7.874,7.595l-0.057,0.008c-0.628,0.1-1.28,0.209-1.954,0.352l-6.129-5.91l-7.922,6.51v2.437v2.67
			c-0.415-0.158-0.858-0.242-1.302-0.242c-0.391-0.019-0.769-0.01-1.164,0.053l-0.388,0.062c-0.78,0.121-1.587,0.248-2.436,0.445
			c-1.852,0.438-4.002,1.099-5.909,2.672c-0.678,0.56-2.738,2.258-2.966,5.271c-0.041,0.588-0.047,1.182-0.05,1.771L11.38,75.25
			c-0.498,0.783-0.748,1.795-0.552,3.012c-0.013-0.07-0.022-0.141-0.024-0.15c0.007,0.22,0.019,0.587,0.119,1.041
			c0.144,0.642,0.321,1.398,0.542,2.15c0.091,0.314,0.211,0.623,0.338,0.93c0.023,0.058,0.049,0.113,0.07,0.172
			c0.187,1.107,0.561,2.121,1.11,3.021c-0.359,0.457-0.672,1.043-0.896,1.797c-0.018,0.06-0.035,0.113-0.052,0.168
			c-0.13,0.053-0.26,0.105-0.39,0.16c-0.371,0.152-0.743,0.305-1.112,0.459l-0.685,0.287c-0.764,0.316-1.526,0.633-2.288,0.994
			c-0.812,0.389-1.605,0.814-2.399,1.244l-0.529,0.283c-0.913,0.486-1.625,0.982-2.237,1.561c-0.502,0.471-0.853,1.08-1.01,1.75
			l-1.293,5.508c-0.244,1.041,0,2.135,0.664,2.973c0.664,0.839,1.674,1.326,2.743,1.326c2.442,0,4.313,0.935,6.684,2.115
			c2.501,1.248,5.336,2.662,9.155,2.99c0.101,0.008,0.201,0.012,0.301,0.012c0.006,0,0.013,0,0.019,0
			c0.519,0,1.011-0.111,1.453-0.314c0.57,0.218,1.201,0.287,1.827,0.186c2.569-0.431,5.575-1.609,8.482-2.75
			c2.54-0.996,5.7-2.236,7.023-2.236c0.28,0,0.556-0.037,0.822-0.103c0.268,0.063,0.543,0.103,0.823,0.103
			c2.442,0,4.313,0.936,6.684,2.115c2.501,1.248,5.336,2.662,9.155,2.989c0.101,0.009,0.201,0.013,0.301,0.013
			c0.006,0,0.013,0,0.019,0c0.519,0,1.011-0.111,1.453-0.312c0.571,0.217,1.2,0.285,1.827,0.184c2.568-0.43,5.574-1.609,8.481-2.75
			c2.54-0.996,5.7-2.236,7.023-2.236c0.278,0,0.555-0.037,0.819-0.102c0.269,0.062,0.541,0.102,0.821,0.102
			c2.442,0,4.312,0.935,6.685,2.115c2.5,1.248,5.336,2.662,9.156,2.99c0.102,0.008,0.2,0.012,0.301,0.012c0.006,0,0.013,0,0.02,0
			c0.52,0,1.012-0.111,1.453-0.313c0.568,0.217,1.197,0.286,1.824,0.185c2.57-0.431,5.576-1.609,8.482-2.75
			c2.54-0.996,5.7-2.236,7.023-2.236c1.066,0,2.074-0.484,2.738-1.32S115.271,100.684,115.032,99.643z M22.363,105.668l2.352-3.25
			l-3.744-10.24l-3.745,10.24l2.414,3.334c-6.553-0.562-9.841-5.117-16.139-5.117l1.293-5.508c0.426-0.4,0.938-0.729,1.484-1.02
			c0.929-0.498,1.851-1.01,2.799-1.465c0.921-0.437,1.873-0.812,2.815-1.209c0.886-0.373,1.782-0.728,2.66-1.105
			c0.152-0.07,0.307-0.229,0.367-0.381c0.197-0.492,0.363-1,0.518-1.51c0.118-0.387,0.194-0.769,0.689-0.865
			c0.124-0.029,0.274-0.246,0.295-0.391c0.102-0.74,0.177-1.482,0.229-2.228c0.012-0.16-0.069-0.362-0.176-0.483
			c-0.654-0.73-1.016-1.572-1.163-2.539c-0.077-0.482-0.347-0.935-0.485-1.41c-0.188-0.639-0.342-1.291-0.487-1.938
			c-0.052-0.234-0.021-0.486-0.063-0.729c-0.057-0.353-0.045-0.617,0.374-0.756c0.12-0.037,0.213-0.314,0.219-0.482
			c0.022-1.037,0.006-0.783,0.013-1.824c0.006-0.637,0-1.277,0.044-1.914c0.092-1.215,0.807-2.074,1.7-2.812
			c1.308-1.078,2.874-1.586,4.487-1.967c0.844-0.195,1.707-0.318,2.568-0.457c0.228-0.035,0.465-0.006,0.699-0.006
			c0.039,0.062,0.078,0.119,0.119,0.178c-0.182,0.133-0.379,0.242-0.536,0.396c-0.353,0.352-0.317,0.596,0.056,0.91
			c0.778,0.656,1.556,1.314,2.313,1.996c0.664,0.599,0.922,1.377,0.922,2.258c0.003,1.514,0.003,1.732,0.003,3.244
			c-0.003,0.311-0.022,0.617,0.36,0.752c0.083,0.029,0.166,0.199,0.16,0.295c-0.067,0.775-0.149,1.545-0.23,2.32
			c-0.004,0.029-0.008,0.063-0.025,0.086c-0.697,1.017-0.782,2.264-1.282,3.353c-0.019,0.041-0.031,0.089-0.059,0.123
			c-0.925,1.086-0.636,2.394-0.657,3.638c0,0.129,0.092,0.323,0.194,0.369c0.375,0.168,0.467,0.488,0.569,0.834
			c0.167,0.534,0.327,1.077,0.559,1.59c0.088,0.185,0.341,0.349,0.552,0.427c2.835,1.09,5.64,2.239,8.348,3.629
			c0.542,0.28,1.009,0.621,1.405,1.026l1.293,5.573C34.75,100.635,27.135,104.871,22.363,105.668z M39.917,86.236l-2.324,6.354
			c-0.337-0.25-0.697-0.479-1.084-0.68c-2.838-1.455-5.692-2.615-8.164-3.57c-0.079-0.225-0.147-0.452-0.218-0.68l-0.055-0.175
			c-0.05-0.166-0.128-0.409-0.256-0.68c0.07-0.033,0.137-0.07,0.208-0.104c0.92-0.438,1.873-0.813,2.814-1.211
			c0.886-0.373,1.782-0.728,2.661-1.106c0.151-0.068,0.306-0.228,0.367-0.382c0.196-0.491,0.362-1,0.517-1.508
			c0.119-0.388,0.194-0.767,0.689-0.867c0.124-0.028,0.274-0.245,0.295-0.389c0.102-0.74,0.178-1.483,0.229-2.228
			c0.012-0.16-0.069-0.363-0.176-0.484c-0.653-0.73-1.016-1.571-1.163-2.538c-0.077-0.483-0.347-0.935-0.485-1.41
			c-0.188-0.64-0.342-1.289-0.486-1.938c-0.053-0.232-0.021-0.484-0.063-0.728c-0.058-0.351-0.044-0.619,0.375-0.756
			c0.118-0.037,0.211-0.315,0.217-0.481c0.022-1.039,0.008-0.785,0.013-1.826c0.006-0.637,0-1.275,0.046-1.912
			c0.09-1.217,0.805-2.074,1.698-2.812c1.308-1.08,2.874-1.586,4.487-1.967c0.844-0.197,1.708-0.317,2.568-0.457
			c0.228-0.035,0.465-0.006,0.7-0.006c0.038,0.062,0.077,0.119,0.118,0.178c-0.182,0.131-0.379,0.242-0.536,0.396
			c-0.353,0.35-0.317,0.594,0.056,0.91c0.778,0.657,1.556,1.313,2.313,1.995c0.664,0.599,0.922,1.377,0.922,2.259
			c0.003,1.512,0.003,1.731,0.003,3.243c-0.003,0.31-0.022,0.617,0.36,0.753c0.083,0.028,0.167,0.2,0.16,0.297
			c-0.066,0.772-0.149,1.543-0.23,2.317c-0.004,0.029-0.008,0.063-0.025,0.086c-0.697,1.017-0.782,2.265-1.281,3.353
			c-0.02,0.041-0.031,0.088-0.06,0.123c-0.925,1.086-0.635,2.393-0.657,3.637c0,0.129,0.092,0.324,0.194,0.371
			c0.375,0.166,0.467,0.488,0.569,0.832c0.168,0.535,0.327,1.078,0.559,1.592c0.088,0.186,0.341,0.347,0.552,0.427
			c1.427,0.547,2.845,1.108,4.247,1.713c-0.418,0.503-0.602,1.063-0.692,1.364c-0.084,0.277-0.171,0.557-0.269,0.832
			c-0.337,0.143-0.676,0.279-1.015,0.42l-1.777,0.736c-0.746,0.312-1.491,0.619-2.229,0.969c-0.785,0.377-1.553,0.789-2.32,1.203
			l-0.313,0.17L39.917,86.236z M58.954,105.668l2.353-3.25l-3.745-10.24l-3.745,10.24l2.414,3.334
			c-6.553-0.562-9.841-5.117-16.139-5.117l1.293-5.508c0.427-0.4,0.938-0.729,1.484-1.02c0.93-0.498,1.852-1.01,2.799-1.465
			c0.921-0.437,1.873-0.812,2.815-1.209c0.886-0.373,1.782-0.728,2.662-1.105c0.15-0.07,0.305-0.229,0.365-0.381
			c0.197-0.492,0.363-1,0.518-1.51c0.118-0.387,0.194-0.769,0.689-0.865c0.124-0.029,0.273-0.246,0.295-0.391
			c0.102-0.74,0.177-1.482,0.229-2.228c0.013-0.16-0.069-0.362-0.176-0.483c-0.653-0.73-1.016-1.572-1.163-2.539
			c-0.077-0.482-0.347-0.935-0.484-1.41c-0.188-0.639-0.343-1.291-0.488-1.938c-0.052-0.234-0.021-0.486-0.063-0.729
			c-0.057-0.353-0.044-0.617,0.376-0.756c0.118-0.037,0.211-0.314,0.217-0.482c0.022-1.037,0.008-0.783,0.013-1.824
			c0.006-0.637,0-1.277,0.046-1.914c0.09-1.215,0.805-2.074,1.698-2.812c1.308-1.078,2.873-1.586,4.487-1.967
			c0.843-0.195,1.708-0.318,2.567-0.457c0.229-0.035,0.465-0.006,0.701-0.006c0.037,0.062,0.077,0.119,0.117,0.178
			c-0.183,0.133-0.379,0.242-0.535,0.396c-0.353,0.352-0.318,0.596,0.055,0.91c0.779,0.656,1.558,1.314,2.313,1.996
			c0.664,0.599,0.923,1.377,0.923,2.258c0.002,1.514,0.002,1.732,0.002,3.244c-0.002,0.311-0.021,0.617,0.36,0.752
			c0.083,0.029,0.168,0.199,0.159,0.295c-0.066,0.775-0.148,1.545-0.229,2.32c-0.005,0.029-0.009,0.063-0.025,0.086
			c-0.696,1.017-0.781,2.264-1.28,3.353c-0.021,0.041-0.032,0.089-0.062,0.123c-0.924,1.086-0.635,2.394-0.654,3.638
			c0,0.129,0.091,0.323,0.191,0.369c0.377,0.168,0.467,0.488,0.569,0.834c0.167,0.534,0.328,1.077,0.56,1.59
			c0.088,0.185,0.34,0.349,0.551,0.427c2.837,1.09,5.642,2.239,8.352,3.629c0.54,0.28,1.008,0.621,1.403,1.026l1.293,5.573
			C71.341,100.635,63.725,104.871,58.954,105.668z M76.505,86.236l-2.323,6.354c-0.334-0.25-0.693-0.479-1.08-0.679
			c-2.84-1.455-5.692-2.614-8.166-3.569c-0.08-0.229-0.149-0.466-0.224-0.697l-0.051-0.16c-0.05-0.162-0.126-0.406-0.254-0.676
			c0.067-0.033,0.136-0.068,0.204-0.104c0.921-0.438,1.873-0.812,2.813-1.211c0.888-0.373,1.783-0.727,2.661-1.105
			c0.15-0.068,0.307-0.229,0.367-0.382c0.195-0.491,0.361-1,0.518-1.509c0.118-0.387,0.194-0.766,0.688-0.866
			c0.124-0.028,0.272-0.246,0.296-0.39c0.102-0.74,0.177-1.483,0.229-2.227c0.012-0.16-0.067-0.363-0.176-0.484
			c-0.652-0.731-1.015-1.572-1.162-2.539c-0.076-0.483-0.348-0.934-0.486-1.41c-0.188-0.639-0.342-1.289-0.484-1.938
			c-0.052-0.233-0.021-0.485-0.062-0.729c-0.059-0.35-0.045-0.618,0.375-0.756c0.117-0.037,0.211-0.314,0.217-0.48
			c0.021-1.039,0.009-0.785,0.014-1.826c0.006-0.638,0-1.276,0.046-1.912c0.091-1.217,0.806-2.075,1.698-2.813
			c1.309-1.079,2.874-1.586,4.486-1.967c0.845-0.197,1.707-0.317,2.568-0.457c0.229-0.035,0.465-0.006,0.699-0.006
			c0.039,0.062,0.077,0.118,0.118,0.178c-0.183,0.132-0.38,0.242-0.536,0.396c-0.354,0.351-0.316,0.595,0.057,0.91
			c0.777,0.658,1.555,1.314,2.313,1.996c0.664,0.598,0.923,1.377,0.923,2.258c0.002,1.513,0.002,1.732,0.002,3.244
			c-0.002,0.31-0.021,0.617,0.359,0.752c0.082,0.029,0.166,0.201,0.16,0.297c-0.065,0.773-0.148,1.543-0.229,2.318
			c-0.004,0.029-0.008,0.062-0.024,0.086c-0.697,1.016-0.783,2.264-1.281,3.352c-0.021,0.041-0.03,0.089-0.061,0.123
			c-0.925,1.086-0.634,2.394-0.656,3.638c0,0.129,0.092,0.323,0.193,0.371c0.375,0.166,0.467,0.487,0.568,0.832
			c0.169,0.534,0.326,1.077,0.56,1.592c0.089,0.185,0.341,0.347,0.554,0.427c1.426,0.547,2.844,1.108,4.246,1.713
			c-0.42,0.502-0.604,1.063-0.69,1.364c-0.085,0.276-0.173,0.556-0.271,0.83c-0.341,0.146-0.685,0.285-1.025,0.427l-1.768,0.731
			c-0.746,0.312-1.49,0.618-2.227,0.969c-0.794,0.382-1.57,0.798-2.348,1.218l-0.289,0.155L76.505,86.236z M95.541,105.668
			l2.352-3.25l-3.744-10.24l-3.744,10.24l2.414,3.334c-6.553-0.562-9.842-5.117-16.139-5.117l1.293-5.508
			c0.426-0.4,0.938-0.729,1.484-1.02c0.928-0.498,1.85-1.01,2.799-1.465c0.92-0.437,1.873-0.812,2.812-1.209
			c0.888-0.373,1.783-0.728,2.66-1.105c0.152-0.07,0.309-0.229,0.367-0.381c0.197-0.492,0.363-1,0.52-1.51
			c0.117-0.387,0.193-0.769,0.688-0.865c0.124-0.029,0.274-0.246,0.295-0.391c0.104-0.74,0.178-1.482,0.229-2.228
			c0.012-0.16-0.069-0.362-0.177-0.483c-0.652-0.73-1.016-1.572-1.164-2.539c-0.075-0.482-0.346-0.935-0.483-1.41
			c-0.188-0.639-0.342-1.291-0.487-1.938c-0.052-0.234-0.021-0.486-0.062-0.729c-0.058-0.353-0.043-0.617,0.376-0.756
			c0.117-0.037,0.211-0.314,0.217-0.482c0.021-1.037,0.008-0.783,0.014-1.824c0.006-0.637,0-1.277,0.045-1.914
			c0.09-1.215,0.807-2.074,1.699-2.812c1.307-1.078,2.873-1.586,4.486-1.967c0.844-0.195,1.708-0.318,2.568-0.457
			c0.228-0.035,0.465-0.006,0.699-0.006c0.039,0.062,0.076,0.119,0.117,0.178c-0.182,0.133-0.379,0.242-0.535,0.396
			c-0.354,0.352-0.316,0.596,0.057,0.91c0.777,0.656,1.556,1.314,2.312,1.996c0.664,0.599,0.922,1.377,0.922,2.258
			c0.004,1.514,0.004,1.732,0.004,3.244c-0.004,0.311-0.021,0.617,0.359,0.752c0.083,0.029,0.166,0.199,0.16,0.295
			c-0.066,0.775-0.148,1.545-0.23,2.32c-0.004,0.029-0.008,0.063-0.023,0.086c-0.697,1.017-0.782,2.264-1.281,3.353
			c-0.021,0.041-0.031,0.089-0.061,0.123c-0.926,1.086-0.635,2.394-0.656,3.638c0,0.129,0.092,0.323,0.193,0.369
			c0.375,0.168,0.467,0.488,0.568,0.834c0.168,0.534,0.327,1.077,0.559,1.59c0.088,0.185,0.343,0.349,0.555,0.427
			c2.834,1.09,5.639,2.239,8.349,3.629c0.54,0.28,1.007,0.621,1.403,1.026l1.293,5.573
			C107.928,100.635,100.312,104.871,95.541,105.668z"/>
		<path fill="#1778C1" d="M90.909,7.107c0-0.574-0.468-1.041-1.042-1.041H75.738c-0.574,0-1.043,0.467-1.043,1.041v10.168v14.967
			l16.214-19.006V7.107z"/>
		<path fill="#1778C1" d="M58.186,37.458l7.479,2.188V28.508v-5.072c0-0.576-0.467-1.043-1.042-1.043H50.496
			c-0.575,0-1.042,0.467-1.042,1.043v7.281V46.1l4.877-7.246C55.174,37.598,56.734,37.036,58.186,37.458z"/>
		<path fill="#1778C1" d="M36.118,45.414l5.694,5.492v-6.747v-8.564c0-0.576-0.467-1.043-1.042-1.043H26.642
			c-0.576,0-1.042,0.467-1.042,1.043v10.887v3.6l5.9-4.85C32.862,44.111,34.848,44.189,36.118,45.414z"/>
	</g>
</g>
</svg>
