<?xml version="1.0" encoding="utf-8"?>
<!-- Generator: Adobe Illustrator 16.0.0, SVG Export Plug-In . SVG Version: 6.00 Build 0)  -->
<!DOCTYPE svg PUBLIC "-//W3C//DTD SVG 1.1//EN" "http://www.w3.org/Graphics/SVG/1.1/DTD/svg11.dtd">
<svg version="1.1" id="Layer_1" xmlns="http://www.w3.org/2000/svg" xmlns:xlink="http://www.w3.org/1999/xlink" x="0px" y="0px"
	 width="150px" height="150px" viewBox="0 0 150 150" enable-background="new 0 0 150 150" xml:space="preserve">
<image display="none" overflow="visible" opacity="0.4" width="819" height="1024" xlink:href="../../../../Desktop/6033683274_266557a211_b.jpg"  transform="matrix(0.1954 0 0 0.1954 0 -15.9512)">
</image>
<text transform="matrix(1 0 0 1 20.25 143.2832)" fill="#555555" font-family="'AmityJack'" font-size="47.094">JAWS</text>
<g>
	<path fill="#3FA9F5" d="M15.25,101.25c0,0,0.135-0.534,0.389-1.535c0.24-1.002,0.645-2.466,1.273-4.308
		c0.666-1.819,1.497-4.044,2.827-6.438c1.331-2.381,3.065-5.021,5.595-7.376c1.254-1.183,2.688-2.294,4.288-3.28
		c1.616-0.954,3.395-1.769,5.294-2.387c1.904-0.598,3.911-1.021,5.975-1.274c2.066-0.25,4.182-0.266,6.314-0.191
		c4.264,0.196,8.595,0.859,12.877,1.863c4.287,0.993,8.551,2.227,12.776,3.511c4.185,1.343,8.37,2.687,12.49,4.009
		c4.113,1.277,8.134,2.571,12.074,3.593c3.937,1.029,7.764,1.879,11.426,2.433c3.662,0.529,7.151,0.767,10.367,0.678
		c3.214-0.101,6.147-0.524,8.689-1.177c2.54-0.658,4.682-1.521,6.399-2.338c0.854-0.42,1.616-0.803,2.252-1.188
		c0.647-0.365,1.198-0.681,1.618-0.978C139.039,84.302,139.5,84,139.5,84s-0.413,0.365-1.188,1.051
		c-0.381,0.354-0.888,0.742-1.489,1.196c-0.586,0.479-1.31,0.956-2.132,1.48c-1.65,1.027-3.747,2.188-6.334,3.104
		c-2.576,0.935-5.614,1.674-8.981,2.005c-3.363,0.354-7.044,0.373-10.882-0.004c-3.836-0.372-7.85-1.018-11.911-1.977
		c-4.063-0.947-8.224-2.036-12.375-3.324c-4.134-1.279-8.333-2.58-12.533-3.88c-4.172-1.316-8.345-2.57-12.481-3.574
		c-4.135-0.987-8.22-1.827-12.189-2.11c-1.981-0.141-3.927-0.156-5.813-0.048c-1.883,0.132-3.704,0.417-5.433,0.859
		c-1.727,0.454-3.329,1.118-4.835,1.858c-1.489,0.774-2.854,1.677-4.077,2.67c-2.448,1.99-4.317,4.3-5.807,6.456
		c-1.47,2.179-2.543,4.236-3.395,5.946c-0.798,1.729-1.436,3.104-1.8,4.072C15.457,100.739,15.25,101.25,15.25,101.25z"/>
</g>
<g>
	<path fill="#555555" d="M133.75,80.25c-1.431-0.819-2.872-1.622-4.363-2.275c-1.489-0.657-3.027-1.146-4.607-1.493
		c-1.578-0.355-3.191-0.578-4.807-0.804c-1.615-0.223-3.247-0.393-4.876-0.566l-0.634-0.068l-0.232-0.698
		c-1.033-3.106-2.241-6.159-3.6-9.136c-0.676-1.491-1.404-2.958-2.156-4.409c-0.77-1.444-1.536-2.887-2.355-4.301
		c-1.625-2.834-3.386-5.587-5.272-8.247c-0.945-1.328-1.915-2.638-2.902-3.934c-0.99-1.293-2.003-2.569-3.059-3.809
		c-1.039-1.253-2.126-2.466-3.227-3.664c-1.099-1.201-2.241-2.36-3.386-3.515c-1.174-1.126-2.315-2.285-3.522-3.375
		c-1.182-1.117-2.42-2.174-3.653-3.234c-1.243-1.049-2.504-2.077-3.795-3.067c-1.28-1.002-2.598-1.96-3.92-2.907
		c-1.336-0.929-2.664-1.87-4.027-2.761c-1.341-0.924-2.746-1.751-4.119-2.628l3.596-1.328c-0.86,2.578-1.684,5.17-2.466,7.808
		c-0.784,2.628-1.571,5.291-2.433,7.938c-0.449,1.324-0.86,2.654-1.34,3.973c-0.466,1.321-0.932,2.643-1.45,3.949
		c-0.491,1.315-1.024,2.614-1.578,3.906c-0.525,1.303-1.125,2.573-1.728,3.841c-0.581,1.278-1.241,2.516-1.877,3.764
		c-0.623,1.255-1.313,2.472-1.994,3.694l-1.02,1.832l-1.076,1.796c-0.72,1.194-1.425,2.399-2.205,3.553l-2.29,3.491l-2.383,3.42
		c-0.78,1.149-1.606,2.265-2.449,3.367l-2.501,3.323l-0.323,0.428l-0.467-0.018c-3.035-0.117-6.075-0.195-9.116-0.173
		c-1.521,0.017-3.04,0.063-4.558,0.145c-0.758,0.046-1.516,0.105-2.268,0.207c-0.375,0.051-0.75,0.113-1.117,0.201
		c-0.184,0.045-0.365,0.098-0.539,0.169C21.49,74.72,21.284,74.802,21.25,75c0.009-0.206,0.215-0.323,0.371-0.419
		c0.169-0.095,0.348-0.171,0.528-0.24c0.361-0.136,0.732-0.245,1.104-0.343c0.745-0.196,1.499-0.35,2.255-0.49
		c1.512-0.284,3.035-0.48,4.561-0.652c3.051-0.347,6.114-0.571,9.182-0.691l-0.79,0.41c1.439-2.346,2.924-4.662,4.32-7.024
		l2.107-3.533l2.003-3.585c0.686-1.185,1.28-2.416,1.934-3.613l0.961-1.806l0.901-1.834c0.601-1.222,1.212-2.438,1.752-3.686
		c0.554-1.241,1.133-2.47,1.629-3.732c0.51-1.257,1.049-2.5,1.52-3.771c0.495-1.261,0.972-2.529,1.406-3.814
		c0.461-1.273,0.872-2.568,1.285-3.862c0.425-1.287,0.788-2.607,1.185-3.908c1.498-5.25,2.97-10.601,4.705-15.937l0.964-2.967
		l2.632,1.639c1.438,0.896,2.908,1.743,4.315,2.69c1.431,0.911,2.828,1.875,4.202,2.87c1.369,1.001,2.732,2.014,4.058,3.073
		c1.336,1.047,2.641,2.133,3.927,3.241c1.276,1.119,2.556,2.236,3.778,3.415c1.24,1.159,2.444,2.356,3.623,3.578
		c1.158,1.243,2.311,2.488,3.417,3.776c1.109,1.284,2.202,2.583,3.244,3.921c1.059,1.325,2.072,2.687,3.061,4.063
		c0.996,1.372,1.937,2.784,2.843,4.216c1.815,2.862,3.493,5.807,5.023,8.824c1.543,3.011,2.878,6.125,4.062,9.288
		c1.188,3.162,2.205,6.389,2.952,9.688l-0.866-0.765c3.242,0.639,6.509,1.259,9.695,2.327c0.796,0.261,1.581,0.569,2.349,0.908
		c0.769,0.339,1.516,0.726,2.229,1.16C131.107,78.273,132.437,79.257,133.75,80.25z"/>
</g>
</svg>
