<?xml version="1.0" encoding="utf-8"?>
<!-- Generator: Adobe Illustrator 16.0.0, SVG Export Plug-In . SVG Version: 6.00 Build 0)  -->
<!DOCTYPE svg PUBLIC "-//W3C//DTD SVG 1.1//EN" "http://www.w3.org/Graphics/SVG/1.1/DTD/svg11.dtd">
<svg version="1.1" id="Capa_1" xmlns="http://www.w3.org/2000/svg" xmlns:xlink="http://www.w3.org/1999/xlink" x="0px" y="0px"
	 width="104.029px" height="104.029px" viewBox="0 0 104.029 104.029" enable-background="new 0 0 104.029 104.029"
	 xml:space="preserve">
<g>
	<g>
		<path fill="#1778C1" d="M9.349,77.009h85.334c2.206,0,4-1.795,4-4V23.54c0-2.207-1.794-4-4-4H9.349c-2.206,0-4,1.793-4,4v49.469
			C5.349,75.214,7.143,77.009,9.349,77.009z M17.227,41.936v-6.287l18.856,13.647l10.57-7.104l13.789,7.596l25.451-6.142v8.117
			l-25.008,6.035l-14.434-5.172l-10.739,4.44L17.227,41.936z M9.349,23.54h85.334l0.003,49.469h-6.549V41.392L60.86,47.974
			l-14.35-7.902l-10.369,6.972L14.982,31.728v41.281H9.349V23.54z"/>
		<path fill="#1778C1" d="M103.021,79.419H1.036c-0.396,0-0.752,0.229-0.918,0.588c-0.185,0.4-0.151,0.844,0.089,1.219
			c0.422,0.658,1.128,1.764,17.188,2.563c9.076,0.453,21.174,0.701,34.063,0.701c11.574,0,49.539-0.229,52.212-3.147
			c0.261-0.285,0.387-0.64,0.354-1C103.98,79.82,103.545,79.419,103.021,79.419z"/>
	</g>
</g>
</svg>
