<?xml version="1.0" encoding="utf-8"?>
<!-- Generator: Adobe Illustrator 16.0.0, SVG Export Plug-In . SVG Version: 6.00 Build 0)  -->
<!DOCTYPE svg PUBLIC "-//W3C//DTD SVG 1.1//EN" "http://www.w3.org/Graphics/SVG/1.1/DTD/svg11.dtd">
<svg version="1.1" id="Layer_1" xmlns="http://www.w3.org/2000/svg" xmlns:xlink="http://www.w3.org/1999/xlink" x="0px" y="0px"
	 width="200px" height="200px" viewBox="0 0 200 200" enable-background="new 0 0 200 200" xml:space="preserve">
<g>
	<path fill="#1778C1" d="M155.812,112.706c-0.422-1.851-1.444-3.597-3.061-5.008c-1.624-1.401-3.607-2.246-5.663-2.558
		l-33.054-6.396l9.562,6.347l-15.097,47.324L100,117.264l-8.505,35.153l-15.09-47.324l9.559-6.347l-33.054,6.396
		c-2.056,0.311-4.038,1.154-5.664,2.557c-1.616,1.41-2.64,3.158-3.06,5.008l-9.8,43.046l18.487,6.415
		c6.137,6.38,23.317,11.073,43.922,11.52H100h3.203c20.605-0.445,37.783-5.14,43.922-11.52l18.488-6.415L155.812,112.706z"/>
	<polygon fill="#5E889E" points="100,103.551 92.381,106.279 100,117.264 107.621,106.279 	"/>
	<path fill="#1778C1" d="M128.289,61.162c0-19.537-8.04-34.848-28.289-34.848c-20.251,0-28.287,15.312-28.287,34.848
		c-2.118,1.105-3.509,3.698-1.429,9.255c1.049,2.79,2.898,5.128,4.467,6.352c5.771,14.368,17.12,25.459,25.249,25.459
		s19.479-11.091,25.247-25.459c1.571-1.224,3.417-3.563,4.469-6.352C131.796,64.859,130.406,62.267,128.289,61.162z"/>
	<path fill="#1778C1" d="M31.956,145.936c-9.436-1.115-16.874-3.666-19.969-6.881L0,134.895l6.354-27.91
		c0.273-1.198,0.938-2.332,1.985-3.245c1.054-0.908,2.339-1.458,3.672-1.658l23.215-5.317c-3.493-2.987-6.884-7.671-9.053-13.08
		c-1.018-0.792-2.217-2.308-2.898-4.118c-1.35-3.601-0.448-5.282,0.926-6c0-12.666,5.208-22.593,18.339-22.593h0.003
		c13.128,0,18.339,9.927,18.339,22.593c1.374,0.718,2.276,2.399,0.928,6c-0.682,1.81-1.881,3.326-2.899,4.118
		c-2.169,5.408-5.561,10.092-9.053,13.08l10.265,2.352l-7.991,1.545c-2.95,0.46-5.667,1.705-7.875,3.612
		c-2.295,2.004-3.855,4.57-4.506,7.422L31.956,145.936z M193.646,106.984c-0.275-1.199-0.938-2.334-1.985-3.246
		c-1.052-0.908-2.337-1.459-3.673-1.658l-23.213-5.317c3.492-2.987,6.883-7.671,9.055-13.08c1.02-0.792,2.215-2.308,2.896-4.118
		c1.35-3.601,0.447-5.282-0.926-6c0-12.666-5.214-22.593-18.343-22.593l0,0c-13.13,0-18.341,9.927-18.341,22.593
		c-1.372,0.718-2.275,2.399-0.926,6c0.68,1.81,1.879,3.326,2.896,4.118c2.171,5.408,5.562,10.092,9.055,13.08l-10.267,2.352
		l7.991,1.545c2.947,0.46,5.667,1.705,7.855,3.594c2.314,2.021,3.871,4.589,4.522,7.438l7.796,34.244
		c9.436-1.115,16.874-3.666,19.97-6.881l11.986-4.16L193.646,106.984z"/>
</g>
</svg>
