<svg xmlns="http://www.w3.org/2000/svg" xmlns:xlink="http://www.w3.org/1999/xlink" width="382" height="219" viewBox="0 0 382 219">
  <defs>
    <path id="oms-pride-tagline-a" d="M10.365,197.521 C16.264,197.521 20.379,202.085 20.379,207.601 L20.379,207.657 C20.379,213.173 16.209,217.793 10.311,217.793 C4.412,217.793 0.297,213.229 0.297,207.713 L0.297,207.657 C0.297,202.14 4.467,197.521 10.365,197.521 Z M65.904,197.521 C71.802,197.521 75.917,202.085 75.917,207.601 L75.917,207.657 C75.917,213.173 71.747,217.793 65.849,217.793 C59.949,217.793 55.834,213.229 55.834,207.713 L55.834,207.657 C55.834,202.14 60.005,197.521 65.904,197.521 Z M244.947,197.521 C250.845,197.521 254.96,202.085 254.96,207.601 L254.96,207.657 C254.96,213.173 250.79,217.793 244.892,217.793 C238.993,217.793 234.878,213.229 234.878,207.713 L234.878,207.657 C234.878,202.14 239.048,197.521 244.947,197.521 Z M331.957,197.521 C337.857,197.521 341.972,202.085 341.972,207.601 L341.972,207.657 C341.972,213.173 337.801,217.793 331.903,217.793 C326.004,217.793 321.889,213.229 321.889,207.713 L321.889,207.657 C321.889,202.14 326.059,197.521 331.957,197.521 Z M277.463,197.857 L277.463,209.001 C277.463,212.64 279.301,214.573 282.32,214.573 C285.31,214.573 287.148,212.753 287.148,209.14 L287.148,197.857 L290.523,197.857 L290.523,208.973 C290.523,214.825 287.285,217.764 282.265,217.764 C277.272,217.764 274.089,214.825 274.089,209.14 L274.089,197.857 L277.463,197.857 Z M224.202,197.577 C227.001,197.577 229.223,198.445 231.171,200.041 L229.361,202.645 C227.632,201.329 225.904,200.629 224.148,200.629 C222.172,200.629 221.02,201.665 221.02,202.953 L221.02,203.009 C221.02,204.521 221.898,205.193 225.602,206.089 C229.662,207.097 231.747,208.581 231.747,211.829 L231.747,211.885 C231.747,215.553 228.921,217.737 224.889,217.737 C221.953,217.737 219.182,216.701 216.877,214.6 L218.908,212.137 C220.746,213.761 222.612,214.684 224.971,214.684 C227.056,214.684 228.373,213.677 228.373,212.221 L228.373,212.165 C228.373,210.764 227.605,210.009 224.038,209.169 C219.95,208.161 217.646,206.929 217.646,203.317 L217.646,203.261 C217.646,199.901 220.389,197.577 224.202,197.577 Z M30.918,197.577 C33.717,197.577 35.939,198.445 37.887,200.041 L36.076,202.645 C34.348,201.329 32.619,200.629 30.864,200.629 C28.888,200.629 27.736,201.665 27.736,202.953 L27.736,203.009 C27.736,204.521 28.614,205.193 32.318,206.089 C36.378,207.097 38.463,208.581 38.463,211.829 L38.463,211.885 C38.463,215.553 35.637,217.737 31.605,217.737 C28.669,217.737 25.898,216.701 23.593,214.6 L25.623,212.137 C27.462,213.761 29.327,214.684 31.687,214.684 C33.772,214.684 35.089,213.677 35.089,212.221 L35.089,212.165 C35.089,210.764 34.321,210.009 30.754,209.169 C26.666,208.161 24.362,206.929 24.362,203.317 L24.362,203.261 C24.362,199.901 27.105,197.577 30.918,197.577 Z M373.778,197.577 C376.576,197.577 378.798,198.445 380.746,200.041 L378.936,202.645 C377.207,201.329 375.479,200.629 373.723,200.629 C371.747,200.629 370.595,201.665 370.595,202.953 L370.595,203.009 C370.595,204.521 371.473,205.193 375.177,206.089 C379.238,207.097 381.323,208.581 381.323,211.829 L381.323,211.885 C381.323,215.553 378.496,217.737 374.463,217.737 C371.528,217.737 368.757,216.701 366.452,214.6 L368.483,212.137 C370.321,213.761 372.187,214.684 374.546,214.684 C376.631,214.684 377.948,213.677 377.948,212.221 L377.948,212.165 C377.948,210.764 377.18,210.009 373.613,209.169 C369.526,208.161 367.221,206.929 367.221,203.317 L367.221,203.261 C367.221,199.901 369.964,197.577 373.778,197.577 Z M349.192,197.857 L359.48,211.409 L359.48,197.857 L362.8,197.857 L362.8,217.457 L359.974,217.457 L349.384,203.513 L349.384,217.457 L346.064,217.457 L346.064,197.857 L349.192,197.857 Z M309.923,197.857 L309.923,201.049 L303.832,201.049 L303.832,217.457 L300.43,217.457 L300.43,201.049 L294.34,201.049 L294.34,197.857 L309.923,197.857 Z M187.46,197.857 L187.46,200.937 L176.596,200.937 L176.596,206.033 L186.226,206.033 L186.226,209.113 L176.596,209.113 L176.596,214.377 L187.597,214.377 L187.597,217.457 L173.221,217.457 L173.221,197.857 L187.46,197.857 Z M121.166,197.717 L129.616,217.457 L126.05,217.457 L124.102,212.724 L115.021,212.724 L113.045,217.457 L109.589,217.457 L118.038,197.717 L121.166,197.717 Z M140.649,197.857 C143.063,197.857 144.956,198.585 146.191,199.817 C147.205,200.881 147.782,202.337 147.782,204.045 L147.782,204.101 C147.782,207.321 145.889,209.253 143.228,210.037 L148.412,217.457 L144.408,217.457 L139.689,210.625 L135.463,210.625 L135.463,217.457 L132.089,217.457 L132.089,197.857 L140.649,197.857 Z M156.125,197.857 L156.125,207.713 L165.261,197.857 L169.432,197.857 L161.42,206.285 L169.788,217.457 L165.673,217.457 L159.116,208.637 L156.125,211.773 L156.125,217.457 L152.751,217.457 L152.751,197.857 L156.125,197.857 Z M317.608,197.857 L317.608,217.457 L314.233,217.457 L314.233,197.857 L317.608,197.857 Z M206.366,197.857 L206.366,201.049 L200.276,201.049 L200.276,217.457 L196.873,217.457 L196.873,201.049 L190.783,201.049 L190.783,197.857 L206.366,197.857 Z M46.367,197.857 L46.367,214.321 L56.464,214.321 L56.464,217.457 L42.993,217.457 L42.993,197.857 L46.367,197.857 Z M262.427,197.857 L262.427,214.321 L272.523,214.321 L272.523,217.457 L259.052,217.457 L259.052,197.857 L262.427,197.857 Z M91.834,197.857 L97.678,207.125 L103.522,197.857 L107.115,197.857 L107.115,217.457 L103.741,217.457 L103.741,203.401 L97.678,212.64 L97.569,212.64 L91.56,203.457 L91.56,217.457 L88.24,217.457 L88.24,197.857 L91.834,197.857 Z M331.903,200.685 C328.089,200.685 325.428,203.793 325.428,207.601 L325.428,207.657 C325.428,211.465 328.144,214.6 331.957,214.6 C335.771,214.6 338.433,211.521 338.433,207.713 L338.433,207.657 C338.433,203.848 335.716,200.685 331.903,200.685 Z M65.849,200.685 C62.034,200.685 59.373,203.793 59.373,207.601 L59.373,207.657 C59.373,211.465 62.09,214.6 65.904,214.6 C69.717,214.6 72.378,211.521 72.378,207.713 L72.378,207.657 C72.378,203.848 69.662,200.685 65.849,200.685 Z M10.311,200.685 C6.497,200.685 3.836,203.793 3.836,207.601 L3.836,207.657 C3.836,211.465 6.552,214.6 10.365,214.6 C14.179,214.6 16.84,211.521 16.84,207.713 L16.84,207.657 C16.84,203.848 14.124,200.685 10.311,200.685 Z M244.892,200.685 C241.078,200.685 238.417,203.793 238.417,207.601 L238.417,207.657 C238.417,211.465 241.133,214.6 244.947,214.6 C248.76,214.6 251.421,211.521 251.421,207.713 L251.421,207.657 C251.421,203.848 248.705,200.685 244.892,200.685 Z M119.548,201.833 L116.255,209.673 L122.867,209.673 L119.548,201.833 Z M140.374,200.993 L135.463,200.993 L135.463,207.573 L140.402,207.573 C142.816,207.573 144.353,206.285 144.353,204.297 L144.353,204.241 C144.353,202.14 142.871,200.993 140.374,200.993 Z M312.998,150.132 C313.972,150.132 314.77,150.929 314.77,151.903 C314.77,152.878 313.972,153.675 312.998,153.675 L68.51,153.675 C67.535,153.675 66.739,152.878 66.739,151.903 C66.739,150.929 67.535,150.132 68.51,150.132 L312.998,150.132 Z M318.61,-7.10542736e-15 C330.801,-7.10542736e-15 337.148,3.34 340.822,3.34 C341.657,3.34 342.491,3.173 342.992,3.173 C343.994,3.173 344.495,4.008 344.495,9.687 C344.495,16.367 344.161,23.882 343.827,26.387 C343.66,27.556 343.159,28.391 341.824,28.391 C340.822,28.391 340.154,27.723 339.82,25.719 C337.482,12.359 331.135,4.843 316.773,4.843 C306.084,4.843 297.4,11.691 297.4,21.21 C297.4,47.764 353.18,43.756 353.18,81.165 C353.18,99.203 337.649,112.563 316.439,112.563 C306.251,112.563 290.886,109.557 283.538,104.547 C282.703,101.206 282.202,97.032 282.202,93.023 C282.202,85.842 283.037,81.332 283.371,80.33 C283.705,79.328 284.206,78.16 285.709,78.16 C287.045,78.16 287.713,79.328 288.047,81.332 C290.385,96.197 299.07,107.72 316.272,107.72 C332.471,107.72 340.655,98.368 340.655,87.512 C340.655,59.621 285.542,62.461 285.542,28.558 C285.542,11.023 300.239,-7.10542736e-15 318.61,-7.10542736e-15 Z M84.177,100.065 C87.62,100.065 90.422,102.867 90.422,106.31 C90.422,109.753 87.62,112.555 84.177,112.555 C80.734,112.555 77.932,109.753 77.932,106.31 C77.932,102.867 80.734,100.065 84.177,100.065 Z M176.871,3.083 L218.954,61.024 L219.242,61.421 L251.905,14.652 L251.905,102.744 L257.494,102.744 L257.494,9.721 L248.403,9.721 L219.082,51.954 L214.772,45.836 L244.184,3.083 L264.439,3.083 L264.439,109.382 L244.961,109.382 L244.961,35.851 L219.077,73.359 L172.899,9.865 L172.794,9.721 L163.707,9.721 L163.707,102.744 L169.297,102.744 L169.297,14.641 L215.6,78.251 L211.432,84.364 L176.241,36.363 L176.241,109.382 L156.764,109.382 L156.764,3.083 L176.871,3.083 Z M105.67,96.755 C107.211,97.393 108.411,98.593 109.05,100.134 C110.367,103.315 108.852,106.975 105.67,108.293 C104.9,108.612 104.09,108.772 103.281,108.772 C102.471,108.772 101.661,108.613 100.891,108.293 C99.35,107.655 98.15,106.455 97.511,104.914 C96.194,101.732 97.71,98.072 100.891,96.755 C102.432,96.116 104.129,96.116 105.67,96.755 Z M67.468,96.727 C69.009,97.366 70.209,98.566 70.848,100.107 C71.487,101.648 71.487,103.346 70.848,104.887 C69.853,107.288 67.522,108.741 65.071,108.741 C64.276,108.741 63.468,108.589 62.689,108.266 C59.508,106.949 57.992,103.288 59.309,100.107 C59.948,98.566 61.148,97.366 62.689,96.727 C64.23,96.089 65.927,96.089 67.468,96.727 Z M123.898,87.3 C126.332,89.735 126.332,93.697 123.898,96.131 C122.718,97.31 121.15,97.96 119.482,97.96 C117.814,97.96 116.245,97.31 115.066,96.131 C112.631,93.697 112.631,89.735 115.066,87.3 C117.502,84.866 121.463,84.867 123.898,87.3 Z M48.894,85.42 C50.561,85.42 52.129,86.07 53.309,87.249 C55.743,89.684 55.743,93.646 53.309,96.081 C52.091,97.298 50.492,97.907 48.893,97.907 C47.294,97.907 45.696,97.298 44.478,96.081 C43.298,94.901 42.649,93.333 42.649,91.665 C42.649,89.997 43.298,88.429 44.478,87.249 C45.657,86.07 47.226,85.42 48.894,85.42 Z M94.03,89.61 C95.03,90.278 95.709,91.295 95.945,92.475 C96.179,93.655 95.94,94.856 95.272,95.856 C94.604,96.856 93.586,97.536 92.406,97.771 C92.111,97.829 91.817,97.858 91.527,97.858 C89.422,97.858 87.536,96.373 87.111,94.233 C86.877,93.052 87.115,91.852 87.783,90.853 C88.451,89.852 89.47,89.172 90.65,88.938 C91.817,88.705 93.036,88.948 94.03,89.61 Z M77.705,88.924 C78.884,89.158 79.901,89.839 80.57,90.84 C81.239,91.841 81.478,93.041 81.244,94.219 C81.01,95.397 80.329,96.414 79.328,97.083 C78.577,97.585 77.715,97.845 76.835,97.845 C76.54,97.845 76.244,97.816 75.949,97.757 C73.514,97.272 71.927,94.897 72.41,92.462 C72.896,90.027 75.274,88.444 77.705,88.924 Z M108.859,85.24 C109.528,86.24 109.766,87.44 109.532,88.62 C109.296,89.799 108.616,90.817 107.616,91.486 C106.866,91.987 106.005,92.246 105.124,92.246 C104.829,92.246 104.532,92.217 104.236,92.158 C103.057,91.924 102.038,91.244 101.369,90.244 L101.369,90.243 C99.99,88.179 100.548,85.377 102.611995,83.997 C104.676,82.618 107.479,83.175 108.859,85.24 Z M63.258,83.2 C64.15,83.2 65.012,83.462 65.754,83.958 C67.818,85.337 68.375,88.139 66.996,90.203 C66.328,91.203 65.311,91.884 64.13,92.119 C63.835,92.177 63.537,92.206 63.242,92.206 C62.361,92.206 61.499,91.947 60.75,91.446 C59.751,90.779 59.071,89.761 58.834,88.58 C58.601,87.4 58.839,86.199 59.507,85.201 C60.345,83.948 61.747,83.2 63.258,83.2 Z M115.526,72.855 C116.416,72.855 117.279,73.117 118.021,73.613 C119.021,74.281 119.7,75.299 119.936,76.478 C120.169,77.659 119.931,78.86 119.263,79.858 C118.595,80.857 117.577,81.536 116.397,81.771 C116.1,81.83 115.802,81.86 115.506,81.86 C114.625,81.86 113.765,81.6 113.017,81.101 C112.017,80.433 111.337,79.415 111.102,78.236 C110.867,77.056 111.107,75.855 111.775,74.855 C112.612,73.603 114.014,72.855 115.526,72.855 Z M52.861,72.796 C54.372,72.796 55.775,73.543 56.612,74.796 C57.99,76.861 57.434,79.662 55.369,81.042 C54.619,81.542 53.757,81.802 52.876,81.802 C52.581,81.802 52.284,81.773 51.99,81.714 C50.81,81.48 49.792,80.8 49.123,79.799 C48.455,78.799 48.216,77.599 48.45,76.419 C48.686,75.239 49.365,74.222 50.365,73.554 C51.108,73.058 51.97,72.796 52.861,72.796 Z M132.703,69.761 C135.884,71.079 137.4,74.739 136.082,77.92 C135.445,79.461 134.244,80.661 132.703,81.3 C131.932,81.619 131.122,81.778 130.313,81.778 C129.503,81.778 128.694,81.619 127.923,81.3 C124.742,79.981 123.227,76.322 124.544,73.141 C125.182,71.599 126.382,70.399 127.923,69.761 C129.464,69.122 131.162,69.123 132.703,69.761 Z M43.855,73.075 C45.172,76.256 43.656,79.916 40.475,81.234 C39.696,81.556 38.889,81.709 38.094,81.709 C35.642,81.709 33.311,80.256 32.316,77.854 C31.677,76.313 31.677,74.616 32.316,73.075 C32.954,71.534 34.155,70.333 35.696,69.695 C38.878,68.379 42.537,69.893 43.855,73.075 Z M121.156,59.278 C121.449,59.278 121.745,59.307 122.035,59.365 C123.213,59.599 124.231,60.28 124.9,61.281 C125.568,62.282 125.807,63.482 125.574,64.66 C125.339,65.838 124.658,66.855 123.658,67.524 C122.908,68.025 122.046,68.286 121.165,68.286 C120.87,68.286 120.574,68.257 120.28,68.198 C119.101,67.964 118.083,67.283 117.414,66.282 C116.746,65.281 116.507,64.08 116.74,62.902 C117.158,60.802 119.015,59.278 121.156,59.278 Z M49.757,59.967 C50.757,60.636 51.437,61.654 51.672,62.832 C51.906,64.014 51.666,65.214 50.998,66.213 C50.33,67.213 49.313,67.893 48.132,68.127 C47.836,68.187 47.539,68.216 47.243,68.216 C46.365,68.216 45.503,67.956 44.752,67.455 C43.754,66.788 43.074,65.77 42.837,64.59 C42.604,63.409 42.842,62.208 43.51,61.209 C44.179,60.209 45.197,59.529 46.376,59.295 C47.538,59.06 48.762,59.303 49.757,59.967 Z M134.126,50.187 C137.57,50.187 140.371,52.989 140.371,56.432 C140.371,59.875 137.57,62.677 134.126,62.677 C130.683,62.677 127.881,59.875 127.881,56.432 C127.881,52.989 130.683,50.187 134.126,50.187 Z M34.299,50.116 C37.742,50.116 40.544,52.917 40.544,56.36 C40.544,59.804 37.742,62.605 34.299,62.605 C30.856,62.605 28.054,59.804 28.054,56.36 C28.054,52.917 30.856,50.116 34.299,50.116 Z M123.673,45.337 C124.673,46.005 125.353,47.022 125.588,48.203 C125.823,49.382 125.583,50.582 124.915,51.583 C124.247,52.583 123.23,53.263 122.049,53.497 C121.754,53.557 121.456,53.586 121.161,53.586 C120.281,53.586 119.419,53.326 118.669,52.826 C117.669,52.158 116.99,51.14 116.754,49.96 C116.52,48.781 116.758,47.58 117.426,46.579 C118.096,45.578 119.114,44.899 120.293,44.665 C121.449,44.431 122.679,44.672 123.673,45.337 Z M47.267,44.508 C47.56,44.508 47.857,44.537 48.147,44.595 C50.582,45.079 52.169,47.454 51.686,49.89 C51.259,52.029 49.373,53.514 47.27,53.514 C46.98,53.514 46.686,53.486 46.391,53.427 C45.212,53.193 44.196,52.513 43.527,51.512 C42.858,50.51 42.618,49.31 42.852,48.132 C43.27,46.032 45.126,44.508 47.267,44.508 Z M132.731,31.559 C134.272,32.197 135.472,33.397 136.11,34.938 C137.427,38.119 135.911,41.779 132.731,43.098 C131.96,43.416 131.151,43.576 130.341,43.576 C129.532,43.576 128.722,43.416 127.95,43.097 C126.409,42.459 125.209,41.259 124.572,39.718 C123.254,36.537 124.77,32.877 127.95,31.558 C129.491,30.921 131.188,30.92 132.731,31.559 Z M40.502,31.493 C43.683,32.81 45.199,36.47 43.882,39.652 C42.887,42.054 40.556,43.507 38.105,43.507 C37.31,43.507 36.502,43.354 35.723,43.032 C32.541,41.714 31.026,38.053 32.343,34.872 C33.66,31.691 37.32,30.174 40.502,31.493 Z M116.438,31.078 C117.616,31.313 118.635,31.993 119.303,32.993 C120.682,35.057 120.124,37.859 118.061,39.239 C117.293,39.751 116.424,39.996 115.565,39.996 C114.11,39.996 112.681,39.294 111.814,37.996 C110.435,35.932 110.992,33.13 113.057,31.75 C114.05,31.086 115.272,30.844 116.438,31.078 Z M55.408,31.691 C57.473,33.07 58.031,35.872 56.652,37.937 C55.783,39.235 54.354,39.937 52.9,39.937 C52.039,39.937 51.171,39.692 50.405,39.18 C48.34,37.8 47.783,34.998 49.162,32.934 C49.83,31.933 50.849,31.253 52.029,31.019 C53.191,30.785 54.413,31.027 55.408,31.691 Z M105.18,20.588 C106.071,20.588 106.933,20.85 107.676,21.346 C108.676,22.015 109.356,23.033 109.59,24.211 C109.824,25.391 109.586,26.591 108.918,27.592 C108.05,28.889 106.62,29.591 105.165,29.591 C104.306,29.591 103.438,29.347 102.671,28.834 C100.608,27.454 100.05,24.653 101.429,22.589 C102.267,21.336 103.669,20.588 105.18,20.588 Z M63.305,20.549 C64.817,20.549 66.219,21.296 67.056,22.549 C67.724,23.55 67.962,24.75 67.728,25.929 C67.493,27.108 66.814,28.125 65.814,28.795 C65.047,29.307 64.178,29.552 63.319,29.552 C61.864,29.552 60.434,28.85 59.567,27.552 C58.899,26.552 58.66,25.351 58.895,24.172 C59.129,22.994 59.809,21.975 60.809,21.307 C61.552,20.811 62.414,20.549 63.305,20.549 Z M119.532,14.882 C121.2,14.882 122.769,15.532 123.949,16.711 C126.383,19.146 126.383,23.108 123.949,25.543 C122.769,26.722 121.2,27.372 119.532,27.372 C117.865,27.372 116.296,26.722 115.116,25.543 C112.682,23.108 112.682,19.146 115.116,16.711 C116.296,15.532 117.865,14.882 119.532,14.882 Z M53.36,16.661 C55.794,19.096 55.794,23.057 53.36,25.493 C52.142,26.709 50.543,27.318 48.944,27.318 C47.345,27.318 45.745,26.71 44.528,25.493 C42.093,23.057 42.093,19.096 44.528,16.661 C46.964,14.227 50.925,14.228 53.36,16.661 Z M91.597,14.949 C91.892,14.949 92.188,14.978 92.477,15.036 C94.911,15.519 96.498,17.895 96.015,20.33 C95.781,21.509 95.1,22.526 94.099,23.195 C93.349,23.696 92.488,23.956 91.607,23.956 C91.312,23.956 91.015,23.927 90.719,23.868 C88.284,23.384 86.698,21.009 87.181,18.573 C87.599,16.473 89.455,14.949 91.597,14.949 Z M79.4,15.694 C80.4,16.362 81.079,17.38 81.315,18.559 C81.548,19.738 81.309,20.937 80.64,21.939 C79.971,22.94 78.954,23.62 77.776,23.854 C77.48,23.913 77.183,23.943 76.887,23.943 C76.007,23.943 75.146,23.683 74.396,23.182 C73.396,22.515 72.716,21.497 72.481,20.317 C72.246,19.137 72.486,17.936 73.154,16.936 C73.822,15.936 74.839,15.256 76.02,15.021 C77.189,14.787 78.407,15.031 79.4,15.694 Z M105.737,4.526 C107.278,5.164 108.478,6.365 109.116,7.906 C109.755,9.447 109.755,11.144 109.116,12.685 C108.121,15.087 105.79,16.54 103.339,16.54 C102.544,16.54 101.737,16.388 100.957,16.065 C99.416,15.427 98.216,14.226 97.577,12.685 C96.939,11.144 96.939,9.447 97.577,7.906 C98.895,4.725 102.554,3.208 105.737,4.526 Z M70.914,7.878 C71.553,9.419 71.553,11.117 70.914,12.658 C70.276,14.199 69.075,15.399 67.534,16.037 C66.755,16.36 65.948,16.513 65.153,16.513 C62.701,16.513 60.37,15.06 59.375,12.658 C58.737,11.117 58.737,9.419 59.375,7.878 C60.014,6.337 61.214,5.137 62.755,4.499 C65.934,3.183 69.596,4.697 70.914,7.878 Z M84.248,0.238 C87.692,0.238 90.493,3.039 90.493,6.482 C90.493,9.926 87.692,12.727 84.248,12.727 C80.805,12.727 78.003,9.926 78.003,6.482 C78.003,3.039 80.805,0.238 84.248,0.238 Z"/>
  </defs>
  <g fill="none" fill-rule="evenodd" transform="translate(0 .803)">
    <mask id="oms-pride-tagline-b" fill="#fff">
      <use xlink:href="#oms-pride-tagline-a"/>
    </mask>
    <use fill="#FFF" fill-rule="nonzero" xlink:href="#oms-pride-tagline-a"/>
    <g fill-rule="nonzero" mask="url(#oms-pride-tagline-b)">
      <g transform="translate(-5 .197)">
        <rect width="394" height="114" fill="#750787"/>
        <rect width="394" height="95" fill="#004DFF"/>
        <rect width="394" height="76" fill="#008026"/>
        <rect width="394" height="57" fill="#FFED00"/>
        <rect width="394" height="38" fill="#FF8C00"/>
        <rect width="394" height="19" fill="#E40303"/>
      </g>
    </g>
  </g>
</svg>
