<?xml version="1.0" encoding="UTF-8" standalone="no"?>
<svg
   xmlns:dc="http://purl.org/dc/elements/1.1/"
   xmlns:cc="http://creativecommons.org/ns#"
   xmlns:rdf="http://www.w3.org/1999/02/22-rdf-syntax-ns#"
   xmlns:svg="http://www.w3.org/2000/svg"
   xmlns="http://www.w3.org/2000/svg"
   viewBox="0 0 508.04001 290.38666"
   height="290.38666"
   width="508.04001"
   xml:space="preserve"
   id="svg2"
   version="1.1"><metadata
     id="metadata8"><rdf:RDF><cc:Work
         rdf:about=""><dc:format>image/svg+xml</dc:format><dc:type
           rdf:resource="http://purl.org/dc/dcmitype/StillImage" /></cc:Work></rdf:RDF></metadata><defs
     id="defs6" /><g
     transform="matrix(1.3333333,0,0,-1.3333333,0,290.38667)"
     id="g10"><g
       transform="scale(0.1)"
       id="g12"><path
         id="path14"
         style="fill:#ffffff;fill-opacity:1;fill-rule:nonzero;stroke:none"
         d="m 3183.13,2177.93 c 121.91,0 185.38,-33.4 222.11,-33.4 8.35,0 16.7,1.67 21.71,1.67 10.02,0 15.03,-8.35 15.03,-65.13 0,-66.8 -3.34,-141.96 -6.68,-167.01 -1.67,-11.68 -6.68,-20.04 -20.04,-20.04 -10.02,0 -16.7,6.68 -20.04,26.72 -23.37,133.61 -86.84,208.76 -230.46,208.76 -106.89,0 -193.73,-68.47 -193.73,-163.67 0,-265.54 557.8,-225.46 557.8,-599.55 0,-180.37 -155.31,-313.97 -367.41,-313.97 -101.88,0 -255.53,30.05 -329.01,80.15 -8.35,33.41 -13.36,75.16 -13.36,115.25 0,71.8 8.35,116.9 11.69,126.92 3.34,10.02 8.35,21.71 23.38,21.71 13.36,0 20.04,-11.69 23.38,-31.73 23.38,-148.64 110.22,-263.88 282.25,-263.88 161.99,0 243.82,93.53 243.82,202.08 0,278.91 -551.12,250.51 -551.12,589.55 0,175.35 146.96,285.57 330.68,285.57" /><path
         id="path16"
         style="fill:#ffffff;fill-opacity:1;fill-rule:nonzero;stroke:none"
         d="M 3127.01,641.191 H 682.125 c -9.742,0 -17.715,7.969 -17.715,17.707 v 0 c 0,9.743 7.973,17.723 17.715,17.723 H 3127.01 c 9.74,0 17.72,-7.98 17.72,-17.723 v 0 c 0,-9.738 -7.98,-17.707 -17.72,-17.707" /><path
         id="path18"
         style="fill:#ffffff;fill-opacity:1;fill-rule:nonzero;stroke:none"
         d="m 165.43,100.809 v 0.55 c 0,38.09 -27.16,69.719 -65.293,69.719 -38.1331,0 -64.7464,-31.066 -64.7464,-69.156 v -0.563 c 0,-38.0699 27.1563,-69.4293 65.2934,-69.4293 38.132,0 64.746,30.7891 64.746,68.8793 z m -165.43,0 v 0.55 c 0,55.172 41.6992,101.36 100.684,101.36 58.984,0 100.136,-45.629 100.136,-100.797 v -0.563 C 200.82,46.2109 159.121,0.0117188 100.137,0.0117188 41.1523,0.0117188 0,45.6406 0,100.809" /><path
         id="path20"
         style="fill:#ffffff;fill-opacity:1;fill-rule:nonzero;stroke:none"
         d="m 232.961,31.9297 20.301,24.6406 c 18.386,-16.2383 37.043,-25.4805 60.633,-25.4805 20.851,0 34.027,10.0821 34.027,24.6407 v 0.5508 c 0,14.0078 -7.688,21.5703 -43.352,29.9687 -40.879,10.0703 -63.925,22.398 -63.925,58.512 v 0.566 c 0,33.594 27.429,56.832 65.566,56.832 27.988,0 50.207,-8.68 69.687,-24.629 L 357.793,151.48 c -17.285,13.161 -34.57,20.168 -52.129,20.168 -19.758,0 -31.277,-10.367 -31.277,-23.25 v -0.546 c 0,-15.133 8.777,-21.852 45.816,-30.801 40.61,-10.082 61.457,-24.9299 61.457,-57.4104 v -0.5508 c 0,-36.6796 -28.262,-58.531206 -68.586,-58.531206 -29.351,0 -57.066,10.363306 -80.113,31.371106" /><path
         id="path22"
         style="fill:#ffffff;fill-opacity:1;fill-rule:nonzero;stroke:none"
         d="m 426.965,199.359 h 33.738 V 34.7188 H 561.672 V 3.35938 H 426.965 V 199.359" /><path
         id="path24"
         style="fill:#ffffff;fill-opacity:1;fill-rule:nonzero;stroke:none"
         d="m 720.813,100.809 v 0.55 c 0,38.09 -27.161,69.719 -65.293,69.719 -38.149,0 -64.758,-31.066 -64.758,-69.156 v -0.563 c 0,-38.0699 27.168,-69.4293 65.301,-69.4293 38.136,0 64.75,30.7891 64.75,68.8793 z m -165.442,0 v 0.55 c 0,55.172 41.707,101.36 100.692,101.36 58.988,0 100.136,-45.629 100.136,-100.797 v -0.563 C 756.199,46.2109 714.504,0.0117188 655.52,0.0117188 596.523,0.0117188 555.371,45.6406 555.371,100.809" /><path
         id="path26"
         style="fill:#ffffff;fill-opacity:1;fill-rule:nonzero;stroke:none"
         d="m 879.434,199.359 h 35.937 l 58.438,-92.668 58.441,92.668 h 35.93 V 3.35938 h -33.74 V 143.922 L 973.809,51.5313 h -1.094 L 912.629,143.359 V 3.35938 H 879.434 V 199.359" /><path
         id="path28"
         style="fill:#ffffff;fill-opacity:1;fill-rule:nonzero;stroke:none"
         d="m 1225.7,81.2109 -33.19,78.3981 -32.93,-78.3981 z M 1177.41,200.77 h 31.28 l 84.5,-197.41062 h -35.66 l -19.48,47.33202 h -90.81 L 1127.48,3.35938 h -34.56 L 1177.41,200.77" /><path
         id="path30"
         style="fill:#ffffff;fill-opacity:1;fill-rule:nonzero;stroke:none"
         d="m 1401.04,102.199 c 24.15,0 39.52,12.879 39.52,32.77 v 0.551 c 0,21.011 -14.82,32.48 -39.79,32.48 h -49.11 v -65.801 z m -83.12,97.16 h 85.6 c 24.14,0 43.07,-7.269 55.42,-19.597 10.14,-10.633 15.9,-25.192 15.9,-42.274 v -0.566 c 0,-32.203 -18.92,-51.5118 -45.53,-59.3634 l 51.84,-74.19922 h -40.05 l -47.18,68.33202 h -42.26 V 3.35938 h -33.74 V 199.359" /><path
         id="path32"
         style="fill:#ffffff;fill-opacity:1;fill-rule:nonzero;stroke:none"
         d="m 1524.54,199.359 h 33.74 v -98.55 l 91.36,98.55 h 41.71 l -80.12,-84.281 83.68,-111.71862 h -41.15 l -65.58,88.21092 -29.9,-31.3711 V 3.35938 h -33.74 V 199.359" /><path
         id="path34"
         style="fill:#ffffff;fill-opacity:1;fill-rule:nonzero;stroke:none"
         d="m 1729.24,199.359 h 142.39 v -30.8 h -108.64 v -50.957 h 96.3 V 86.8008 h -96.3 V 34.1719 H 1873 V 3.35938 H 1729.24 V 199.359" /><path
         id="path36"
         style="fill:#ffffff;fill-opacity:1;fill-rule:nonzero;stroke:none"
         d="m 1965.76,167.449 h -60.9 v 31.91 h 155.83 v -31.91 h -60.9 V 3.35938 h -34.03 V 167.449" /><path
         id="path38"
         style="fill:#ffffff;fill-opacity:1;fill-rule:nonzero;stroke:none"
         d="m 2165.8,31.9297 20.3,24.6406 c 18.39,-16.2383 37.04,-25.4805 60.64,-25.4805 20.85,0 34.02,10.0821 34.02,24.6407 v 0.5508 c 0,14.0078 -7.68,21.5703 -43.35,29.9687 -40.88,10.0703 -63.92,22.398 -63.92,58.512 v 0.566 c 0,33.594 27.43,56.832 65.56,56.832 27.99,0 50.21,-8.68 69.69,-24.629 l -18.11,-26.051 c -17.28,13.161 -34.57,20.168 -52.12,20.168 -19.76,0 -31.28,-10.367 -31.28,-23.25 v -0.546 c 0,-15.133 8.78,-21.852 45.82,-30.801 40.6,-10.082 61.45,-24.9299 61.45,-57.4104 v -0.5508 c 0,-36.6796 -28.26,-58.531206 -68.58,-58.531206 -29.36,0 -57.07,10.363306 -80.12,31.371106" /><path
         id="path40"
         style="fill:#ffffff;fill-opacity:1;fill-rule:nonzero;stroke:none"
         d="m 2511.24,100.809 v 0.55 c 0,38.09 -27.16,69.719 -65.29,69.719 -38.14,0 -64.75,-31.066 -64.75,-69.156 v -0.563 c 0,-38.0699 27.16,-69.4293 65.29,-69.4293 38.14,0 64.75,30.7891 64.75,68.8793 z m -165.43,0 v 0.55 c 0,55.172 41.7,101.36 100.68,101.36 58.99,0 100.14,-45.629 100.14,-100.797 v -0.563 c 0,-55.1481 -41.7,-101.3472812 -100.68,-101.3472812 -58.99,0 -100.14,45.6288812 -100.14,100.7972812" /><path
         id="path42"
         style="fill:#ffffff;fill-opacity:1;fill-rule:nonzero;stroke:none"
         d="m 2587.55,199.359 h 33.75 V 34.7188 h 100.96 V 3.35938 H 2587.55 V 199.359" /><path
         id="path44"
         style="fill:#ffffff;fill-opacity:1;fill-rule:nonzero;stroke:none"
         d="M 2737.92,86.5313 V 199.359 h 33.74 V 87.9297 c 0,-36.3984 18.38,-55.7305 48.56,-55.7305 29.91,0 48.29,18.211 48.29,54.3321 V 199.359 h 33.75 V 88.2109 c 0,-58.5312 -32.38,-87.921837 -82.58,-87.921837 -49.93,0 -81.76,29.390637 -81.76,86.242237" /><path
         id="path46"
         style="fill:#ffffff;fill-opacity:1;fill-rule:nonzero;stroke:none"
         d="m 3001.33,167.449 h -60.9 v 31.91 h 155.83 v -31.91 h -60.91 V 3.35938 h -34.02 V 167.449" /><path
         id="path48"
         style="fill:#ffffff;fill-opacity:1;fill-rule:nonzero;stroke:none"
         d="m 3139.36,199.359 h 33.75 V 3.35938 h -33.75 V 199.359" /><path
         id="path50"
         style="fill:#ffffff;fill-opacity:1;fill-rule:nonzero;stroke:none"
         d="m 3381.36,100.809 v 0.55 c 0,38.09 -27.17,69.719 -65.31,69.719 -38.13,0 -64.74,-31.066 -64.74,-69.156 v -0.563 c 0,-38.0699 27.16,-69.4293 65.29,-69.4293 38.14,0 64.76,30.7891 64.76,68.8793 z m -165.44,0 v 0.55 c 0,55.172 41.7,101.36 100.68,101.36 59,0 100.15,-45.629 100.15,-100.797 v -0.563 c 0,-55.1481 -41.71,-101.3472812 -100.7,-101.3472812 -58.98,0 -100.13,45.6288812 -100.13,100.7972812" /><path
         id="path52"
         style="fill:#ffffff;fill-opacity:1;fill-rule:nonzero;stroke:none"
         d="m 3457.67,199.359 h 31.28 L 3591.83,63.8398 V 199.359 h 33.2 V 3.35938 h -28.26 L 3490.87,142.809 V 3.35938 h -33.2 V 199.359" /><path
         id="path54"
         style="fill:#ffffff;fill-opacity:1;fill-rule:nonzero;stroke:none"
         d="m 3661.55,31.9297 20.31,24.6406 c 18.37,-16.2383 37.04,-25.4805 60.63,-25.4805 20.85,0 34.01,10.0821 34.01,24.6407 v 0.5508 c 0,14.0078 -7.67,21.5703 -43.35,29.9687 -40.86,10.0703 -63.91,22.398 -63.91,58.512 v 0.566 c 0,33.594 27.43,56.832 65.56,56.832 27.99,0 50.21,-8.68 69.69,-24.629 l -18.1,-26.051 c -17.29,13.161 -34.57,20.168 -52.13,20.168 -19.76,0 -31.28,-10.367 -31.28,-23.25 v -0.546 c 0,-15.133 8.78,-21.852 45.82,-30.801 40.6,-10.082 61.45,-24.9299 61.45,-57.4104 v -0.5508 c 0,-36.6796 -28.26,-58.531206 -68.59,-58.531206 -29.36,0 -57.06,10.363306 -80.11,31.371106" /><path
         id="path56"
         style="fill:#ffffff;fill-opacity:1;fill-rule:nonzero;stroke:none"
         d="m 2446.64,1084.11 h 194.78 v 1063 h -202.55 l -294.12,-427.54 43.1,-61.18 293.2,422.33 h 90.92 v -930.23 h -55.9 v 880.92 l -326.62,-467.68 -2.88,3.97 -420.83,579.41 h -201.08 v -1063 h 194.78 v 730.19 l 351.91,-480 41.68,61.13 -463.03,636.09 v -881.03 h -55.9 v 930.23 h 90.88 l 1.04,-1.44 461.78,-634.93 258.84,375.08 v -735.32" /><path
         id="path58"
         style="fill:#ffffff;fill-opacity:1;fill-rule:nonzero;stroke:none"
         d="m 839.512,2050.66 c -34.434,0 -62.449,28.02 -62.449,62.45 0,34.43 28.015,62.45 62.449,62.45 34.433,0 62.453,-28.02 62.453,-62.45 0,-34.43 -28.02,-62.45 -62.453,-62.45" /><path
         id="path60"
         style="fill:#ffffff;fill-opacity:1;fill-rule:nonzero;stroke:none"
         d="m 648.555,2012.8 c -24.512,0 -47.825,14.53 -57.774,38.55 -6.386,15.41 -6.386,32.39 0,47.8 6.387,15.41 18.391,27.41 33.797,33.8 31.789,13.16 68.41,-1.99 81.594,-33.8 v 0 c 6.387,-15.41 6.387,-32.39 0,-47.8 -6.387,-15.41 -18.391,-27.41 -33.801,-33.79 -7.793,-3.23 -15.867,-4.76 -23.816,-4.76" /><path
         id="path62"
         style="fill:#ffffff;fill-opacity:1;fill-rule:nonzero;stroke:none"
         d="m 486.465,1904.75 c -15.985,0 -31.985,6.09 -44.16,18.26 -24.344,24.35 -24.344,63.97 0,88.32 24.367,24.33 63.972,24.33 88.32,0 v 0 c 24.348,-24.35 24.348,-63.97 0,-88.32 -12.18,-12.17 -28.164,-18.26 -44.16,-18.26" /><path
         id="path64"
         style="fill:#ffffff;fill-opacity:1;fill-rule:nonzero;stroke:none"
         d="m 378.074,1742.87 c -7.945,0 -16.023,1.52 -23.816,4.75 -31.817,13.18 -46.973,49.78 -33.797,81.59 13.172,31.81 49.766,46.98 81.59,33.8 31.804,-13.17 46.965,-49.78 33.801,-81.59 -9.954,-24.03 -33.262,-38.55 -57.778,-38.55" /><path
         id="path66"
         style="fill:#ffffff;fill-opacity:1;fill-rule:nonzero;stroke:none"
         d="m 340.02,1551.89 c -34.434,0 -62.454,28.01 -62.454,62.44 0,34.44 28.02,62.45 62.454,62.45 34.433,0 62.453,-28.01 62.453,-62.45 0,-34.43 -28.02,-62.44 -62.453,-62.44" /><path
         id="path68"
         style="fill:#ffffff;fill-opacity:1;fill-rule:nonzero;stroke:none"
         d="m 377.969,1360.84 c -24.524,0 -47.832,14.53 -57.781,38.55 -6.387,15.41 -6.387,32.39 0,47.8 6.382,15.41 18.386,27.41 33.796,33.8 v 0 c 31.829,13.15 68.418,-1.99 81.59,-33.8 13.176,-31.81 -1.988,-68.42 -33.797,-81.59 -7.793,-3.22 -15.859,-4.76 -23.808,-4.76" /><path
         id="path70"
         style="fill:#ffffff;fill-opacity:1;fill-rule:nonzero;stroke:none"
         d="m 485.957,1198.87 c -15.984,0 -31.973,6.08 -44.148,18.26 -11.797,11.79 -18.293,27.47 -18.293,44.16 0,16.67 6.496,32.35 18.293,44.15 v 0 c 11.796,11.79 27.476,18.29 44.16,18.29 16.668,0 32.351,-6.5 44.148,-18.29 24.348,-24.35 24.348,-63.96 0,-88.31 -12.179,-12.18 -28.164,-18.26 -44.16,-18.26" /><path
         id="path72"
         style="fill:#ffffff;fill-opacity:1;fill-rule:nonzero;stroke:none"
         d="m 647.734,1090.52 c -7.949,0 -16.023,1.53 -23.816,4.75 -31.809,13.18 -46.965,49.78 -33.801,81.6 v 0 c 6.387,15.41 18.391,27.41 33.801,33.79 15.406,6.39 32.383,6.39 47.793,0 15.406,-6.38 27.41,-18.38 33.797,-33.79 6.387,-15.41 6.387,-32.39 0,-47.8 -9.949,-24.02 -33.262,-38.55 -57.774,-38.55" /><path
         id="path74"
         style="fill:#ffffff;fill-opacity:1;fill-rule:nonzero;stroke:none"
         d="m 838.801,1052.39 c -34.438,0 -62.453,28.01 -62.453,62.44 0,34.44 28.015,62.45 62.453,62.45 34.429,0 62.449,-28.01 62.449,-62.45 0,-34.43 -28.02,-62.44 -62.449,-62.44" /><path
         id="path76"
         style="fill:#ffffff;fill-opacity:1;fill-rule:nonzero;stroke:none"
         d="m 1029.83,1090.22 c -8.09,0 -16.19,1.59 -23.89,4.78 -15.413,6.38 -27.417,18.38 -33.799,33.79 v 0 c -13.176,31.83 1.992,68.42 33.799,81.6 15.41,6.38 32.38,6.38 47.79,0 15.41,-6.39 27.41,-18.39 33.8,-33.8 13.17,-31.81 -1.98,-68.41 -33.8,-81.59 -7.7,-3.19 -15.8,-4.78 -23.9,-4.78" /><path
         id="path78"
         style="fill:#ffffff;fill-opacity:1;fill-rule:nonzero;stroke:none"
         d="m 1191.85,1198.33 c -16.68,0 -32.37,6.5 -44.16,18.29 v 0 c -24.35,24.35 -24.35,63.97 0,88.32 24.36,24.33 63.97,24.32 88.32,0 24.34,-24.35 24.34,-63.97 0,-88.32 -11.8,-11.79 -27.48,-18.29 -44.16,-18.29" /><path
         id="path80"
         style="fill:#ffffff;fill-opacity:1;fill-rule:nonzero;stroke:none"
         d="m 1300.16,1360.15 c -8.1,0 -16.2,1.6 -23.9,4.79 v 0 c -31.81,13.18 -46.96,49.78 -33.79,81.59 6.38,15.41 18.38,27.41 33.79,33.79 15.41,6.39 32.39,6.38 47.8,0.01 31.81,-13.19 46.97,-49.79 33.79,-81.6 -6.38,-15.41 -18.38,-27.41 -33.79,-33.79 -7.71,-3.19 -15.81,-4.79 -23.9,-4.79" /><path
         id="path82"
         style="fill:#ffffff;fill-opacity:1;fill-rule:nonzero;stroke:none"
         d="m 1338.29,1551.17 c -34.43,0 -62.45,28.01 -62.45,62.44 0,34.44 28.02,62.45 62.45,62.45 34.43,0 62.45,-28.01 62.45,-62.45 0,-34.43 -28.02,-62.44 -62.45,-62.44" /><path
         id="path84"
         style="fill:#ffffff;fill-opacity:1;fill-rule:nonzero;stroke:none"
         d="m 1300.44,1742.18 c -8.1,0 -16.19,1.59 -23.91,4.78 -15.41,6.38 -27.41,18.39 -33.79,33.8 -13.17,31.8 1.99,68.4 33.79,81.59 15.41,6.38 32.38,6.38 47.81,-0.01 15.41,-6.38 27.41,-18.38 33.79,-33.79 13.17,-31.81 -1.99,-68.41 -33.79,-81.59 v 0 c -7.71,-3.19 -15.8,-4.78 -23.9,-4.78" /><path
         id="path86"
         style="fill:#ffffff;fill-opacity:1;fill-rule:nonzero;stroke:none"
         d="m 1192.35,1904.21 c -16.68,0 -32.36,6.5 -44.16,18.3 -24.34,24.35 -24.34,63.96 0,88.31 11.8,11.79 27.48,18.29 44.16,18.29 16.68,0 32.37,-6.5 44.16,-18.29 24.35,-24.35 24.35,-63.96 0,-88.31 v 0 c -11.79,-11.8 -27.48,-18.3 -44.16,-18.3" /><path
         id="path88"
         style="fill:#ffffff;fill-opacity:1;fill-rule:nonzero;stroke:none"
         d="m 1030.42,2012.54 c -7.95,0 -16.03,1.52 -23.82,4.75 -15.409,6.38 -27.412,18.38 -33.795,33.79 -6.387,15.41 -6.387,32.39 0,47.8 13.172,31.8 49.765,46.97 81.585,33.79 15.41,-6.38 27.42,-18.38 33.8,-33.79 6.39,-15.41 6.39,-32.39 0,-47.8 v 0 c -9.95,-24.02 -33.26,-38.54 -57.77,-38.54" /><path
         id="path90"
         style="fill:#ffffff;fill-opacity:1;fill-rule:nonzero;stroke:none"
         d="m 765.898,1938.51 c -8.796,0 -17.414,2.6 -24.914,7.6 -10,6.68 -16.796,16.85 -19.148,28.66 -2.344,11.79 0.051,23.8 6.727,33.8 6.679,10 16.859,16.8 28.664,19.15 11.691,2.34 23.878,-0.09 33.796,-6.72 10,-6.68 16.797,-16.86 19.153,-28.66 2.336,-11.78 -0.059,-23.78 -6.746,-33.79 -6.692,-10.01 -16.86,-16.82 -28.645,-19.16 -2.961,-0.59 -5.93,-0.88 -8.887,-0.88" /><path
         id="path92"
         style="fill:#ffffff;fill-opacity:1;fill-rule:nonzero;stroke:none"
         d="m 630.215,1882.42 c -14.551,0 -28.848,7.01 -37.52,19.99 -6.679,10.01 -9.062,22.02 -6.718,33.8 2.343,11.79 9.14,21.97 19.14,28.66 7.434,4.95 16.055,7.58 24.961,7.58 15.117,0 29.141,-7.48 37.512,-20 6.68,-10.01 9.058,-22.02 6.719,-33.81 -2.344,-11.78 -9.141,-21.96 -19.141,-28.66 -7.668,-5.11 -16.359,-7.56 -24.953,-7.56" /><path
         id="path94"
         style="fill:#ffffff;fill-opacity:1;fill-rule:nonzero;stroke:none"
         d="m 526.023,1778.57 c -8.601,0 -17.285,2.45 -24.949,7.57 -20.644,13.8 -26.211,41.81 -12.422,62.45 6.68,10.01 16.868,16.81 28.661,19.16 11.625,2.34 23.847,-0.08 33.8,-6.72 20.645,-13.8 26.223,-41.82 12.434,-62.46 -8.684,-12.98 -22.981,-20 -37.524,-20" /><path
         id="path96"
         style="fill:#ffffff;fill-opacity:1;fill-rule:nonzero;stroke:none"
         d="m 469.727,1642.79 c -2.903,0 -5.84,0.29 -8.789,0.87 -11.79,2.34 -21.954,9.15 -28.641,19.16 -6.692,10.01 -9.082,22.01 -6.75,33.79 4.18,21 22.746,36.25 44.148,36.25 2.934,0 5.903,-0.3 8.801,-0.87 24.356,-4.85 40.227,-28.6 35.391,-52.95 -4.27,-21.4 -23.125,-36.25 -44.16,-36.25" /><path
         id="path98"
         style="fill:#ffffff;fill-opacity:1;fill-rule:nonzero;stroke:none"
         d="m 469.465,1495.77 c -8.789,0 -17.402,2.6 -24.914,7.61 -9.981,6.67 -16.785,16.85 -19.153,28.66 -2.332,11.81 0.051,23.82 6.731,33.8 6.687,10 16.863,16.8 28.664,19.14 11.617,2.35 23.855,-0.07 33.809,-6.72 10,-6.69 16.793,-16.86 19.148,-28.65 2.336,-11.81 -0.059,-23.82 -6.738,-33.81 -6.68,-10 -16.856,-16.8 -28.66,-19.14 -2.961,-0.59 -5.93,-0.89 -8.887,-0.89" /><path
         id="path100"
         style="fill:#ffffff;fill-opacity:1;fill-rule:nonzero;stroke:none"
         d="m 525.793,1359.91 c -2.949,0 -5.922,0.29 -8.867,0.88 -11.797,2.35 -21.977,9.15 -28.664,19.15 -6.68,10.01 -9.074,22.01 -6.731,33.81 2.356,11.79 9.153,21.97 19.153,28.65 7.421,4.96 16.046,7.58 24.953,7.58 15.117,0 29.136,-7.48 37.508,-20 13.789,-20.65 8.222,-48.67 -12.422,-62.46 -7.5,-5.01 -16.121,-7.61 -24.93,-7.61" /><path
         id="path102"
         style="fill:#ffffff;fill-opacity:1;fill-rule:nonzero;stroke:none"
         d="m 629.453,1255.87 c -8.816,0 -17.433,2.6 -24.922,7.6 -9.988,6.68 -16.797,16.86 -19.16,28.66 -2.336,11.81 0.051,23.81 6.731,33.8 8.378,12.53 22.402,20 37.507,20 8.914,0 17.539,-2.62 24.961,-7.57 20.633,-13.8 26.211,-41.82 12.422,-62.46 -6.679,-10 -16.855,-16.8 -28.664,-19.15 -2.945,-0.59 -5.926,-0.88 -8.875,-0.88" /><path
         id="path104"
         style="fill:#ffffff;fill-opacity:1;fill-rule:nonzero;stroke:none"
         d="m 765.383,1199.49 c -2.949,0 -5.91,0.29 -8.867,0.88 -24.348,4.84 -40.215,28.59 -35.383,52.95 v 0 c 4.851,24.34 28.633,40.18 52.949,35.37 11.785,-2.34 21.953,-9.14 28.645,-19.15 6.687,-10.02 9.082,-22.02 6.746,-33.8 -2.344,-11.78 -9.153,-21.95 -19.16,-28.64 -7.508,-5.01 -16.133,-7.61 -24.93,-7.61" /><path
         id="path106"
         style="fill:#ffffff;fill-opacity:1;fill-rule:nonzero;stroke:none"
         d="m 912.297,1199.36 c -21.047,0 -39.902,14.84 -44.16,36.25 -2.336,11.8 0.047,23.8 6.726,33.8 6.68,10 16.867,16.8 28.66,19.14 11.672,2.33 23.872,-0.09 33.801,-6.71 10,-6.68 16.797,-16.86 19.153,-28.66 2.339,-11.8 -0.051,-23.8 -6.731,-33.8 -6.68,-10.01 -16.855,-16.81 -28.66,-19.15 -2.949,-0.59 -5.891,-0.87 -8.789,-0.87" /><path
         id="path108"
         style="fill:#ffffff;fill-opacity:1;fill-rule:nonzero;stroke:none"
         d="m 1048.27,1255.47 c -2.95,0 -5.92,0.29 -8.89,0.88 -11.78,2.35 -21.97,9.15 -28.66,19.15 v 0 c -13.786,20.64 -8.21,48.66 12.42,62.46 20.65,13.8 48.68,8.22 62.48,-12.43 6.68,-10 9.07,-22 6.72,-33.8 -2.35,-11.79 -9.15,-21.96 -19.15,-28.65 -7.5,-5.01 -16.11,-7.61 -24.92,-7.61" /><path
         id="path110"
         style="fill:#ffffff;fill-opacity:1;fill-rule:nonzero;stroke:none"
         d="m 1152.09,1359.34 c -8.81,0 -17.41,2.59 -24.89,7.59 -10,6.68 -16.8,16.85 -19.15,28.65 -2.35,11.8 0.05,23.8 6.73,33.8 8.36,12.53 22.39,20 37.51,20 v 0 c 8.9,0 17.52,-2.62 24.95,-7.57 10,-6.68 16.79,-16.86 19.15,-28.66 2.33,-11.81 -0.05,-23.81 -6.73,-33.8 -6.68,-9.99 -16.86,-16.78 -28.66,-19.13 -2.97,-0.59 -5.95,-0.88 -8.91,-0.88" /><path
         id="path112"
         style="fill:#ffffff;fill-opacity:1;fill-rule:nonzero;stroke:none"
         d="m 1208.68,1495.08 c -2.95,0 -5.91,0.29 -8.86,0.88 -11.78,2.34 -21.96,9.14 -28.65,19.16 -6.68,10.01 -9.07,22.01 -6.74,33.79 4.18,21 22.75,36.25 44.15,36.25 2.94,0 5.9,-0.3 8.8,-0.88 11.78,-2.33 21.96,-9.14 28.65,-19.15 6.68,-10.01 9.07,-22.01 6.73,-33.79 -2.34,-11.79 -9.15,-21.95 -19.15,-28.64 -7.5,-5.02 -16.12,-7.62 -24.93,-7.62" /><path
         id="path114"
         style="fill:#ffffff;fill-opacity:1;fill-rule:nonzero;stroke:none"
         d="m 1208.64,1642.07 c -8.81,0 -17.42,2.61 -24.92,7.61 -10,6.68 -16.8,16.86 -19.15,28.66 -2.34,11.79 0.04,23.79 6.72,33.8 6.7,10.01 16.87,16.81 28.67,19.15 11.55,2.34 23.86,-0.08 33.8,-6.72 10,-6.68 16.8,-16.86 19.15,-28.66 2.34,-11.8 -0.05,-23.8 -6.73,-33.8 -6.68,-10 -16.85,-16.8 -28.66,-19.15 -2.95,-0.59 -5.93,-0.89 -8.88,-0.89" /><path
         id="path116"
         style="fill:#ffffff;fill-opacity:1;fill-rule:nonzero;stroke:none"
         d="m 1152.68,1777.97 c -14.55,0 -28.84,7.02 -37.51,20 -13.79,20.64 -8.22,48.67 12.43,62.46 9.93,6.64 22.15,9.06 33.81,6.72 11.78,-2.35 21.97,-9.15 28.65,-19.15 13.79,-20.64 8.21,-48.65 -12.42,-62.45 -7.68,-5.12 -16.37,-7.58 -24.96,-7.58" /><path
         id="path118"
         style="fill:#ffffff;fill-opacity:1;fill-rule:nonzero;stroke:none"
         d="m 1048.68,1882.02 c -8.59,0 -17.27,2.45 -24.94,7.57 -20.63,13.8 -26.213,41.82 -12.42,62.46 8.38,12.52 22.4,20 37.51,20 8.9,0 17.53,-2.62 24.96,-7.58 10,-6.68 16.8,-16.87 19.14,-28.65 2.34,-11.79 -0.04,-23.8 -6.72,-33.8 -8.68,-12.98 -22.98,-20 -37.53,-20" /><path
         id="path120"
         style="fill:#ffffff;fill-opacity:1;fill-rule:nonzero;stroke:none"
         d="m 913.098,1938.37 c -2.953,0 -5.918,0.29 -8.879,0.88 -24.348,4.84 -40.215,28.6 -35.379,52.95 4.18,21 22.742,36.25 44.156,36.25 2.949,0 5.91,-0.29 8.801,-0.87 24.348,-4.84 40.215,-28.6 35.383,-52.95 -2.344,-11.78 -9.153,-21.95 -19.16,-28.64 -7.5,-5.02 -16.118,-7.62 -24.922,-7.62" /></g></g></svg>